<?xml version="1.0" encoding="utf-8"?>
<!-- Generator: Adobe Illustrator 21.1.0, SVG Export Plug-In . SVG Version: 6.00 Build 0)  -->
<svg version="1.1" id="Calque_1" xmlns="http://www.w3.org/2000/svg" xmlns:xlink="http://www.w3.org/1999/xlink" x="0px" y="0px"
	 viewBox="0 0 79 84.2" style="enable-background:new 0 0 79 84.2;" xml:space="preserve">
<style type="text/css">
	.st0{fill:#BDCBD1;}
</style>
<path class="st0" d="M78.1,0.3c-0.6-0.4-1.3-0.4-1.9-0.2L39.5,15.4L2.8,0.2C2.2-0.1,1.4,0,0.9,0.3C0.3,0.7,0,1.3,0,2v64.6
	c0,0.8,0.5,1.5,1.2,1.8L38.7,84c0,0,0.1,0,0.1,0c0,0,0.1,0,0.1,0c0.2,0,0.3,0.1,0.5,0.1s0.3,0,0.5-0.1c0,0,0.1,0,0.1,0
	c0,0,0.1,0,0.1,0l37.5-15.6c0.7-0.3,1.2-1,1.2-1.8V2C79,1.3,78.7,0.7,78.1,0.3z M37.5,79.2L4,65.2V5l33.5,13.9V79.2z M75,65.2
	L41.5,79.2V18.9L75,5V65.2z M49.4,32.8c0.3,0,0.5,0,0.8-0.2l17.7-7.3c1-0.4,1.5-1.6,1.1-2.6c-0.4-1-1.6-1.5-2.6-1.1l-17.7,7.3
	c-1,0.4-1.5,1.6-1.1,2.6C47.9,32.3,48.6,32.8,49.4,32.8z M49.4,42.8c0.3,0,0.5,0,0.8-0.2l17.7-7.3c1-0.4,1.5-1.6,1.1-2.6
	c-0.4-1-1.6-1.5-2.6-1.1l-17.7,7.3c-1,0.4-1.5,1.6-1.1,2.6C47.9,42.3,48.6,42.8,49.4,42.8z M49.4,52.8c0.3,0,0.5,0,0.8-0.2l17.7-7.3
	c1-0.4,1.5-1.6,1.1-2.6c-0.4-1-1.6-1.5-2.6-1.1l-17.7,7.3c-1,0.4-1.5,1.6-1.1,2.6C47.9,52.3,48.6,52.8,49.4,52.8z M49.4,62.8
	c0.3,0,0.5-0.1,0.8-0.2l17.7-7.3c1-0.4,1.5-1.6,1.1-2.6c-0.4-1-1.6-1.5-2.6-1.1l-17.7,7.3c-1,0.4-1.5,1.6-1.1,2.6
	C47.9,62.3,48.6,62.8,49.4,62.8z M11.2,25.3l17.7,7.3c0.3,0.1,0.5,0.2,0.8,0.2c0.8,0,1.5-0.5,1.8-1.2c0.4-1-0.1-2.2-1.1-2.6
	l-17.7-7.3c-1-0.4-2.2,0.1-2.6,1.1C9.6,23.7,10.1,24.8,11.2,25.3z M11.2,35.3l17.7,7.3c0.3,0.1,0.5,0.2,0.8,0.2
	c0.8,0,1.5-0.5,1.8-1.2c0.4-1-0.1-2.2-1.1-2.6l-17.7-7.3c-1-0.4-2.2,0.1-2.6,1.1C9.6,33.7,10.1,34.8,11.2,35.3z M11.2,45.3l17.7,7.3
	c0.3,0.1,0.5,0.2,0.8,0.2c0.8,0,1.5-0.5,1.8-1.2c0.4-1-0.1-2.2-1.1-2.6l-17.7-7.3c-1-0.4-2.2,0.1-2.6,1.1
	C9.6,43.7,10.1,44.8,11.2,45.3z M11.2,55.3l17.7,7.3c0.3,0.1,0.5,0.2,0.8,0.2c0.8,0,1.5-0.5,1.8-1.2c0.4-1-0.1-2.2-1.1-2.6
	l-17.7-7.3c-1-0.4-2.2,0.1-2.6,1.1C9.6,53.7,10.1,54.8,11.2,55.3z"/>
</svg>
