<?xml version="1.0" encoding="utf-8"?>
<!-- Generator: Adobe Illustrator 17.0.0, SVG Export Plug-In . SVG Version: 6.00 Build 0)  -->
<!DOCTYPE svg PUBLIC "-//W3C//DTD SVG 1.1//EN" "http://www.w3.org/Graphics/SVG/1.1/DTD/svg11.dtd">
<svg version="1.1" id="Calque_1" xmlns="http://www.w3.org/2000/svg" xmlns:xlink="http://www.w3.org/1999/xlink" x="0px" y="0px"
	 width="487.817px" height="402.08px" viewBox="0 0 487.817 402.08" enable-background="new 0 0 487.817 402.08"
	 xml:space="preserve">
<path fill="#33526E" d="M330.888,113.257c-8.429-0.45-8.384-0.459-9.921-8.623c-5.104-27.12-10.243-54.234-15.369-81.35
	c33.935,0,67.87,0,101.805,0c2.651,2.137,3.04,5.281,3.584,8.303c2.804,15.559,5.108,31.221,8.835,46.592
	c1.767,7.285,0.586,13.653-3.783,19.562c-0.773,1.046-1.259,2.199-1.725,3.387c-1.492,2.512-4.196,2.766-6.607,3.302
	c-21.994,4.888-44.182,8.66-66.595,10.997C337.589,115.795,333.772,116.413,330.888,113.257z"/>
<path fill="#2E4A62" d="M412.926,100.095c9.077-12.957,2.479-26.152,0.561-39.26c-1.836-12.547-5.37-24.82-6.084-37.55
	c9.852,0,19.704,0,29.556,0c2.899,14.932,5.808,29.861,8.691,44.796c0.822,4.259,1.072,8.703,2.465,12.759
	c2.102,6.12,0.312,9.709-5.69,11.529c-2.134,3.93-6.218,4.567-9.914,5.789c-3.582,1.184-7.238,2.13-10.991,2.659
	C418.569,101.59,415.507,103.663,412.926,100.095z"/>
<path fill="#EFAD74" d="M330.358,244.654c-7.085-11.023-12.879-22.736-17.645-34.893c-1.946-4.964-0.898-10.347,0.858-15.512
	c7.903-23.247,15.529-46.584,22.35-70.177c0.894-2.33,3-2.391,4.974-2.571c27.333-2.495,54.273-7.302,80.937-13.727
	c4.08-0.796,7.772-2.898,11.904-3.541c1.957-0.305,3.945-1.023,5.459,0.997c7.619,25.7,21.067,49.011,30.338,74.043
	c4.606,12.437,0.66,24.415-10.931,30.535c-3.706,1.957-6.532,4.491-8.247,8.306c-1.155,2.568-2.845,4.648-5.645,5.577
	c-0.159,0.088-0.319,0.256-0.476,0.253c-9.999-0.183-17.966,3.274-22.662,12.614c-5.362,5.655-12.322,6.652-19.599,6.728
	c-10.738-2.13-16.305,1.917-16.954,12.545c-0.186,3.054-0.353,6.157,0.204,9.218c2.457,20.57,5.24,41.093,8.957,61.48
	c5.034,6.034,2.232,15.488-6.074,18.816c-5.109,2.047-10.571,2.436-15.261-1.675c-7.157-5.541-7.282-13.935-8.785-21.764
	c-0.293-1.526,0.212-2.83,1.498-3.777c-5.719-22.508-7.487-45.891-15.05-67.992c-2.707-5.831-2.738-12.23-3.812-18.395
	c-1.628-9.35-3.783-18.59-4.92-25.625c2.491,13.427,6.044,29.062,7.693,45.03c-0.618,4.546-1.316,9.025-7.491,8.888
	C341.373,252.439,336.571,248.014,330.358,244.654z"/>
<path fill="#FEFEFE" d="M365.558,318.13c1.165,5.122,2.431,10.224,3.459,15.373c0.63,3.157,2.363,5.646,4.157,8.154
	c-0.206,4.114-2.288,5.587-6.237,4.432c-18.859-24.782-36.983-50.093-54.706-75.696c-4.029-5.82-9.42-10.925-12.887-16.783
	c-4.366-7.378-9.323-14.255-14.199-21.203c-16.953-24.156-34.143-48.146-51.208-72.223c-1.468-2.071-2.681-4.322-4.012-6.489
	c1.503-4.485,6.665-8.281,11.248-8.272c13.445,18.592,26.653,37.361,40.394,55.731c18.861,25.218,37.691,50.452,55.46,76.456
	C346.346,291.252,357.053,303.916,365.558,318.13z"/>
<path fill="#E64B3C" d="M366.936,346.089c2.08-1.478,4.16-2.955,6.238-4.432c13.284,6.329,21.52,0.397,21.004-15.128
	c3.194-2.746,4.436-2.251,4.824,2.193c1.551,17.761,3.441,35.492,5.136,53.241c0.165,1.724,1.044,4.93-2.588,3.33
	c-17.268-7.607-34.439-15.434-52.795-23.701c5.879-4.034,10.876-7.453,15.861-10.889
	C366.221,349.596,368.315,348.707,366.936,346.089z"/>
<path fill="#E64B3C" d="M115.229,141.902c9.722-2.861,17.886-0.428,24.519,7.212c5.959,2.764,7.513,8.547,3.837,14.286
	c-2.37,8.475-6.575,15.385-15.855,17.491c-15.19,3.447-29.783-9.629-23.749-28.286C103.696,145.56,108.009,141.456,115.229,141.902z
	"/>
<path fill="#E64B3C" d="M53.879,101.127c-16.826,4.418-31.089-6.94-28.229-22.479c2.12-11.517,13.862-19.292,24.846-16.452
	c12.645,3.27,18.455,15.061,13.971,28.352C65.122,97.025,60.334,101.808,53.879,101.127z"/>
<path fill="#E64B3C" d="M241.171,145.423c-3.013,3.759-6.758,6.522-11.247,8.272c-8.887,1.499-16.655-0.366-22.659-7.535
	c-5.995-2.934-7.467-8.721-3.677-14.46c2.196-10.953,9.143-17.469,19.34-18.141c9.218-0.607,17.673,5.419,20.584,14.588
	C245.466,134.298,243.914,139.931,241.171,145.423z"/>
<path fill="#FCFCFC" d="M53.879,101.127c4.561-2.489,8.381-5.721,10.585-10.576c16.2,15.31,31.097,31.897,46.795,47.699
	c1.266,1.274,2.644,2.437,3.971,3.652c-4.872,2.388-8.557,6.021-11.247,10.702C87.281,135.445,70.58,118.286,53.879,101.127z"/>
<path fill="#FCFDFC" d="M422.686,109.659c-13.832,4.561-28.143,7.075-42.437,9.487c-14.663,2.474-29.369,4.919-44.325,4.926
	c-6.147-1.526-4.087-6.87-5.035-10.815c27.787-1.637,55.103-6.208,82.037-13.162c2.902-0.428,5.803-0.856,8.705-1.284
	C425.347,102.835,425.616,105.608,422.686,109.659z"/>
<path fill="#FDFDFD" d="M203.588,131.7c-0.329,5.214,1.063,9.992,3.676,14.459c-21.226,5.747-42.452,11.494-63.678,17.24
	c-0.044-5.094-1.26-9.872-3.837-14.285c18.072-5.882,36.619-10.05,54.893-15.203C197.597,133.077,200.605,132.432,203.588,131.7z"/>
<path fill="#E1E2E2" d="M422.686,109.659c-0.352-3.616-0.703-7.232-1.055-10.848c6.931-2.148,13.862-4.295,20.794-6.443
	c0.329,1.394,0.519,2.838,1.01,4.171c1.631,4.425-0.001,7.174-4.241,8.692C433.649,106.548,428.421,109.05,422.686,109.659z"/>
<path fill="#DC9A64" d="M349.469,251.148c-3.008-6.738-3.689-13.992-4.861-21.163c-1.493-9.138-3.419-18.205-4.983-27.332
	c-0.374-2.184-0.056-4.486,0.706-6.79c4.749,17.9,9.174,35.773,10.177,54.283C350.162,250.475,349.815,250.811,349.469,251.148z"/>
<path fill="#F2E0C9" d="M330.358,244.654c5.916-0.855,9.351,2.743,12.155,7.074c1.761,2.72,2.158,5.702-0.537,8.306
	C334.996,257.257,333.193,250.565,330.358,244.654z"/>
<path fill="#D89B66" d="M385.221,265.049c-1.117-6.079-1.906-12.153,0.932-18.013c2.95-6.089,10.023-7.743,15.817-3.75
	c-1.412,0.325-2.812,0.722-4.238,0.964c-8.38,1.421-11.522,4.75-12.234,13.196C385.287,259.97,385.308,262.514,385.221,265.049z"/>
<path fill="#D89B68" d="M421.571,236.558c3.571-11.738,12.118-14.527,23.139-12.867c-1.578,1.461-3.723,1.575-5.59,1.807
	C431.469,226.448,426.522,231.457,421.571,236.558z"/>
<path fill="#F5E1C9" d="M372.601,331.207c-0.063-6.577,3.538-11.203,8.62-11.072c4.663,0.12,9.775,6.911,9.712,12.9
	c-0.044,4.162-4.467,7.692-9.611,7.672C375.683,340.683,372.66,337.39,372.601,331.207z"/>
</svg>
