<?xml version="1.0" encoding="utf-8"?>
<!-- Generator: Adobe Illustrator 17.0.0, SVG Export Plug-In . SVG Version: 6.00 Build 0)  -->
<!DOCTYPE svg PUBLIC "-//W3C//DTD SVG 1.1//EN" "http://www.w3.org/Graphics/SVG/1.1/DTD/svg11.dtd">
<svg version="1.1" id="Calque_1" xmlns="http://www.w3.org/2000/svg" xmlns:xlink="http://www.w3.org/1999/xlink" x="0px" y="0px"
	 width="595.28px" height="841.89px" viewBox="0 0 595.28 841.89" enable-background="new 0 0 595.28 841.89" xml:space="preserve">
<path fill="#FEFEFE" d="M327.67,510.371c1.961,0.065,3.923,0.187,5.884,0.188c37.77,0.012,75.54,0.005,113.31,0.022
	c1.817,0.001,3.67-0.012,5.446,0.312c6.102,1.114,9.32,4.873,9.322,11.063c0.026,69.783,0.025,139.566-0.004,209.35
	c-0.003,6.329-3.448,10.243-9.681,11.2c-1.652,0.253-3.359,0.195-5.041,0.195c-31.03,0.011-62.061,0.005-93.091,0.022
	c-1.96,0.001-3.919,0.166-5.878,0.255c-2.174,2.459-5.138,1.948-7.88,1.959c-20.22,0.078-40.441,0.037-60.662,0.036
	c-8.987,0-17.974,0.052-26.961-0.037c-2.379-0.023-4.827,0.076-6.661-1.906c-1.957-0.106-3.914-0.304-5.871-0.305
	c-30.044-0.021-60.088-0.026-90.133-0.003c-3.593,0.003-7.089-0.399-9.868-2.848c-2.795-2.462-3.611-5.741-3.607-9.466
	c0.061-48.716,0.037-97.433,0.036-146.15c-0.001-20.217-0.014-40.433,0.009-60.65c0.011-9.122,4.057-13.025,13.562-13.03
	c38.187-0.021,76.374-0.006,114.561-0.017c1.961-0.001,3.923-0.122,5.884-0.187c1.354-1.781,3.329-1.933,5.311-1.95
	c15.565-0.129,31.129-0.129,46.694-0.001C324.337,508.439,326.303,508.616,327.67,510.371z"/>
<path fill="#FDFEFD" d="M454.863,134.742c0-18.39,0.07-36.78-0.068-55.169c-0.023-3.134,0.859-4.04,4.014-4.029
	c31.866,0.11,63.732,0.125,95.598-0.015c3.504-0.015,4.117,1.215,4.109,4.342c-0.09,36.779-0.097,73.559,0.008,110.338
	c0.009,3.291-0.888,4.291-4.238,4.279c-31.725-0.118-63.452-0.133-95.177,0.015c-3.693,0.017-4.342-1.271-4.316-4.592
	C454.938,171.522,454.862,153.131,454.863,134.742z"/>
<path fill="#FEFEFE" d="M260.336,330.021c-18.246,0.001-36.493-0.072-54.738,0.068c-3.313,0.025-4.667-0.646-4.639-4.329
	c0.162-21.614,0.139-43.23,0.015-64.844c-0.019-3.292,0.953-4.284,4.283-4.274c36.914,0.11,73.828,0.118,110.741-0.009
	c3.503-0.012,4.139,1.243,4.123,4.373c-0.111,21.614-0.126,43.23,0.013,64.844c0.021,3.297-0.893,4.27-4.217,4.243
	C297.391,329.942,278.863,330.02,260.336,330.021z"/>
<path fill="#568288" d="M372.451,386.635c-10.868,15.736-21.732,31.475-32.608,47.207c-3.255,4.709-6.561,9.382-9.799,14.102
	c-0.863,1.257-1.934,2.677-0.882,4.224c1.595,2.347-0.233,3.207-1.612,4.331c-1.332,1.824-3.326,1.905-5.289,1.921
	c-15.511,0.128-31.022,0.128-46.533,0c-1.963-0.016-3.957-0.099-5.289-1.922c-1.612-1.207-3.407-2.314-1.2-4.584
	c1.613-1.659,0.377-2.936-0.639-4.375c-14.337-20.315-28.627-40.665-42.928-61.006c0.892-1.542,2.395-1.794,3.978-1.907
	c1.541-0.11,3.084-0.132,4.628-0.132c43.223-0.013,86.446-0.04,129.669,0.056C366.852,384.557,370.232,383.482,372.451,386.635z"/>
<path fill="#FEFEFE" d="M99.453,149.04c-18.396-0.001-36.793-0.077-55.187,0.067c-3.466,0.027-4.87-0.597-4.831-4.544
	c0.211-21.483,0.168-42.97,0.032-64.455c-0.021-3.326,0.619-4.595,4.308-4.581c37.072,0.139,74.145,0.13,111.218,0.009
	c3.406-0.011,4.194,1.066,4.175,4.291c-0.127,21.625-0.148,43.252,0.014,64.876c0.027,3.595-1.126,4.437-4.541,4.408
	C136.246,148.96,117.849,149.041,99.453,149.04z"/>
<path fill="#FEFEFE" d="M195.989,169.367c-7.577-0.074-15.156-0.275-22.73-0.16c-2.972,0.045-4.185-0.578-4.168-3.9
	c0.133-25.554,0.128-51.108,0.006-76.662c-0.016-3.271,1.151-3.963,4.161-3.951c25.413,0.1,50.828,0.12,76.241-0.013
	c3.421-0.018,4.223,1.144,4.209,4.353c-0.109,25.273-0.133,50.547,0.02,75.819c0.022,3.649-1.228,4.444-4.591,4.363
	c-7.574-0.182-15.157,0.03-22.736,0.081c-1.543,1.343-2.79,0.417-4.133-0.448c-2.734-1.758-4.884-4.199-7.428-6.177
	c-2.532-1.969-4.814-2.21-7.537-0.011c-2.392,1.932-4.559,4.155-7.188,5.805C198.818,169.28,197.686,170.52,195.989,169.367z"/>
<path fill="#568288" d="M218.962,378.074c-1.663-3.288-4.729-2.368-7.414-2.395c-8.535-0.084-7.735,0.629-7.77-7.674
	c-0.018-4.21,0.071-8.421-0.015-12.629c-0.051-2.531,1.062-3.614,3.536-3.471c0.839,0.049,1.683-0.002,2.525-0.002
	c59.36,0,118.72,0,178.08,0.003c6.304,0,6.308,0.007,6.314,6.154c0.004,4.631-0.086,9.264,0.022,13.892
	c0.063,2.713-1.069,3.682-3.742,3.753c-3.75,0.099-7.585-0.767-11.244,0.746c-1.737,2.2-4.254,1.918-6.596,1.951
	c-8.422,0.12-16.846,0.048-25.269,0.049c-37.343,0.005-74.685,0.004-112.028,0C229.892,378.45,224.42,378.58,218.962,378.074z"/>
<path fill="#FDBD52" d="M126.902,200.173c8.981,0.048,17.962,0.078,26.943,0.15c5.381,0.043,7.635,2.229,7.664,7.699
	c0.067,12.632,0.054,25.266,0.01,37.898c-0.02,5.867-2.292,8.321-8.138,8.146c-3.521-0.106-4.822,0.959-4.412,4.476
	c0.258,2.216,0.041,4.486,0.046,6.732c0.003,1.137,0.041,2.298-1.165,2.931c-1.377,0.723-2.511-0.002-3.414-0.87
	c-3.34-3.208-6.784-6.337-9.83-9.811c-2.364-2.697-4.989-3.527-8.478-3.437c-8.416,0.216-16.842,0.089-25.264,0.06
	c-6.626-0.022-8.73-2.145-8.801-8.88c-0.092-8.838-0.139-17.677-0.205-26.516c-3.735-4.784-2.465-10-0.955-15.025
	c1.334-4.441,5.097-5.43,9.339-5.42c6.971,0.017,13.942-0.072,20.913,0.034C123.231,198.373,125.403,198.261,126.902,200.173z"/>
<path fill="#B9AA95" d="M487.564,241.491c0.01,24.429,0.065,48.859,0.003,73.288c-0.018,7.12-3.279,10.294-10.339,10.299
	c-42.12,0.029-84.241,0.031-126.361,0.008c-7.232-0.004-9.873-2.684-9.885-9.944c-0.032-18.533,0.024-37.066-0.036-55.599
	c-0.02-6.028-0.29-12.056-0.446-18.084c3.924-2.799,7.978-2.333,12.088-0.485c2.231,4.486,1.234,9.248,1.157,13.929
	c-0.286,17.421-1.771,34.877,1.57,52.182c0.984,2.753,3.121,3.815,5.855,4.007c1.541,0.108,3.086,0.091,4.629,0.091
	c32.278,0.006,64.556,0.006,96.835,0.001c0.982,0,1.965,0.007,2.947-0.023c5.992-0.188,8.148-2.173,8.251-8.182
	c0.199-11.646,0.031-23.296,0.079-34.944c0.026-6.313-0.19-12.631,0.25-18.942c-0.083-2.781-0.46-5.605,1.263-8.104
	C479.555,239.111,483.628,238.652,487.564,241.491z"/>
<path fill="#FEFEFE" d="M347.928,758.909c5.261,1.298,10.608,0.478,15.912,0.584c10.225,0.204,16.04,8.043,13.239,18.014
	c-0.329,1.173-0.934,1.624-2.046,1.632c-1.123,0.008-2.246,0.03-3.369,0.03c-49.142,0.001-98.285-0.046-147.427,0.087
	c-4.062,0.011-6.157-0.747-5.353-5.217c0.196-1.089,0.024-2.242,0.044-3.365c0.122-6.755,4.172-10.791,10.987-11.147
	c5.3-0.277,10.65,0.72,15.904-0.641c1.545-1.796,3.666-1.914,5.788-1.921c30.184-0.099,60.369-0.1,90.554,0.002
	C344.276,756.974,346.411,757.06,347.928,758.909z"/>
<path fill="#FDBD51" d="M352.163,241.75c-3.888-0.097-7.776-0.194-11.664-0.29c-0.039-6.035-0.192-12.072-0.085-18.104
	c0.109-6.131,3.695-9.55,9.827-9.552c42.541-0.016,85.082-0.017,127.623,0.001c6.085,0.003,9.701,3.502,9.785,9.581
	c0.083,6.034-0.047,12.07-0.084,18.105c-3.892,0.083-7.784,0.166-11.676,0.248c-2.064,2.313-4.868,1.851-7.469,1.863
	c-18.621,0.081-37.242,0.037-55.862,0.038c-17.641,0-35.282,0.044-52.922-0.038C357.036,243.589,354.23,244.064,352.163,241.75z"/>
<path fill="#FDBD52" d="M332.622,190.283c-0.071,7.986-0.115,15.973-0.223,23.959c-0.074,5.431-1.724,7.077-6.967,7.136
	c-7.967,0.091-7.968,0.091-8.056,7.856c-0.008,0.671-0.001,1.342-0.001,2.55c-2.832-2.014-4.34-4.553-5.771-6.91
	c-1.809-2.979-4.102-3.624-7.312-3.554c-8.267,0.178-16.541,0.09-24.812,0.046c-4.852-0.026-6.556-1.709-6.574-6.583
	c-0.046-12.477-0.037-24.954-0.007-37.431c0.012-5.125,1.569-6.716,6.815-6.741c12.897-0.061,25.794-0.013,38.69-0.034
	c1.676-0.003,3.352-0.153,5.027-0.236c6.142-2.974,10.027-0.79,10.595,5.933c0.258,3.053,0.875,6.073,0.618,9.17
	C334.49,187.304,334.218,189.053,332.622,190.283z"/>
<path fill="#568288" d="M85.852,220.569c-3.204,2.736-6.178,5.676-8.758,9.037c-1.08,1.407-2.6,3.029-4.581,2.235
	c-1.739-0.697-0.924-2.71-1.085-4.172c-0.077-0.693-0.013-1.402-0.012-2.104c0.007-6.884,0.005-6.861-6.638-7.529
	c-3.559-0.358-5.852-2.375-5.887-5.938c-0.131-13.335-0.142-26.674,0.028-40.008c0.05-3.93,2.566-6.254,6.531-6.271
	c18.11-0.077,36.22-0.1,54.329,0.023c4.299,0.029,6.518,2.652,6.555,7.065c0.056,6.598,0,13.196-0.009,19.794
	c-1.215,2.395-3.539,1.94-5.532,1.984c-7.95,0.175-15.904,0.001-23.856,0.098c-7.853,0.096-9.788,2.132-9.936,10.015
	C86.902,210.072,87.613,215.414,85.852,220.569z"/>
<path fill="#FEFDFD" d="M332.622,190.283c-0.077-3.363-0.209-6.726-0.219-10.09c-0.028-8.9-0.166-9.075-8.972-9.851
	c0-7.432-0.042-14.863,0.014-22.294c0.034-4.64,1.68-6.444,6.309-6.463c18.648-0.076,37.297-0.075,55.945,0.003
	c4.568,0.019,5.919,1.591,5.991,6.148c0.077,4.902,0.144,9.805,0.215,14.707c1.537,1.498,1.712,3.437,1.749,5.417
	c0.099,5.303-0.135,10.615,0.057,15.909c0.314,8.639-5.425,9.301-11.814,7.667c-0.654-0.167-1.208-0.687-1.858-0.949
	c-8.505-0.083-17.01-0.135-25.514-0.272c-1.785-0.029-2.792,1.048-3.874,2.133c-2.924,2.934-5.844,5.871-8.935,8.977
	c-0.993-2.003-0.552-3.675-0.573-5.274c-0.073-5.842-0.035-5.845-6.012-5.825C334.296,190.228,333.459,190.263,332.622,190.283z"/>
<path fill="#D1BCAB" d="M380.04,190.487c2.094-0.046,4.189-0.151,6.282-0.126c3.897,0.046,5.519-1.908,5.496-5.713
	c-0.045-7.402,0.049-14.805,0.086-22.207c13.598-0.01,27.196-0.05,40.794-0.019c5.174,0.012,6.751,1.572,6.814,6.796
	c0.082,6.868,0.099,13.739-0.013,20.606c-0.079,4.83-1.592,6.246-6.325,6.296c-4.485,0.047-8.989,0.268-13.453-0.044
	c-5.967-0.416-11.342,0.433-15.924,4.699c-1.837,1.71-4.057,2.78-3.901-1.528c0.085-2.352-1.277-3.165-3.481-3.116
	c-2.942,0.065-5.911-0.234-8.826,0.057C383.155,196.629,380.619,194.955,380.04,190.487z"/>
<path fill="#568288" d="M404.732,76.377c9.825,0,19.65-0.018,29.475,0.007c5.655,0.014,7.154,1.507,7.19,7.295
	c0.057,9.263,0.072,18.528,0.024,27.791c-0.028,5.36-1.749,7.148-7.031,7.162c-20.071,0.05-40.143,0.01-60.214,0.048
	c-2.09,0.004-3.772-0.557-5.269-2.082c-5.211-5.309-10.453-10.589-15.784-15.777c-2.503-2.436-2.208-4.454,0.167-6.765
	c5.231-5.089,10.4-10.245,15.474-15.49c1.748-1.807,3.727-2.205,6.072-2.192c9.965,0.057,19.931,0.024,29.896,0.024
	C404.732,76.391,404.732,76.384,404.732,76.377z"/>
<path fill="#D3ECF3" d="M347.928,758.909c-34.036-0.008-68.073-0.015-102.109-0.022c-0.015-5.286-0.03-10.572-0.046-15.858
	c34.054-0.017,68.109-0.035,102.163-0.052C347.933,748.287,347.931,753.598,347.928,758.909z"/>
<path fill="#576F71" d="M218.962,378.074c1.026-2.202,3.059-1.633,4.789-1.634c51.833-0.016,103.667,0,155.501,0.01
	c-0.958,4.269-3.505,7.477-6.802,10.185c-32.663-0.037-65.327-0.082-97.99-0.11c-16.262-0.014-32.524,0.005-48.787,0.009
	C222.727,384.276,220.953,381.089,218.962,378.074z"/>
<path fill="#EDEDEC" d="M304.06,133.729c-9.539-0.004-19.079,0.017-28.618-0.013c-5.33-0.017-6.796-1.449-6.804-6.663
	c-0.023-15.01-0.026-30.021-0.001-45.032c0.009-5.114,1.328-6.404,6.502-6.41c15.993-0.02,31.985,0.042,47.977-0.06
	c2.469-0.016,4.007,1.077,5.877,2.477c7.977,5.971,11.025,13.476,9.954,23.535c-0.916,8.6-0.16,17.375-0.212,26.073
	c-0.027,4.554-1.478,6.044-6.057,6.077C323.139,133.78,313.599,133.733,304.06,133.729z"/>
<path fill="#568288" d="M260.479,255.985c-18.107,0-36.214-0.103-54.319,0.081c-3.927,0.04-5.433-1.266-4.907-5.057
	c0.019-0.138,0.003-0.28,0.002-0.421c-0.038-7.384-0.038-7.387,7.188-7.387c34.95-0.001,69.9-0.003,104.85,0.002
	c5.989,0.001,5.989,0.015,6.008,6.086c0.003,0.983-0.124,1.986,0.03,2.944c0.48,2.988-0.757,3.826-3.69,3.808
	C297.254,255.93,278.866,255.985,260.479,255.985z"/>
<path fill="#FAF1D2" d="M245.892,229.953c-1.555,2.561-3.953,3.325-6.796,3.324c-18.803-0.007-37.607,0.025-56.41,0.025
	c-2.567,0-5.055-0.308-6.752-2.608c0.728-3.744,4.195-4.993,6.66-7.051c5.51-4.601,10.438-9.937,16.756-13.539
	c2.534-0.134,3.988,1.636,5.601,3.155c4.504,4.239,7.295,4.256,11.875,0.136c1.637-1.472,3.108-3.239,5.571-3.347
	c3.083,0.689,4.82,3.292,7.087,5.1c4.696,3.744,9.235,7.687,13.806,11.586C244.33,227.62,245.534,228.472,245.892,229.953z"/>
<path fill="#576F71" d="M270.44,456.498c19.037,0,38.074,0.001,57.111,0.001c0.001,4.753,0.003,9.505,0.005,14.257
	c-1.077,1.924-2.987,1.939-4.795,1.959c-15.844,0.175-31.689,0.175-47.533,0c-1.809-0.02-3.717-0.037-4.797-1.956
	C270.434,466.005,270.437,461.252,270.44,456.498z"/>
<path fill="#576F71" d="M327.538,476.737c0.004,4.746,0.008,9.492,0.011,14.239c-1.074,1.927-2.984,1.941-4.792,1.961
	c-15.84,0.176-31.681,0.176-47.521,0c-1.807-0.02-3.718-0.034-4.792-1.959c0.011-4.742,0.022-9.484,0.032-14.226
	c1.659-1.389,3.687-1.209,5.621-1.218c15.271-0.073,30.542-0.072,45.812-0.001C323.846,475.54,325.871,475.37,327.538,476.737z"/>
<path fill="#576F71" d="M327.67,510.371c-19.108,0.001-38.216,0.002-57.324,0.003c0.025-4.201,0.05-8.402,0.075-12.603
	c1.408-2.015,3.579-1.974,5.658-1.993c16.035-0.152,32.071-0.017,48.107-0.084c1.282-0.005,2.536-0.008,3.329,1.253
	C327.567,501.421,327.619,505.896,327.67,510.371z"/>
<path fill="#578389" d="M210.935,84.059c-12.488,0.001-24.977-0.063-37.464,0.049c-2.945,0.026-4.38-0.677-4.318-3.969
	c0.058-3.044,1.385-3.801,4.129-3.795c25.397,0.056,50.795,0.058,76.192,0.004c2.766-0.006,4.041,0.797,4.107,3.818
	c0.073,3.331-1.428,3.962-4.34,3.938C236.473,83.997,223.704,84.057,210.935,84.059z"/>
<path fill="#FAF1D2" d="M174.53,228.956c-0.61-1.105-1.096-2.221-1.094-3.544c0.021-11.576,0.006-23.153,0.012-34.729
	c0-0.832,0.019-1.689,0.8-2.259c4.269,0.351,6.666,3.532,9.298,6.277c1.038,1.083,1.774,2.448,3.302,2.974
	c2.912,3.024,6.134,5.698,9.442,8.265c1.226,0.952,2.615,1.729,2.36,3.619c-6.494,6.769-14.068,12.301-21.171,18.377
	C176.62,228.672,175.826,229.517,174.53,228.956z"/>
<path fill="#BBAB96" d="M185.962,198.499c-4.564-2.591-8.055-6.43-11.712-10.075c4.104-4.364,9.006-7.798,13.56-11.637
	c13.649-2.514,27.408-0.88,41.118-1.055c2.114-0.027,4.02,1.152,6.019,1.784c2.168,1.742,4.151,3.81,6.54,5.161
	c6.264,3.543,7.359,8.93,6.911,15.556c-0.61,9.019,0.339,18.096-0.45,27.134c-2.714-0.649-2.221-2.956-2.271-4.773
	c-0.198-7.133-0.041-14.271-0.106-21.406c-0.011-1.212,0.503-2.813-0.73-3.506c-1.536-0.864-2.496,0.731-3.533,1.557
	c-1.841,1.466-3.482,3.55-6.174,1.514c-0.619-0.758-0.666-1.72-0.95-2.598c-0.634-2.483-0.343-5.023-0.445-7.536
	c-0.124-3.053-1.607-4.711-4.685-4.742c-12.056-0.123-24.112-0.116-36.168-0.004c-3.067,0.029-4.592,1.646-4.722,4.708
	c-0.107,2.511,0.161,5.059-0.623,7.519C187.257,197.063,187.047,198.069,185.962,198.499z"/>
<path fill="#D0BCAB" d="M234.946,177.516c-14.225,0.011-28.45,0.025-42.674,0.028c-1.525,0-3.087,0.153-4.462-0.757
	c2.727-2.473,5.454-4.946,8.18-7.419c3.684-3.009,7.424-5.952,11.032-9.05c2.688-2.307,5.148-2.222,7.91-0.107
	c3.874,2.968,7.12,6.728,11.472,9.086C228.889,172.412,232.008,174.87,234.946,177.516z"/>
<path fill="#FAF1D2" d="M236.031,198.406c4.367-1.747,6.771-6.082,11.914-8.862c0,12.359,0,24.095,0.001,35.827
	c-0.366,0.99-0.149,2.191-1.061,2.992c-0.689,0.237-1.409,0.343-1.996-0.157c-7.225-6.157-14.853-11.847-21.578-18.591
	c-0.144-2.963,2.56-3.731,4.224-5.134C230.188,202.244,232.305,199.163,236.031,198.406z"/>
<path fill="#576F71" d="M85.852,220.569c-1.659-7.449-1.328-15.016-0.291-22.416c0.607-4.334,4.832-5.385,8.88-5.399
	c10.628-0.038,21.256-0.036,31.885-0.051c1.131,2.417,0.48,4.973,0.578,7.471c-8.845,0.047-17.689,0.094-26.533,0.14
	c-6.293,0.033-8.179,1.945-8.282,8.347c-0.054,3.364-0.152,6.728-0.23,10.091C89.568,218.405,87.519,218.857,85.852,220.569z"/>
<path fill="#568288" d="M327.516,496.946c-2.308,0.688-4.671,0.806-7.067,0.804c-16.676-0.015-33.351,0.009-50.027,0.021
	c-2.09-2.271-3.033-4.538,0.022-6.793c19.035-0.001,38.071-0.001,57.106-0.002C329.39,492.976,331.262,494.977,327.516,496.946z"/>
<path fill="#568288" d="M327.538,476.737c-1.44,0.662-2.969,0.773-4.526,0.772c-16.002-0.007-32.005-0.007-48.007-0.002
	c-1.556,0-3.088-0.088-4.528-0.756c-3.688-1.969-1.922-3.98-0.046-5.992c19.042-0.001,38.084-0.002,57.125-0.003
	C329.369,472.755,331.252,474.754,327.538,476.737z"/>
<path fill="#D0BBAA" d="M174.53,228.956c7.778-6.499,15.556-12.997,23.333-19.496c1.309-0.126,1.967,0.359,1.65,1.758
	c-7.86,6.491-15.72,12.983-23.579,19.475C175.466,230.114,174.998,229.535,174.53,228.956z"/>
<path fill="#D0BBAA" d="M224.039,209.453c7.615,6.303,15.231,12.606,22.846,18.91c-0.331,0.529-0.662,1.058-0.993,1.589
	c-7.01-4.599-12.883-10.599-19.422-15.779c-1.307-1.035-2.671-1.998-4.009-2.994C222.067,209.762,222.764,209.343,224.039,209.453z"
	/>
<path fill="#568288" d="M298.993,720.371c-48.306,0.001-96.611-0.053-144.916,0.1c-4.003,0.013-4.773-1.206-4.767-4.921
	c0.109-62.207,0.116-124.414-0.01-186.622c-0.008-3.944,0.806-5.136,4.996-5.13c96.47,0.135,192.941,0.137,289.411,0.003
	c4.189-0.006,4.995,1.188,4.987,5.126c-0.126,62.067-0.129,124.134,0,186.201c0.008,4.095-0.781,5.379-5.207,5.361
	C395.324,720.3,347.158,720.371,298.993,720.371z"/>
<path fill="#D3ECF3" d="M298.776,737.056c-3.719-0.082-5.697-2.074-5.66-5.699c0.039-3.821,2.229-6.078,5.894-6.073
	c3.789,0.006,6.044,2.509,5.868,6.514C304.724,735.297,302.586,737.14,298.776,737.056z"/>
<path fill="#527F86" d="M506.703,83.898c12.764,0,25.527-0.028,38.291,0.044c1.253,0.007,3.429-0.991,3.294,1.774
	c-0.112,2.295-1.941,1.589-3.168,1.591c-25.668,0.035-51.335,0.036-77.003-0.005c-1.329-0.002-3.401,0.803-3.29-1.857
	c0.099-2.377,2.001-1.501,3.164-1.507C480.895,83.875,493.799,83.898,506.703,83.898z"/>
<path fill="#A1DCD8" d="M465.79,130.934c27.26,0,54.519,0,81.778,0c-0.001,0.279-0.002,0.558-0.003,0.837
	c-27.274,0-54.548,0-81.822,0C465.759,131.492,465.775,131.213,465.79,130.934z"/>
<path fill="#9FDBD7" d="M547.546,142.744c-27.263,0-54.525,0-81.788,0c-0.002-0.279-0.003-0.559-0.005-0.838
	c27.269,0,54.538,0,81.807,0C547.556,142.185,547.551,142.465,547.546,142.744z"/>
<path fill="#A4DDDA" d="M465.792,145.304c27.257,0,54.514,0,81.772,0c-0.001,0.279-0.002,0.559-0.003,0.838
	c-27.276,0-54.552,0-81.828,0C465.753,145.862,465.773,145.583,465.792,145.304z"/>
<path fill="#A3DDDA" d="M465.717,98.53c27.283,0,54.566,0,81.849,0c0,0.274,0,0.547-0.001,0.821c-27.283,0-54.566,0-81.849,0
	C465.717,99.077,465.717,98.803,465.717,98.53z"/>
<path fill="#9EDBD8" d="M547.523,128.409c-27.256,0-54.513,0-81.769,0c-0.002-0.28-0.003-0.56-0.005-0.84
	c27.265,0,54.529,0,81.794,0C547.536,127.849,547.529,128.129,547.523,128.409z"/>
<path fill="#9EDBD8" d="M465.767,102.025c27.248,0,54.496,0,81.743,0c0.003,0.268,0.005,0.535,0.008,0.803
	c-27.249,0-54.498,0-81.747,0C465.77,102.56,465.769,102.292,465.767,102.025z"/>
<path fill="#9EDBD7" d="M547.512,114.01c-27.252,0-54.504,0-81.756,0c-0.001-0.28-0.003-0.56-0.004-0.84c27.265,0,54.529,0,81.794,0
	C547.535,113.45,547.523,113.73,547.512,114.01z"/>
<path fill="#A1DCD8" d="M520.516,153.467c-18.246,0-36.492,0-54.738,0c-0.003-0.238-0.005-0.475-0.008-0.713
	c18.246,0,36.492,0,54.738,0C520.511,152.992,520.514,153.229,520.516,153.467z"/>
<path fill="#A4DDDA" d="M465.763,105.655c15.192,0,30.384,0,45.576,0c0.004,0.269,0.007,0.538,0.011,0.807
	c-15.19,0-30.381,0-45.571,0C465.773,106.193,465.768,105.924,465.763,105.655z"/>
<path fill="#C6AB96" d="M466.065,184.439c27.098,0,54.196,0,81.294,0c0,0.207,0,0.413,0,0.62c-27.095,0-54.19,0-81.284,0
	C466.072,184.852,466.068,184.645,466.065,184.439z"/>
<path fill="#85D2CC" d="M547.101,160.594c-26.983,0-53.965,0-80.948,0c-0.001-0.197-0.002-0.394-0.003-0.591
	c26.993,0,53.985,0,80.978,0C547.119,160.2,547.11,160.397,547.101,160.594z"/>
<path fill="#86D2CE" d="M547.213,124.416c-27.053,0-54.106,0-81.159,0c0-0.177,0.001-0.353,0.001-0.53c27.053,0,54.106,0,81.159,0
	C547.214,124.063,547.213,124.24,547.213,124.416z"/>
<path fill="#85D1CE" d="M465.992,109.5c27.094,0,54.189,0,81.283,0c0,0.186,0,0.371,0.001,0.557c-27.094,0-54.189,0-81.284,0
	C465.992,109.871,465.992,109.685,465.992,109.5z"/>
<path fill="#84D1CB" d="M466.068,149.114c27.054,0,54.109,0,81.163,0c0,0.175,0.001,0.35,0.001,0.525c-27.054,0-54.109,0-81.163,0
	C466.069,149.464,466.068,149.289,466.068,149.114z"/>
<path fill="#A6DDDA" d="M465.71,163.356c9.594,0,19.188,0,28.783,0c0.008,0.449,0.016,0.898,0.025,1.348
	c-9.574,0.149-19.151,0.173-28.733-0.053C465.76,164.219,465.735,163.788,465.71,163.356z"/>
<path fill="#84D1CB" d="M466.215,134.613c17.71,0,35.42,0,53.13,0c0.001,0.187,0.003,0.375,0.004,0.562c-17.762,0-35.524,0-53.286,0
	C466.113,134.987,466.164,134.8,466.215,134.613z"/>
<path fill="#9EDBD8" d="M482.536,117.407c-5.604,0-11.208,0-16.811,0c-0.017-0.239-0.033-0.478-0.05-0.716
	c5.602,0,11.205,0,16.807,0C482.5,116.93,482.518,117.168,482.536,117.407z"/>
<path fill="#568388" d="M306.602,287.165c-0.738-0.788-1.283-1.403-1.862-1.984c-3.455-3.466-6.892-6.949-10.392-10.369
	c-1.13-1.104-1.791-1.912-0.323-3.383c1.446-1.45,2.257-0.877,3.387,0.273c4.508,4.587,9.026,9.167,13.657,13.628
	c1.5,1.445,1.341,2.324-0.073,3.689c-4.526,4.37-8.937,8.858-13.372,13.321c-1.125,1.132-1.97,2.264-3.669,0.46
	c-1.793-1.905-0.178-2.665,0.816-3.674c3.337-3.386,6.717-6.729,10.074-10.094C305.415,288.461,305.952,287.858,306.602,287.165z"/>
<path fill="#558288" d="M228.731,304.144c-0.625-0.556-1.158-0.986-1.64-1.467c-4.557-4.544-9.065-9.137-13.681-13.62
	c-1.375-1.336-1.643-2.242-0.118-3.71c4.635-4.462,9.16-9.041,13.672-13.628c1.107-1.125,1.873-1.793,3.337-0.308
	c1.406,1.426,0.963,2.191-0.238,3.341c-3.132,2.998-6.008,6.279-9.269,9.123c-2.635,2.298-3.199,3.891-0.149,6.415
	c3.434,2.841,6.4,6.25,9.549,9.432c0.639,0.646,1.754,1.25,0.748,2.382C230.306,302.82,229.533,303.413,228.731,304.144z"/>
<path fill="#ADD4DF" d="M256.598,289.653c-3.211-0.004-6.422,0.026-9.632-0.023c-0.913-0.014-2.23,0.133-2.182-1.255
	c0.035-1.003,1.16-1.083,1.988-1.087c6.701-0.027,13.402-0.041,20.102-0.004c0.91,0.005,2.274-0.04,2.158,1.314
	c-0.112,1.307-1.48,1.023-2.382,1.038C263.3,289.689,259.949,289.657,256.598,289.653z"/>
<path fill="#ADD5E0" d="M263.416,293.827c-2.361,0-4.721,0.022-7.081-0.014c-0.689-0.011-1.503-0.159-1.547-1.027
	c-0.042-0.844,0.72-1.187,1.41-1.191c4.857-0.033,9.715-0.029,14.572,0.026c0.674,0.008,1.419,0.377,1.322,1.26
	c-0.099,0.905-0.922,0.945-1.594,0.955c-2.36,0.036-4.721,0.014-7.082,0.014C263.416,293.842,263.416,293.834,263.416,293.827z"/>
<path fill="#ADD5DF" d="M281.033,289.62c-2.246,0-4.492,0.028-6.737-0.015c-0.816-0.016-1.866-0.042-1.851-1.176
	c0.01-0.785,0.848-1.092,1.567-1.096c4.63-0.024,9.26-0.024,13.889,0.021c0.699,0.007,1.471,0.348,1.43,1.199
	c-0.042,0.876-0.864,1.026-1.563,1.037c-2.245,0.036-4.491,0.014-6.736,0.014C281.033,289.609,281.033,289.615,281.033,289.62z"/>
<path fill="#ADD4DF" d="M241.982,285.423c-1.815,0.006-3.63,0.033-5.443-0.008c-0.67-0.015-1.504-0.008-1.626-0.927
	c-0.12-0.894,0.614-1.287,1.294-1.297c3.904-0.063,7.809-0.06,11.714-0.027c0.712,0.006,1.449,0.37,1.441,1.194
	c-0.009,0.885-0.812,1.038-1.517,1.049C245.89,285.437,243.936,285.417,241.982,285.423z"/>
<path fill="#F0A73D" d="M257.723,285.677c-1.954-0.891-5.274,1.07-5.379-1.467c-0.081-1.961,3.313-1.003,5.099-0.967
	c2.051,0.041,5.815-1.156,5.794,1.058C263.214,286.725,259.486,284.633,257.723,285.677z"/>
<path fill="#AED5DF" d="M269.848,285.503c-1.157-0.305-3.166,0.491-3.184-1.105c-0.023-1.979,2.092-1.265,3.334-1.324
	c1.168-0.056,3.166-0.409,3.166,1.092C273.163,286.197,271.005,285.098,269.848,285.503z"/>
<path fill="#AFD6E1" d="M285.996,285.498c-1.108-0.41-3.266,0.709-3.211-1.375c0.04-1.502,2.011-1.108,3.165-1.049
	c1.221,0.062,3.331-0.655,3.26,1.36C289.156,285.95,287.188,285.251,285.996,285.498z"/>
<path fill="#EC9718" d="M238.277,289.651c-1.157-0.52-3.467,0.896-3.416-0.998c0.056-2.095,2.45-1.057,3.781-1.088
	c1.136-0.026,3.407-0.95,3.194,1.195C241.661,290.52,239.483,289.168,238.277,289.651z"/>
<path fill="#F0A940" d="M248.181,293.95c-1.225-0.412-3.452,0.74-3.545-0.929c-0.125-2.264,2.259-1.333,3.531-1.333
	c1.271,0,3.659-0.946,3.529,1.335C251.598,294.754,249.374,293.494,248.181,293.95z"/>
<path fill="#B0D6DF" d="M239.93,291.527c0.928,0.091,1.983,0.229,1.882,1.282c-0.134,1.399-1.436,1.018-2.345,1.013
	c-0.666-0.004-1.593-0.039-1.603-0.95C237.85,291.445,239.062,291.633,239.93,291.527z"/>
<path fill="#FCBE54" d="M71.535,132.028c1.701,0.006,3.402,0.012,5.103,0.019c3.535-2.608,7.206-2.611,11.104-0.011
	c4.129,1,5.301-0.7,5.169-4.779c-0.321-9.904-0.224-19.822-0.295-29.735c-0.85-1.214-0.195-1.948,0.817-2.57
	c3.394-0.669,6.804-0.411,10.213-0.182c2.741,0.955,2.607,3.357,2.662,5.551c0.201,7.931-0.026,15.867,0.138,23.798
	c0.05,2.427-0.22,5.212,3.157,5.956c3.551,0.063,7.104-0.141,10.643,0.249c1.821-0.075,3.641-0.048,5.463-0.006
	c3.649,0.07,7.545-1.393,10.699,1.727c2.318,0.648,4.987-0.734,8.093,1.769c-30.441,0-59.867,0-89.966,0
	c2.079-2.454,4.27-1.15,5.994-1.782C64.14,129.433,67.904,129.432,71.535,132.028z"/>
<path fill="#568288" d="M136.405,132.044c-3.668,0-7.336-0.001-11.004-0.001c-0.956-0.863-1.736-1.833-1.758-3.198
	c-0.186-11.138-0.886-22.282,0.43-33.4c0.13-1.105,0.438-2.141,1.175-3.01c-0.048-2.163,0.263-3.467,3.172-3.448
	c8.032,0.053,8.003-0.134,7.986,7.813C136.38,108.549,136.403,120.297,136.405,132.044z"/>
<path fill="#FDFDFB" d="M125.261,94.969c0.047,12.358,0.093,24.716,0.14,37.074c-1.697,0.003-3.394,0.006-5.09,0.009
	c-1.902-1.491-1.904-3.628-1.935-5.745c-0.076-5.19-0.009-10.38-0.045-15.57c-0.009-1.261,0.048-2.532-0.272-3.767
	c-0.432-1.669-1.44-2.778-3.244-2.734c-1.805,0.044-2.758,1.219-3.119,2.89c-0.359,1.659-0.23,3.353-0.243,5.034
	c-0.037,4.909,0.043,9.819-0.059,14.729c-0.042,2.01-0.216,3.956-2.175,5.153c-4.093,0.987-5.306-0.656-5.182-4.751
	c0.274-9.053,0.108-18.12,0.063-27.181c-0.007-1.489,0.435-3.082-0.607-4.446c-3.357-0.397-6.714-0.425-10.069,0.015
	c-0.27,0.615-0.54,1.229-0.809,1.844c-1.59-0.235-2.64-1.2-3.419-2.53c1.086-1.66,2.827-1.629,4.49-1.662
	c9.73-0.19,19.446,0.779,29.181,0.357C123.887,93.643,124.82,93.875,125.261,94.969z"/>
<path fill="#568289" d="M87.742,132.036c-3.701,0.004-7.403,0.007-11.104,0.011c0.004-9.374,0.142-18.751-0.061-28.12
	c-0.068-3.14,0.792-4.049,3.962-3.967c7.332,0.189,7.317,0.013,7.276,7.315C87.769,115.528,87.764,123.782,87.742,132.036z"/>
<path fill="#D1BDAC" d="M71.535,132.028c-3.669,0.001-7.339,0.002-11.008,0.003c-0.005-7.832,0.15-15.67-0.092-23.495
	c-0.101-3.273,1.147-4.306,4.123-4.053c0.833,0.071,1.686,0.087,2.516-0.002c3.363-0.359,4.695,0.823,4.557,4.472
	C71.338,116.635,71.537,124.336,71.535,132.028z"/>
<path fill="#FAF2D9" d="M125.261,94.969c-12.021,0.917-24.045-2.008-36.065,0.023c-9.534-0.007-19.069-0.011-28.603-0.026
	c-1.12-0.002-2.243-0.031-3.36-0.112c-0.713-0.052-1.517-0.277-1.566-1.095c-0.05-0.838,0.719-1.131,1.443-1.178
	c1.257-0.081,2.52-0.114,3.78-0.115c21.453-0.015,42.905-0.022,64.357-0.031C125.252,93.28,125.256,94.125,125.261,94.969z"/>
<path fill="#B5DAE2" d="M177.328,141.837c11.863,0,23.726,0,36.059,0C210.705,144.154,181.251,144.501,177.328,141.837z"/>
<path fill="#B6D9E3" d="M213.002,127.189c-11.921,0-23.842,0-35.763,0c-0.003-0.391-0.007-0.781-0.01-1.172c11.9,0,23.8,0,35.699,0
	C212.953,126.407,212.977,126.798,213.002,127.189z"/>
<path fill="#B6D9E2" d="M202.578,92.659c-8.307,0-16.613,0-24.92,0c-0.002-0.378-0.004-0.756-0.006-1.134c8.307,0,16.614,0,24.92,0
	C202.575,91.903,202.576,92.281,202.578,92.659z"/>
<path fill="#CAE4EA" d="M230.415,137.976c3.486-0.002,6.972-0.024,10.457,0.014c0.813,0.009,1.893,0.044,2.005,1.065
	c0.12,1.093-0.957,1.272-1.754,1.276c-7.109,0.031-14.219,0.019-21.328-0.013c-0.695-0.003-1.547-0.24-1.594-1.046
	c-0.066-1.118,0.941-1.265,1.758-1.275C223.444,137.954,226.93,137.978,230.415,137.976z"/>
<path fill="#B8DAE3" d="M218.495,129.354c8.149,0,16.299,0,24.448,0c0.005,0.514,0.011,1.027,0.016,1.541
	c-8.111,0.466-16.231,0.338-24.353,0.046C218.569,130.411,218.532,129.882,218.495,129.354z"/>
<path fill="#A2CFDB" d="M212.304,104.696c-11.567,0-23.134,0-34.702,0c-0.002-0.257-0.005-0.514-0.007-0.77
	c11.567,0,23.134,0,34.701,0C212.299,104.183,212.301,104.439,212.304,104.696z"/>
<path fill="#A1CFDA" d="M177.602,119.848c11.566,0,23.132,0,34.698,0c-0.001,0.283-0.001,0.566-0.002,0.85
	c-11.565,0-23.131,0-34.696,0C177.602,120.415,177.602,120.132,177.602,119.848z"/>
<path fill="#BEDEE6" d="M227.763,148.107c-2.057,1.433-4.488,0.681-6.741,0.76c-3.49,0.123-6.988,0.028-10.483-0.008
	c-0.676-0.007-1.497-0.006-1.747-0.821c-0.289-0.942,0.532-1.317,1.165-1.323c5.908-0.055,11.816-0.033,17.724-0.033
	C227.709,147.158,227.736,147.632,227.763,148.107z"/>
<path fill="#A3D0DC" d="M181.093,110.659c9.25,0,18.499,0,27.749,0c0.003,0.262,0.005,0.524,0.008,0.786c-9.249,0-18.499,0-27.748,0
	C181.099,111.183,181.096,110.921,181.093,110.659z"/>
<path fill="#A5D1DC" d="M181.11,135.125c9.238,0,18.476,0,27.714,0c0.002,0.27,0.004,0.541,0.006,0.811c-9.238,0-18.476,0-27.714,0
	C181.114,135.665,181.112,135.395,181.11,135.125z"/>
<path fill="#A8D2DD" d="M224.064,96.122c-8.645,0-17.29,0-25.935,0c-0.001-0.357-0.001-0.713-0.002-1.07
	c8.644-0.418,17.289-0.43,25.935,0.017C224.063,95.42,224.063,95.771,224.064,96.122z"/>
<path fill="#A6D2DD" d="M224.028,152.019c-8.631,0.275-17.26,0.388-25.887-0.048c-0.002-0.353-0.004-0.706-0.007-1.059
	c8.645,0,17.29,0,25.935,0C224.056,151.281,224.042,151.65,224.028,152.019z"/>
<path fill="#A5D0DC" d="M177.836,154.205c8.119,0,16.239,0,24.358,0c0.005,0.286,0.011,0.572,0.016,0.858c-8.115,0-16.23,0-24.345,0
	C177.856,154.777,177.846,154.491,177.836,154.205z"/>
<path fill="#A3CFDB" d="M218.871,107.194c7.901,0,15.802,0,23.703,0c0.002,0.282,0.004,0.564,0.005,0.846
	c-7.898,0-15.796,0-23.694,0C218.881,107.758,218.876,107.476,218.871,107.194z"/>
<path fill="#A3CFDB" d="M218.821,116.393c7.923,0,15.845,0,23.768,0c0.001,0.339,0.002,0.677,0.003,1.016
	c-7.909,0.598-15.828,0.334-23.746,0.145C218.837,117.167,218.829,116.78,218.821,116.393z"/>
<path fill="#BDDDE5" d="M194.604,147.716c-4.235,1.507-8.55,1.199-12.85,0.975c-0.298-0.016-0.737-0.451-0.822-0.768
	c-0.175-0.657,0.368-1.058,0.906-1.117C186.126,146.335,190.399,146.215,194.604,147.716z"/>
<path fill="#A5D1DC" d="M208.923,98.609c6.138,0,12.275,0,18.413,0c0.002,0.295,0.004,0.59,0.005,0.885c-6.131,0-12.261,0-18.392,0
	C208.941,99.199,208.932,98.904,208.923,98.609z"/>
<path fill="#A6D2DD" d="M228.15,150.753c5.967,0,11.935,0,17.902,0c0.005,0.341,0.009,0.681,0.014,1.022
	c-5.936,0.9-11.903,0.36-17.86,0.322C228.188,151.65,228.169,151.201,228.15,150.753z"/>
<path fill="#A7D2DD" d="M228.205,95.196c5.945,0,11.891,0,17.836,0c-0.001,0.372-0.003,0.744-0.004,1.116
	c-5.948,0.517-11.902,0.327-17.855,0.108C228.189,96.012,228.197,95.604,228.205,95.196z"/>
<path fill="#76BBC1" d="M177.63,150.733c5.644,0,11.288,0,16.931,0c-5.61,1.963-11.26,1.583-16.911,1.075
	C177.644,151.449,177.637,151.091,177.63,150.733z"/>
<path fill="#76BBC1" d="M194.557,96.074c-5.634,0-11.268,0-16.902,0c-0.005-0.313-0.01-0.626-0.015-0.939c5.624,0,11.249,0,16.873,0
	C194.528,95.448,194.543,95.761,194.557,96.074z"/>
<path fill="#ADD5DF" d="M191.065,130.162c-4.588,1.057-9.133,1.083-13.658,0.09C181.973,128.542,186.539,129.452,191.065,130.162z"
	/>
<path fill="#CAE4EA" d="M231.914,141.2c1.731,0.501,4.486-0.682,4.498,1.356c0.012,2.007-2.755,1.291-4.257,1.182
	c-1.713-0.125-4.797,1.246-4.809-1.363C227.338,140.465,230.488,141.859,231.914,141.2z"/>
<path fill="#B8DAE3" d="M237.434,126.735c-3.598,1.505-6.365,0.951-9.081,0.848c-0.44-0.017-1.07-0.47-1.238-0.877
	c-0.249-0.6,0.327-1.074,0.882-1.092C230.914,125.522,233.933,124.643,237.434,126.735z"/>
<path fill="#A9D3DE" d="M177.591,139.023c4.46-1.33,8.955-1.015,13.462-0.176C186.593,140.17,182.099,139.935,177.591,139.023z"/>
<path fill="#A4D0DC" d="M177.545,116.278c4.5,0,9,0,13.807,0C188.882,118.031,181.857,118.288,177.545,116.278z"/>
<path fill="#A2D0DB" d="M191.045,107.532c-4.461,1.105-8.947,1.069-13.449,0.165C182.04,106.394,186.544,106.974,191.045,107.532z"
	/>
<path fill="#A4D1DC" d="M193.806,99.544c-4.224,0-8.448,0-12.672,0c-0.016-0.262-0.032-0.525-0.048-0.787c4.217,0,8.433,0,12.65,0
	C193.759,99.02,193.783,99.282,193.806,99.544z"/>
<path fill="#72B8C0" d="M206.061,154.153c4.018,0,8.037,0,12.055,0c0.006,0.389,0.012,0.778,0.018,1.167
	c-3.989,0.544-7.998,0.329-12.008,0.087C206.104,154.989,206.083,154.571,206.061,154.153z"/>
<path fill="#CAE4EA" d="M219.998,141.172c1.142,0.544,3.628-0.795,3.411,1.551c-0.172,1.856-2.5,1.094-3.898,1.141
	c-1.277,0.042-3.473,0.432-3.377-1.294C216.246,140.549,218.551,141.519,219.998,141.172z"/>
<path fill="#96CBCF" d="M215.502,130.137c-2.871,1.559-5.494,1.169-8.453,0.337C209.762,128.401,211.854,128.334,215.502,130.137z"
	/>
<path fill="#95CACF" d="M220.158,127.766c-1.443-0.41-3.807,0.637-3.871-1.319c-0.056-1.683,2.221-1.014,3.462-1.003
	c1.401,0.013,3.848-0.713,3.942,0.962C223.808,128.504,221.315,127.204,220.158,127.766z"/>
<path fill="#49A5AD" d="M206.317,92.219c3.773-1.016,7.598-0.893,11.444-0.104C213.997,93.176,210.178,92.918,206.317,92.219z"/>
<path fill="#A3CFDB" d="M227.415,104.417c2.825-1.453,5.652-0.933,8.492-0.247C233.115,105.431,230.262,105.051,227.415,104.417z"/>
<path fill="#A3D0DC" d="M195.257,116.863c2.849-1.22,5.686-0.907,8.521-0.147C200.963,118.095,198.122,117.897,195.257,116.863z"/>
<path fill="#A2D0DC" d="M195.27,107.792c2.829-1.255,5.663-1.263,8.508-0.159C200.992,108.96,198.12,108.344,195.27,107.792z"/>
<path fill="#A2D0DA" d="M227.432,120.399c2.793-1.512,5.634-0.852,8.47-0.371C233.112,121.697,230.272,121.048,227.432,120.399z"/>
<path fill="#A8D3DE" d="M195.27,139.131c2.828-1.402,5.654-1.39,9.622-0.236C200.987,140.374,198.112,139.711,195.27,139.131z"/>
<path fill="#ADD5DE" d="M195.295,130.262c2.822-1.131,5.663-1.392,9.407-0.095C200.964,131.596,198.141,131.041,195.295,130.262z"/>
<path fill="#94CACF" d="M215.824,138.972c-1.113,0.587-1.475,0.944-1.831,0.937c-2.193-0.038-4.443,0.735-6.551-0.381
	c-0.12-0.064,0.005-1.044,0.144-1.078C210.099,137.831,212.62,137.468,215.824,138.972z"/>
<path fill="#AED5DF" d="M228.387,92.132c-2.346,1.472-4.658,1.236-8.197,0.174C223.78,90.703,226.082,91.503,228.387,92.132z"/>
<path fill="#6AB5BB" d="M207.48,107.686c2.453-1.193,4.937-1.049,8.281-0.378C212.561,109.153,210.011,108.457,207.48,107.686z"/>
<path fill="#6AB5BB" d="M216.3,104.148c2.51-0.86,4.997-1.046,7.432,0.232C221.228,105.061,218.732,105.519,216.3,104.148z"/>
<path fill="#A4D0DC" d="M219.728,111.116c-2.261,0.939-4.519,1.021-7.409,0.205C215.13,109.568,217.427,110.067,219.728,111.116z"/>
<path fill="#6CB6BD" d="M214.925,116.59c-2.459,1.437-4.937,1.316-8.167,0.488C209.854,115.125,212.439,116.245,214.925,116.59z"/>
<path fill="#6AB5BB" d="M223.767,120.148c-2.439,1.351-4.935,1.016-8.706,0.488C218.66,118.8,221.232,119.459,223.767,120.148z"/>
<path fill="#A5D1DC" d="M212.967,135.598c2.258-1.205,4.509-1.21,7.786-0.096C217.537,136.722,215.255,136.465,212.967,135.598z"/>
<path fill="#A7D2DC" d="M221.63,154.674c2.247-1.012,4.483-0.826,7.644-0.425C226.19,156.217,223.912,155.771,221.63,154.674z"/>
<path fill="#71B8BF" d="M205.227,99.017c-2.508,1.075-4.982,1.409-8.35-0.014C200.362,97.854,202.814,98.02,205.227,99.017z"/>
<path fill="#7ABDC2" d="M205.191,147.579c-2.436,1.429-4.892,1.643-8.15,0.181C200.236,146.329,202.72,147.04,205.191,147.579z"/>
<path fill="#8EC5D2" d="M239.96,92.263c2.003-1.104,4.041-0.77,6.093-0.196C244.102,93.407,242.054,93.125,239.96,92.263z"/>
<path fill="#A3D0DB" d="M239.897,154.774c2.034-1.162,4.112-1.016,6.749-0.342C244.174,156.19,242.04,155.616,239.897,154.774z"/>
<path fill="#CAE4EA" d="M241.503,141.448c0.719,0.073,1.536,0.291,1.508,1.08c-0.037,1.042-0.992,1.165-1.844,1.154
	c-0.735-0.009-1.521-0.29-1.499-1.076C239.698,141.546,240.63,141.435,241.503,141.448z"/>
<path fill="#FCBC4F" d="M228.571,111.274c-2.291,0.912-3.789,0.794-6.454,0.069C224.906,109.993,226.418,109.882,228.571,111.274z"
	/>
<path fill="#A6D1DD" d="M223.017,135.919c1.931-1.638,3.161-1.242,4.857-0.748C226.408,136.865,225.068,136.284,223.017,135.919z"/>
<path fill="#6DB6BD" d="M326.794,358.778c1.967,0.166,3.4,1.516,3.251,4.016c-0.141,2.372-1.604,4.045-4.015,3.94
	c-2.485-0.108-4.291-1.646-4.04-4.35C322.209,360.034,323.707,358.632,326.794,358.778z"/>
<path fill="#6DB6BD" d="M271.38,358.743c3.1,0.007,4.535,1.484,4.639,3.829c0.119,2.7-1.778,4.189-4.245,4.163
	c-2.349-0.024-3.813-1.706-3.843-4.125C267.9,360.056,269.512,358.926,271.38,358.743z"/>
<path fill="#6DB6BD" d="M299.607,358.769c2.032,0.182,3.551,1.433,3.467,3.941c-0.082,2.442-1.684,3.944-4.021,3.937
	c-2.533-0.007-4.268-1.551-4.067-4.237C295.164,360.038,296.662,358.672,299.607,358.769z"/>
<path fill="#6DB6BD" d="M353.377,366.858c-2.481-0.282-4.18-1.536-4.289-3.938c-0.11-2.42,1.453-3.919,3.871-4.097
	c2.517-0.186,4.022,1.152,4.084,3.697C357.103,365,355.552,366.281,353.377,366.858z"/>
<path fill="#6EB7BE" d="M221.988,362.648c-0.441,2.498-1.788,4.139-4.181,4.083c-2.382-0.055-3.833-1.667-3.846-4.113
	c-0.013-2.528,1.428-3.905,3.957-3.805C220.374,358.91,221.614,360.445,221.988,362.648z"/>
<path fill="#6DB6BD" d="M244.65,366.853c-2.188-0.543-3.729-1.821-3.7-4.3c0.031-2.556,1.517-3.894,4.043-3.732
	c2.43,0.156,3.991,1.645,3.913,4.062C248.828,365.295,247.139,366.557,244.65,366.853z"/>
<path fill="#6EB7BE" d="M384.112,362.273c-0.183,2.689-1.473,4.353-3.813,4.459c-2.33,0.106-4.013-1.296-3.988-3.818
	c0.024-2.333,1.19-3.989,3.747-4.113C382.627,358.675,383.776,360.185,384.112,362.273z"/>
<path fill="#FDFDFB" d="M110.163,223.324c2.957-0.056,5.686,2.545,5.809,5.536c0.119,2.897-2.498,5.764-5.413,5.93
	c-3.056,0.175-6.051-2.679-6.029-5.746C104.552,226.061,107.192,223.38,110.163,223.324z"/>
<path fill="#FDFDFB" d="M133.509,228.994c-0.186,3.065-2.796,5.413-5.894,5.3c-3.261-0.118-5.816-2.953-5.495-6.1
	c0.301-2.957,3.1-5.299,6.112-5.114C131.233,223.266,133.689,226.018,133.509,228.994z"/>
<path fill="#FEFDFC" d="M145.505,222.806c3.144,0.036,5.483,2.436,5.454,5.599c-0.029,3.179-2.379,5.578-5.485,5.598
	c-3.268,0.022-5.808-2.58-5.702-5.842C139.872,225.06,142.324,222.77,145.505,222.806z"/>
<path fill="#FEFEFE" d="M475.776,249.229c0.042,18.795,0.148,37.589,0.085,56.384c-0.017,4.943-2.994,7.743-8.014,7.749
	c-35.91,0.046-71.82,0.021-107.73,0.021c-3.604,0-6.192-1.452-7.295-5.054c-0.73-5.294-0.26-10.615-0.293-15.921
	c-0.083-13.448,0.042-26.898-0.079-40.346c-0.029-3.205,1.187-4.757,4.327-4.768c15.26-0.053,30.525-0.643,45.767,0.317
	c3.038,1.175,2.858,3.868,2.877,6.377c0.105,14.036,0.025,28.073,0.05,42.109c0.002,1.403-0.094,2.818,0.1,4.207
	c0.435,3.116,2.096,3.86,4.597,1.932c2.335-1.8,4.431-3.925,6.313-6.176c4.51-5.395,9.599-10.222,14.459-15.275
	c3-3.119,2.871-4.197,0.178-7.513c-5.68-6.994-12.44-12.944-18.59-19.48c-1.649-1.753-3.527-3.634-0.651-5.967
	c1.607-0.644,3.301-0.622,4.971-0.63c17.48-0.08,34.96-0.086,52.439,0.01C471.6,247.218,474.145,246.861,475.776,249.229z"/>
<path fill="#ECECEC" d="M403.502,249.184c-15.146,0.001-30.294,0.12-45.437-0.076c-4.12-0.054-5.264,1.415-5.233,5.371
	c0.138,17.949,0.017,35.9-0.01,53.851c-1.068-1.5-0.749-3.231-0.748-4.881c0.013-20.566,0.056-41.132,0.09-61.698
	c22.725-0.046,45.45-0.123,68.175-0.129c18.516-0.005,37.033,0.075,55.55,0.118c-0.037,2.497-0.075,4.994-0.112,7.491
	c-21.676,0.012-43.351,0.025-65.027,0.037C408.318,250.607,405.911,249.761,403.502,249.184z"/>
<path fill="#FEFDFC" d="M395.065,232.914c-11.641,0-23.282,0.006-34.923-0.009c-1.256-0.002-2.557,0.054-3.759-0.238
	c-2.615-0.635-4.166-2.438-4.099-5.13c0.062-2.482,1.564-4.197,3.987-4.813c1.197-0.304,2.499-0.265,3.753-0.266
	c23.282-0.014,46.564-0.01,69.846-0.01c0.561,0,1.122-0.001,1.683,0.012c3.402,0.08,5.806,1.504,5.844,5.167
	c0.038,3.657-2.297,5.221-5.727,5.259c-5.189,0.057-10.378,0.025-15.568,0.027C409.09,232.916,402.077,232.914,395.065,232.914z"/>
<path fill="#6FB6BD" d="M476.473,232.876c-3.023-0.439-4.951-1.958-4.94-5.183c0.011-3.196,1.863-4.908,4.917-5.143
	c2.832-0.217,5.512,2.531,5.249,5.337C481.411,230.97,479.499,232.556,476.473,232.876z"/>
<path fill="#578388" d="M461.238,232.808c-2.817-0.587-4.588-2.342-4.535-5.451c0.048-2.848,2.992-5.264,5.766-4.768
	c3.057,0.547,4.605,2.482,4.384,5.63C466.654,231.033,464.167,233.088,461.238,232.808z"/>
<path fill="#6FB6BD" d="M447.195,232.881c-2.979-0.322-4.955-1.75-5.076-4.981c-0.12-3.208,1.65-4.982,4.698-5.345
	c2.815-0.335,5.587,2.293,5.458,5.119C452.131,230.797,450.238,232.401,447.195,232.881z"/>
<path fill="#EFA12C" d="M305.738,195.314c3.502-0.003,7.005-0.031,10.507,0.014c1.097,0.014,2.473-0.003,2.583,1.5
	c0.114,1.561-1.241,1.71-2.356,1.716c-7.145,0.04-14.289,0.041-21.434,0.006c-1.112-0.006-2.471-0.132-2.372-1.697
	c0.095-1.509,1.466-1.505,2.565-1.519C298.733,195.288,302.236,195.317,305.738,195.314z"/>
<path fill="#ED9D27" d="M305.961,201.188c3.491,0,6.981-0.03,10.471,0.019c0.922,0.013,2.207-0.063,2.157,1.317
	c-0.037,1.037-1.143,1.106-1.961,1.108c-7.26,0.025-14.52,0.024-21.78-0.001c-0.819-0.003-1.926-0.082-1.951-1.118
	c-0.034-1.369,1.25-1.294,2.174-1.306C298.7,201.161,302.331,201.189,305.961,201.188z"/>
<path fill="#ED9D26" d="M305.879,192.666c-3.77,0-7.54,0.026-11.309-0.021c-0.813-0.01-1.8-0.179-1.671-1.344
	c0.095-0.851,0.931-1.003,1.616-1.006c7.4-0.034,14.8-0.043,22.2-0.028c0.833,0.002,1.886,0.124,1.908,1.179
	c0.023,1.062-1.018,1.215-1.854,1.222c-3.63,0.034-7.261,0.014-10.891,0.014C305.879,192.677,305.879,192.672,305.879,192.666z"/>
<path fill="#ED9615" d="M358.83,169.368c7.012,0.002,14.024-0.014,21.036,0.02c1.029,0.005,2.55-0.437,2.69,1.182
	c0.174,2.023-1.552,1.584-2.701,1.587c-14.164,0.029-28.329,0.025-42.493,0.01c-1.068-0.001-2.501,0.264-2.495-1.422
	c0.006-1.711,1.444-1.369,2.506-1.371C344.525,169.358,351.677,169.366,358.83,169.368z"/>
<path fill="#EC9615" d="M353.768,158.459c5.328,0.002,10.657-0.022,15.984,0.021c1.149,0.009,2.876-0.447,2.718,1.572
	c-0.125,1.603-1.639,1.206-2.676,1.208c-10.797,0.025-21.593,0.02-32.39,0.002c-1.064-0.002-2.501,0.295-2.522-1.388
	c-0.022-1.704,1.411-1.404,2.48-1.408C342.831,158.447,348.3,158.457,353.768,158.459z"/>
<path fill="#EC9B1F" d="M358.851,155.748c-7.006,0-14.013,0.03-21.019-0.031c-1.096-0.01-2.927,0.684-2.944-1.278
	c-0.017-2.009,1.836-1.273,2.914-1.276c14.013-0.048,28.026-0.046,42.038,0.001c1.064,0.004,2.886-0.667,2.711,1.46
	c-0.138,1.678-1.705,1.087-2.682,1.095C372.864,155.772,365.857,155.747,358.851,155.748z"/>
<path fill="#EC9A1F" d="M358.728,166.673c-6.865,0-13.73,0.045-20.594-0.045c-1.166-0.015-3.256,0.919-3.216-1.372
	c0.034-1.926,1.928-1.16,3.009-1.164c13.87-0.053,27.74-0.054,41.609,0.003c1.071,0.004,2.963-0.763,2.993,1.17
	c0.036,2.297-2.053,1.346-3.207,1.361C372.459,166.72,365.593,166.673,358.728,166.673z"/>
<path fill="#ED9B22" d="M353.76,177.553c-5.466,0-10.931,0.019-16.396-0.017c-1.014-0.007-2.529,0.453-2.487-1.325
	c0.041-1.73,1.548-1.281,2.559-1.283c10.791-0.029,21.582-0.032,32.373,0.011c0.985,0.004,2.544-0.539,2.66,1.142
	c0.146,2.125-1.666,1.426-2.732,1.44C364.411,177.591,359.085,177.553,353.76,177.553z"/>
<path fill="#576F71" d="M404.27,112.675c-7.039,0-12.93,0.048-18.819-0.014c-5.399-0.057-7.142-1.733-7.218-6.983
	c-0.079-5.468-0.083-10.94,0-16.408c0.075-4.916,1.183-5.988,5.911-6.08c14.41-0.279,28.819-0.596,43.23-0.801
	c5.889-0.084,7.236,1.329,7.269,7.117c0.031,5.329,0.03,10.659,0.001,15.988c-0.029,5.416-0.706,5.759-5.909,6.452
	C420.2,113.083,411.656,112.405,404.27,112.675z"/>
<path fill="#6DB7BD" d="M365.623,97.374c-0.269,3.31-2.099,4.948-4.933,4.772c-2.894-0.18-4.445-2.247-4.283-5.15
	c0.156-2.812,2.124-4.333,4.708-4.308C364.067,92.716,365.427,94.781,365.623,97.374z"/>
<path fill="#FDBD52" d="M274.322,122.913c-0.084-12.906-0.14-25.812-0.278-38.717c-0.025-2.297,1.058-2.797,3.103-2.79
	c15.302,0.053,30.604,0.04,45.906,0.014c1.757-0.003,3.006,0.26,2.918,2.474c-0.125,3.136,1.466,4.726,4.639,4.506
	c2.299-0.159,2.86,1.028,2.834,3.072c-0.103,8.139-0.12,16.279-0.169,24.419c-2.615,1.234-3.91-0.781-5.131-2.336
	c-1.807-2.302-3.837-4.394-5.728-6.611c-1.863-1.453-3.566-3.086-5.113-4.862c-1.726-1.982-3.249-1.736-4.766,0.203
	c-1.534,1.96-3.074,3.917-4.779,5.739c-1.243,2.04-2.454,4.091-4.202,5.768c-1.81,1.736-3.569,2.178-5.365,0.024
	c-0.335-0.445,0.109,0.104-0.235-0.34c-5.343-6.914-7.48-6.868-13.026,0.285c-1.793,3.721-5.19,5.997-7.967,8.826
	C276.228,123.334,275.288,123.497,274.322,122.913z"/>
<path fill="#6DB6BC" d="M323.654,106.008c3.207,3.294,6.413,6.588,9.62,9.882c0.763,11.961,0.763,11.961-10.949,11.961
	c-14.547,0-29.097-0.139-43.641,0.089c-4.064,0.064-5.439-1.147-4.363-5.028c3.238-3.459,6.477-6.919,9.715-10.378
	c4.998-0.72,9.995-1.422,14.969,0.155c0.997,1.15,1.848,1.976,3.094,0.082c1.374-2.09,3.061-3.974,4.611-5.948
	c2.301-0.7,4.571-1.249,6.829,0.237c0.85,0.559,1.951,0.623,2.805,0.052C318.634,105.581,321.161,105.981,323.654,106.008z"/>
<path fill="#FAFBFB" d="M252.574,250.921c-14.584-0.001-29.167,0.014-43.751-0.024c-1.423-0.004-3.693,0.647-3.799-1.44
	c-0.127-2.496,2.286-1.879,3.835-1.881c29.167-0.028,58.334-0.026,87.501,0.001c1.431,0.001,3.651-0.612,3.764,1.516
	c0.142,2.688-2.35,1.784-3.801,1.79C281.741,250.948,267.157,250.922,252.574,250.921z"/>
<path fill="#9AD6D3" d="M306.457,249.154c0.039,0.784-0.323,1.374-1.062,1.535c-0.99,0.216-1.604-0.395-1.702-1.301
	c-0.104-0.963,0.537-1.573,1.471-1.577C305.921,247.809,306.326,248.412,306.457,249.154z"/>
<path fill="#DC5F48" d="M311.294,249.272c-0.129,0.785-0.505,1.379-1.286,1.434c-0.983,0.069-1.564-0.496-1.59-1.484
	c-0.021-0.806,0.532-1.359,1.242-1.419C310.612,247.723,311.166,248.347,311.294,249.272z"/>
<path fill="#A2EBEC" d="M315.9,249.294c-0.023,0.834-0.462,1.458-1.437,1.424c-0.761-0.027-1.188-0.591-1.215-1.336
	c-0.035-0.939,0.475-1.579,1.41-1.546C315.369,247.86,315.817,248.424,315.9,249.294z"/>
<path fill="#EDECEB" d="M224.039,209.453c-0.526,0.576-1.052,1.151-1.578,1.726c-3.118,1.155-5.045,3.914-7.67,5.752
	c-2.68,1.876-4.898,1.941-7.612,0.048c-2.63-1.834-4.555-4.592-7.666-5.761c-0.55-0.586-1.1-1.172-1.65-1.758
	c-3.548-4.109-8.692-6.485-11.902-10.962c0.059-0.803,0.119-1.606,0.178-2.409c3.811-2.239,4.881,1.908,7.222,3.094
	c0.594,1.34,1.814,1.972,3.012,2.629c3.867,3.616,8.283,6.545,12.439,9.792c2.063,1.611,4.206,0.325,6.096-1.17
	c5.383-4.257,10.474-8.863,15.819-13.165c1.599-1.287,3.011-2.653,5.16-1.162c0.047,0.766,0.094,1.532,0.142,2.297
	C232.817,202.939,227.622,205.32,224.039,209.453z"/>
<path fill="#FEFEFE" d="M171.934,79.468c23.026,0,46.051,0,69.077,0c-0.002,0.326-0.004,0.651-0.007,0.977
	c-23.027,0-46.054,0-69.081,0C171.927,80.119,171.931,79.794,171.934,79.468z"/>
<path fill="#FEFEFE" d="M192.636,200.289c-2.732-0.523-3.716-3.751-6.496-4.199c-0.044-3.781-0.037-7.563-0.151-11.342
	c-0.064-2.125,0.754-2.988,2.945-2.979c14.711,0.058,29.422,0.057,44.133,0.006c2.179-0.007,3.029,0.89,2.976,2.993
	c-0.094,3.779-0.109,7.56-0.156,11.341c-5.675,3.136-10.114,7.848-14.937,12.021c-9.597,8.304-9.808,8.48-19.35,0.44
	c-2.125-1.79-4.142-3.708-6.209-5.568c1.297-3.244,4.19-1.094,5.712-1.859C198.617,200.94,195.518,201.737,192.636,200.289z"/>
<path fill="#6EB6BD" d="M292.761,679.758c-29.755-0.005-52.68-23.283-52.789-53.336c-0.098-26.846,21.484-52.427,52.553-52.523
	c29.767-0.091,53.059,22.195,53.315,53.091C346.095,657.617,320.538,680.391,292.761,679.758z"/>
<path fill="#6CB5BE" d="M205.907,604.589c-0.203,1.338-1.168,2.01-1.944,2.791c-4.946,4.976-9.913,9.93-14.872,14.893
	c-4.247,4.251-4.247,4.252-0.135,8.365c5.06,5.06,10.047,10.197,15.218,15.14c1.974,1.888,1.606,3.111-0.177,4.764
	c-1.59,1.474-2.775,2.608-4.83,0.512c-7.367-7.514-14.828-14.937-22.325-22.321c-1.718-1.692-1.542-3.029,0.047-4.599
	c7.586-7.493,15.136-15.023,22.721-22.517c0.75-0.741,1.545-1.986,2.809-0.978C203.815,601.753,205.319,602.847,205.907,604.589z"/>
<path fill="#6CB6BE" d="M418.068,626.659c-0.52,0.609-1.101,1.386-1.78,2.066c-7.228,7.241-14.533,14.407-21.672,21.735
	c-1.939,1.991-3.179,1.96-5.096-0.004c-1.89-1.937-2.01-3.26-0.018-5.183c5.444-5.255,10.637-10.773,16.132-15.974
	c2.322-2.198,2.657-3.602,0.118-5.966c-5.536-5.154-10.672-10.734-16.153-15.95c-2.242-2.134-1.758-3.443,0.135-5.473
	c2.154-2.31,3.383-1.279,5.053,0.413c7.088,7.182,14.262,14.28,21.384,21.428C416.939,624.52,417.955,625.155,418.068,626.659z"/>
<path fill="#566E70" d="M109.22,132.041c-0.008-8.823,0.087-17.647-0.082-26.467c-0.055-2.868,0.718-3.83,3.715-3.784
	c7.502,0.115,7.48-0.04,7.454,7.573c-0.026,7.563,0.001,15.126,0.005,22.689C116.614,132.049,112.917,132.045,109.22,132.041z"/>
<path fill="#FAF2D9" d="M93.424,95.678c3.355-1.081,6.712-1.063,10.07-0.015C100.137,95.668,96.781,95.673,93.424,95.678z"/>
<path fill="#FDBD52" d="M403.502,249.184c2.446-2.653,4.851-1.716,7.246,0.083c7.459,7.607,14.923,15.208,22.374,22.822
	c4.064,4.153,4.073,5.63,0.017,9.73c-7.1,7.179-14.223,14.336-21.337,21.501c-0.494,0.498-0.979,1.006-1.499,1.476
	c-1.425,1.287-2.967,2.094-4.959,1.278c-2.084-0.853-1.716-2.667-1.717-4.305c-0.013-15.566-0.002-31.133-0.01-46.699
	C403.617,253.107,403.543,251.145,403.502,249.184z"/>
<path fill="#FCFDFC" d="M323.654,106.008c-0.925,3.379-4.511,0.686-6.162,2.753c-2.138,2.677-3.926,0.847-5.945-0.586
	c-1.303-0.925-3.547,0.389-4.836-1.352c1.8-2.447,3.612-4.884,5.395-7.343c1.725-2.38,3.529-2.364,5.441-0.244
	C319.583,101.493,321.618,103.75,323.654,106.008z"/>
<path fill="#FDFDFB" d="M300.576,90.17c-0.302,3.142-3.323,5.694-6.415,5.419c-3.189-0.283-5.553-3.116-5.339-6.397
	c0.219-3.349,2.812-5.53,6.292-5.291C298.316,84.122,300.874,87.058,300.576,90.17z"/>
<path fill="#FCFCFC" d="M299.006,112.689c-2.018,0.719-4.631-0.28-6.09,2.2c-0.201,0.342-1.631,0.479-1.897,0.18
	c-1.903-2.136-4.699-1.604-6.982-2.535c1.739-1.974,3.461-3.963,5.222-5.917c2.249-2.494,4.246-2.161,6.033,0.572
	C296.502,109.04,297.766,110.857,299.006,112.689z"/>
<path fill="#FDC15D" d="M192.636,200.289c4.752-1.408,9.607-0.363,14.409-0.592c1.036-0.049,1.947,0.303,1.941,1.62
	c-0.009,1.706-1.301,1.507-2.364,1.528c-3.743,0.077-7.487,0.108-11.23,0.156C193.584,203,192.425,202.341,192.636,200.289z"/>
<path fill="#FDBF55" d="M210.903,196.896c-4.914,0-9.828,0.05-14.741-0.035c-1.226-0.021-3.163,0.737-3.304-1.45
	c-0.147-2.288,1.826-1.698,3.07-1.704c10.108-0.048,20.217-0.039,30.325,0c1.152,0.005,2.823-0.434,2.893,1.487
	c0.085,2.337-1.856,1.651-3.08,1.67C221.012,196.941,215.957,196.896,210.903,196.896z"/>
<path fill="#FDBF55" d="M210.931,187.696c5.169,0.002,10.338-0.025,15.506,0.023c1.147,0.011,2.772-0.409,2.713,1.613
	c-0.057,1.944-1.646,1.573-2.805,1.577c-10.198,0.033-20.396,0.035-30.593-0.002c-1.147-0.004-2.783,0.438-2.902-1.467
	c-0.147-2.356,1.777-1.697,2.995-1.714C200.873,187.651,205.902,187.694,210.931,187.696z"/>
<path fill="#568288" d="M262.597,592.669c10.23-8.836,21.918-12.671,35.106-11.303c11.918,1.236,21.87,6.611,29.843,15.623
	c2.172,2.456,2.602,4.002-1.287,5.036c-3.497,0.929-7.012,2.01-10.068,4.148c-0.652,0.456-1.875,0.995-2.326,0.705
	c-5.646-3.633-9.887,1.816-14.884,2.21c-1.667,0.131-2.596,1.254-1.903,2.958c0.626,1.539,1.792,2.213,3.293,0.928
	c1.189-1.018,2.503-1.8,3.499-0.097c1.116,1.909-0.275,3.326-1.797,4.075c-1.86,0.916-3.865,1.448-6.092,0.77
	c-2.118-0.645-3.833,0.281-3.663,2.644c0.162,2.24-1.031,3.54-2.695,4.865c2.559,1.026,4.69,0.371,6.458-0.597
	c3.739-2.049,7.972-0.94,11.886-2.31c2.323-0.813,2.214,2.023,1.327,3.451c-1.44,2.318-0.145,3.673,1.245,5.111
	c1.217,1.258,2.433,1.935,3.73-0.019c1.661-2.503,3.458-1.688,5.264-0.091c1.149,1.016,2.607,1.776,3.5,2.969
	c2.291,3.061,4.49,4.557,8.129,1.633c1.336-1.074,3.148,0.216,4.434,1.487c1.442,1.425,1.293,2.937,0.652,4.636
	c-6.356,16.853-18.248,27.177-36.003,30.626c-8.398,1.631-16.427,0.147-24.345-2.679c-2.657-0.948-3.903-2.302-3.041-5.272
	c0.985-3.395,0.905-6.937,0.93-10.446c0.035-4.921-2.458-7.912-7.391-8.385c-2.114-0.203-3.765-0.704-4.95-2.566
	c-1.162-1.825-3.318-1.933-5.108-2.672c-1.912-0.79-3.482-2.016-3.506-4.266c-0.024-2.348,2.133-2.185,3.609-2.801
	c1.551-0.647,3.075-1.366,4.588-2.099c1.846-0.894,2.516-2.235,1.257-4.063c-2.249-3.268-0.792-5.143,2.302-6.526
	c1.347-0.603,3.248-0.897,2.944-2.979c-0.217-1.482-1.484-2.363-2.786-2.935c-1.926-0.845-3.225,0.236-4.26,1.705
	c-0.968,1.374-1.789,3.234-3.891,2.026c-1.886-1.084-3.214-2.611-0.735-4.536c0.884-0.686,1.885-1.221,2.774-1.901
	c2.273-1.74,2.663-3.318-0.54-4.375c-1.209-0.399-2.734-0.58-2.196-2.355c0.477-1.574,1.912-2.119,3.399-1.713
	c1.947,0.532,3.774,0.599,5.775,0.161c2.666-0.584,3.514,1.792,4.633,3.497c2.68,4.086,4.573,4.579,8.091,2.001
	c2.408-1.765,2.592-5.254,0.522-8.171c-0.801-1.129-1.438-2.379-2.096-3.603c-0.871-1.62-2.283-3.132-3.971-2.231
	c-2.811,1.5-4.953,1.48-7.106-0.942C264.677,593.47,263.471,594.024,262.597,592.669z"/>
<path fill="#568288" d="M255.966,653.157c-2.676-2.375-3.656-5.291-4.983-7.974c-0.286-0.579-0.719-1.302-0.058-1.905
	c0.597-0.544,1.301-0.233,1.955-0.027C256.82,644.49,257.953,647.692,255.966,653.157z"/>
<path fill="#6EB6BD" d="M285.567,636.814c0.042-6.489,5.594-9.74,12.01-6.919c2.415,1.062,4.569,2.597,7.341,2.943
	c1.722,0.215,2.762,1.792,3.371,3.452c0.727,1.984,1.44,3.842,3.691,4.8c2.133,0.908,1.32,2.688,0.211,3.769
	c-2.008,1.957-2.486,4.235-2.389,6.867c0.079,2.143-0.547,4.202-1.664,6.002c-1.094,1.761-2.352,3.972-4.83,3.219
	c-2.321-0.705-4.116-2.451-4.255-5.181c-0.135-2.657,0.053-5.344-0.26-7.976c-0.298-2.511-1.194-4.72-4.594-3.892
	C289.761,644.977,285.536,641.463,285.567,636.814z"/>
</svg>
