<?xml version="1.0" encoding="utf-8"?>
<!-- Generator: Adobe Illustrator 17.0.0, SVG Export Plug-In . SVG Version: 6.00 Build 0)  -->
<!DOCTYPE svg PUBLIC "-//W3C//DTD SVG 1.1//EN" "http://www.w3.org/Graphics/SVG/1.1/DTD/svg11.dtd">
<svg version="1.1" xmlns="http://www.w3.org/2000/svg" xmlns:xlink="http://www.w3.org/1999/xlink" x="0px" y="0px" width="800px"
	 height="800px" viewBox="0 0 800 800" enable-background="new 0 0 800 800" xml:space="preserve">
<g id="Background">
</g>
<g id="Objects">
	<g>
		<g>
			<g>
				<g>
					<polygon fill="#FFFFFF" points="138.204,653.888 137.729,655.705 140.732,659.42 146.028,659.104 146.818,654.792 					"/>
					<path fill="#57493C" d="M138,654.667c0,0-6.667,10.666,5.333,13.333s47.334-0.217,3.334-12.108
						C146.667,655.892,142.667,662.001,138,654.667z"/>
				</g>
				<g>
					<polygon fill="#FFFFFF" points="199.204,646.888 198.729,648.705 201.732,652.42 208.621,650.648 206.724,647.328 					"/>
					<path fill="#57493C" d="M199,647.667c0,0-6.667,10.666,5.333,13.333s47.334-0.217,3.334-12.108
						C207.667,648.892,203.666,655.001,199,647.667z"/>
				</g>
				<path fill="#204E64" d="M90,548.667c0,0,6,30,45.333,41.333c0,0,5.333,44.667,2.667,64.667l9.061,1.332
					c0,0,5.605-42.665,2.272-65.332c0,0,31.441,4.666,39.441,2c0,0,12.975,23.559,10.125,55l8.767,1.225
					c0,0,6.166-31.058-5.167-58.392c0,0,45.5-14.5,49.753-28.5L90,548.667z"/>
			</g>
			<g>
				<path fill="#FFFFFF" d="M94.898,427.04c0,0-16.467,53.548-6.32,127.378c0,0,80.755,22.004,165.809,6.866
					c0,0,22.531-53.972,9.981-121.345C176.736,459.871,94.898,427.04,94.898,427.04z"/>
				<g>
					<path fill="#F7DEBF" d="M352.419,430.726c0.643-2.195,3.1-5.945,0.817-7.021c-1.603-0.757-2.799,0.392-3.897,1.708
						c0.338-1.743,0.349-3.555-0.738-4.525c-2.152-1.92-4.233,1.34-4.773,3.054c-0.669,2.123-2.832-1.986-3.243-2.399
						c-0.547-0.551-1.87-0.859-2.445-0.162c-1.053,1.273-1.048,2.931-1.162,4.522c-0.248,3.441-0.863,6.493-2.014,9.629
						c0.239-0.541,0.368-0.841,0.368-0.841l11.085,4.979c2.972-1.636,7.819-3.985,8.641-7.537
						C355.558,429.975,353.87,430.185,352.419,430.726z"/>
					<path fill="#FFFFFF" d="M334.963,435.53c-2.618,5.916-18.832,41.38-32.826,44.772c-15.272,3.702-44.493-30.316-44.493-30.316
						l-15.128,4.374c14.182,14.955,32.486,29.869,44.495,35.806c12.008,5.934,23.968,4.3,37.326-12.186
						c8.649-10.676,22.144-38.281,22.144-38.281l-0.065-0.029l-11.085-4.979C335.331,434.69,335.203,434.989,334.963,435.53z"/>
				</g>
				<g>
					<g>
						<path fill="#204E64" d="M94.651,426.589l-2.158,9.93c0,0,80.549,24.501,90.021,34.907c0,0,6.12-25.884,21.063-26.144
							C203.578,445.282,133.501,442.115,94.651,426.589z"/>
						<path fill="#204E64" d="M211.683,446.252c0,0,15.133,3.468,18.333,20.593c0,0,16.963-14.291,35.122-22.525
							c0,0,0.46-2.086-0.77-4.38C264.368,439.94,245.766,444.508,211.683,446.252z"/>
					</g>
					<path fill="#398294" d="M213.804,446.139c0,0-13.671-2.811-17.471,1.001c-3.799,3.812,0.664,11.581,7.267,13.206l-5.256,39.365
						c0,0,8.664,37.566,13.684,37.778c5.02,0.213,10.576-45.598,10.576-45.598l-12.514-31.918
						C210.09,459.974,222.243,453.568,213.804,446.139z"/>
				</g>
				<g>
					<path opacity="0.2" fill="#57493C" d="M198.553,514.589l0.517,0.504c-0.133-0.167-0.269-0.335-0.398-0.499
						C198.632,514.598,198.593,514.589,198.553,514.589z"/>
					<path opacity="0.2" fill="#57493C" d="M218.83,517.304c-2.164,3.836-8.664,2.35-12.211,3.298
						c-0.103,0.047-0.216,0.178-0.347,0.179c-0.068,0.01-0.129,0.22-0.192,0.22c-0.004,0-0.006,0-0.009,0
						c-0.037,0-0.077-0.241-0.114-0.249c-0.023-0.009-0.057-0.227-0.078-0.238c-0.761-0.165-1.475-0.472-2.149-0.876l1.421,1.386
						c0,0-28.904,20.641-52.333,17.528c-22.78-3.025-34.287-16.624-51.51-50.068l-0.484,0.101
						c18.062,35.567,29.565,49.857,52.994,52.968c23.428,3.112,52.333-17.528,52.333-17.528l-1.421-1.386
						c0.674,0.404,1.388,0.711,2.149,0.876c0.021,0.012,0.054,0.229,0.078,0.238c0.037,0.008,0.077,0.249,0.114,0.249
						c0.003,0,0.006,0,0.009,0c0.062,0,0.124-0.21,0.192-0.22c0.131-0.001,0.244-0.132,0.347-0.179
						c3.734-0.998,10.749,0.714,12.525-3.937C220.548,518.606,219.879,517.85,218.83,517.304z"/>
					<path opacity="0.2" fill="#57493C" d="M215.127,513.394c1.195,0.273,2.512,0.681,3.332,1.303
						c1.215-1.08,2.038-2.345,1.516-3.811c-0.227-0.639-0.55-1.097-0.935-1.431C218.612,511.042,216.757,512.348,215.127,513.394z"
						/>
					<path opacity="0.2" fill="#57493C" d="M211.512,506.421c-0.116-0.696-0.4-1.32-0.932-1.808c-0.03,0.68-0.145,1.375-0.283,2.027
						C210.681,506.591,211.09,506.512,211.512,506.421z"/>
					<path fill="#F7DEBF" d="M198.553,514.589c0.04,0,0.079,0.009,0.119,0.005c0.129,0.164,0.265,0.332,0.398,0.499l4.66,4.544
						c0.674,0.404,1.388,0.711,2.149,0.876c0.021,0.012,0.054,0.229,0.078,0.238c0.037,0.008,0.077,0.249,0.114,0.249
						c0.003,0,0.006,0,0.009,0c0.062,0,0.124-0.21,0.192-0.22c0.131-0.001,0.244-0.132,0.347-0.179
						c3.547-0.948,10.047,0.538,12.211-3.298c0.114-0.201,0.225-0.406,0.314-0.639c0.315-0.826-0.023-1.468-0.685-1.969
						c-0.82-0.622-2.137-1.029-3.332-1.303c1.63-1.046,3.485-2.352,3.913-3.939c0.133-0.496,0.131-1.018-0.065-1.569
						c-1.155-3.242-4.623-2.076-7.463-1.465c-0.422,0.091-0.83,0.17-1.215,0.22c0.138-0.652,0.253-1.348,0.283-2.027
						c0.056-1.275-0.202-2.492-1.267-3.243c-1.358-0.957-3.203-0.078-4.693,0.885c-0.555-2.882-2.352-5.751-5.527-3.323
						c-3.651,2.792-3.021,10.535-1.715,14.51L198.553,514.589z"/>
					<path fill="#FFFFFF" d="M152.819,538.551c23.428,3.112,52.333-17.528,52.333-17.528l-1.421-1.386l-4.66-4.544l-0.517-0.504
						l-1.176-1.148l-1.041-1.015c0,0-22.72,16.295-44.214,12.753c-21.494-3.541-39.294-42.287-39.294-42.287l-13.003,2.69
						c0.5,0.985,0.994,1.947,1.484,2.899C118.532,521.927,130.039,535.525,152.819,538.551z"/>
				</g>
			</g>
			<g>
				<path fill="#F7DEBF" d="M264.368,439.94c0,0,18.363-76.57-8.428-116.216C222.754,274.617,78.68,269.003,94.898,427.04
					C94.898,427.04,176.736,459.871,264.368,439.94z"/>
				<path fill="#57493C" d="M167.869,381.26c0.967-1.477,2.579-2.565,4.753-2.565c1.578,0,2.72,0.56,3.468,1.418
					c0.687-0.996,1.064-2.215,0.989-3.517c-0.178-3.108-2.841-5.483-5.949-5.306c-3.108,0.178-5.482,2.843-5.304,5.951
					C165.92,378.873,166.702,380.296,167.869,381.26z"/>
				<path fill="#57493C" d="M237.926,377.115c0.791-2.044,2.637-3.752,5.363-3.752c1.684,0,2.872,0.635,3.614,1.591
					c0.29-0.735,0.434-1.54,0.386-2.381c-0.178-3.108-2.844-5.483-5.95-5.305c-3.108,0.178-5.483,2.843-5.306,5.95
					C236.123,374.779,236.84,376.155,237.926,377.115z"/>
				<path fill="#E9BF9E" d="M207.015,379.103c0,0-8.788,20.845-0.723,25.634C214.36,409.524,221.518,402.883,207.015,379.103z"/>
				<g>
					<defs>
						<path id="XMLID_3_" d="M190.998,420.832c1.214,8.216,9.712,15.584,18.314,13.712c8.648-1.881,15.118-9.086,13.833-18.334
							c-0.106-0.763-0.276-1.52-0.502-2.262L190.998,420.832z"/>
					</defs>
					<use xlink:href="#XMLID_3_"  overflow="visible" fill="#E9BF9E"/>
					<clipPath id="XMLID_5_">
						<use xlink:href="#XMLID_3_"  overflow="visible"/>
					</clipPath>
					<path opacity="0.6" clip-path="url(#XMLID_5_)" fill="#E78469" d="M202.056,416.975c-7.665,0-14.466,4.906-15.081,12.969
						c-0.55,7.205,5.306,15.082,12.969,15.082c7.665,0,14.466-4.906,15.081-12.969C215.575,424.852,209.719,416.975,202.056,416.975
						z"/>
				</g>
				<path fill="#975157" d="M93.63,398.667l11.703,3.136c0,0-2.667-21.802,8.666-23.802s6,32,6,32l8.667,0.667
					c0,0,1.333-37.484,4.666-43.409c3.334-5.924,11.334-17.925,10.667-33.925s2.907-34.344,27.454-40.172
					C171.453,293.162,93.927,294,93.63,398.667z"/>
			</g>
		</g>
		<g>
			<g>
				<circle fill="#FFFFFF" cx="235.411" cy="160.643" r="27.588"/>
				<g>
					<path fill="#FFD214" d="M227.322,145.552c-19.054,9.604-11.669,32.296,4.08,34.247c2.343,0.291,3.585,4.848,6.781,7.253
						c4.295,3.232,7.018,2.962,10.631,1.141c3.614-1.821,5.261-3.386,5.217-8.762c-0.032-3.999-2.768-8.172-1.606-10.229
						C260.224,155.382,246.375,135.948,227.322,145.552z"/>
					<path fill="#FFB404" d="M245.935,167.15c0.795-2.384-0.723-8.456-3.929-5.122c-1.296,1.348-0.728,3.991,0.027,6.217
						c-0.919,0.042-1.971-0.276-2.916-0.762c-0.156-4.279-1.902-8.908-5.601-9.997c-1.401-0.412-2.099,1.192-2.013,2.328
						c0.209,2.752,1.813,4.943,3.676,6.879c0.568,0.591,1.288,1.188,2.083,1.713c-0.016,0.984-0.126,1.984-0.363,2.851
						c-0.434-0.48-0.877-0.952-1.332-1.415c-1.551-1.581-3.372-3.594-5.784-3.255c-1.699,0.238-1.869,2.27-1.395,3.549
						c1.2,3.232,6.23,7.71,9.049,4.277c0.422,0.529,0.835,1.059,1.24,1.577c4.48,5.741,8.128,12.361,11.01,19.029
						c0.194,0.452,0.881,0.165,0.701-0.29c-3.061-7.773-6.733-15.392-12.075-21.832c0.404-0.982,0.662-2.188,0.764-3.49
						c1.224,0.543,2.5,0.84,3.641,0.687c0.15,0.382,0.287,0.726,0.393,1.009c2.864,7.62,7.013,14.751,10.987,21.831
						c0.578,1.028,2.292,0.329,1.709-0.707c-2.631-4.676-5.238-9.357-7.609-14.173c-1.389-2.82-2.688-5.694-3.759-8.651
						C245.066,168.927,245.585,168.2,245.935,167.15z M232.297,172.912c-0.778-0.537-1.378-1.566-1.816-2.376
						c-1.04-1.92,0.68-2.207,2.118-1.121c1.303,0.984,2.474,2.192,3.568,3.465C235.397,173.917,234.166,174.201,232.297,172.912z
						 M233.894,162.03c-0.721-1.261-1.041-3.591,0.942-1.268c0.916,1.073,1.45,2.418,1.925,3.728
						c0.151,0.414,0.274,0.972,0.363,1.604C235.819,164.951,234.747,163.518,233.894,162.03z M244.431,165.362
						c-0.035,0.944-0.276,1.611-0.648,2.068c-0.233-0.812-0.424-1.633-0.538-2.473C242.906,162.464,244.522,162.983,244.431,165.362
						z"/>
					<path fill="#706C6E" d="M254.077,180.268c0,0-0.352,2.872-6.298,5.869c-5.946,2.997-8.465,1.571-8.465,1.571
						s-0.577,4.427,4.031,4.109c0,0-0.669,3.126,3.17,2.945c0,0,1.736,5.673,7.107,2.967c5.37-2.708,1.843-7.478,1.843-7.478
						c2.427-2.978-0.483-4.3-0.483-4.3C257.98,182.436,254.077,180.268,254.077,180.268z"/>
				</g>
			</g>
			<g>
				<circle fill="#FFFFFF" cx="183.782" cy="211.229" r="23.171"/>
				<g>
					<path fill="#FFD214" d="M171.45,202.012c-11.299,14.899,3.255,29.917,16.404,25.387c1.956-0.674,4.69,2.436,8.131,3.098
						c4.626,0.89,6.666-0.372,8.81-3.197c2.142-2.826,2.836-4.692,0.732-8.906c-1.565-3.137-5.327-5.368-5.206-7.434
						C201.138,197.076,182.749,187.112,171.45,202.012z"/>
					<path fill="#FFB404" d="M194.422,211.843c-0.292-2.182-3.826-6.377-5.065-2.518c-0.501,1.561,0.963,3.421,2.415,4.883
						c-0.708,0.386-1.658,0.542-2.589,0.523c-1.771-3.309-4.928-6.279-8.259-5.712c-1.262,0.215-1.193,1.747-0.688,2.607
						c1.225,2.087,3.332,3.194,5.543,4.001c0.675,0.247,1.471,0.439,2.3,0.546c0.367,0.781,0.664,1.61,0.812,2.384
						c-0.527-0.21-1.058-0.411-1.594-0.601c-1.83-0.646-4.039-1.53-5.807-0.333c-1.245,0.841-0.596,2.507,0.27,3.331
						c2.189,2.082,7.874,3.669,8.77-0.119c0.536,0.253,1.065,0.511,1.584,0.763c5.738,2.794,11.16,6.6,15.997,10.739
						c0.327,0.281,0.757-0.21,0.441-0.499c-5.404-4.94-11.23-9.523-17.915-12.535c-0.061-0.929-0.323-1.977-0.743-3.041
						c1.171-0.044,2.291-0.302,3.131-0.861c0.265,0.242,0.505,0.461,0.698,0.643c5.189,4.895,11.202,8.91,17.057,12.952
						c0.851,0.587,1.931-0.623,1.073-1.213c-3.872-2.668-7.729-5.35-11.449-8.226c-2.179-1.686-4.309-3.447-6.291-5.363
						C194.422,213.578,194.551,212.805,194.422,211.843z M185.906,221.632c-0.819-0.123-1.688-0.703-2.344-1.171
						c-1.559-1.111-0.315-1.998,1.235-1.698c1.404,0.273,2.792,0.773,4.143,1.354C188.733,221.229,187.873,221.928,185.906,221.632z
						 M182.971,212.452c-1.053-0.716-2.204-2.427,0.253-1.362c1.134,0.493,2.073,1.346,2.951,2.193
						c0.277,0.268,0.591,0.659,0.904,1.123C185.611,214.008,184.215,213.294,182.971,212.452z M192.549,211.016
						c0.336,0.757,0.402,1.375,0.287,1.878c-0.496-0.549-0.962-1.124-1.376-1.74C190.233,209.322,191.705,209.108,192.549,211.016z"
						/>
					<path fill="#706C6E" d="M205.885,219.033c0,0,0.829,2.397-2.698,7.047c-3.526,4.649-6.059,4.498-6.059,4.498
						s1.251,3.707,4.757,1.681c0,0,0.677,2.719,3.63,1.098c0,0,3.552,3.797,6.737-0.402c3.184-4.2-1.429-6.597-1.429-6.597
						c0.763-3.279-2.037-3.198-2.037-3.198C209.791,219.237,205.885,219.033,205.885,219.033z"/>
				</g>
			</g>
			<g>
				<circle fill="#FFFFFF" cx="164.977" cy="258.977" r="15.537"/>
				<g>
					<path fill="#FFD214" d="M157.65,256.76c-5.64,11.101,5.676,19.219,13.756,14.694c1.202-0.673,3.361,1.04,5.695,1.067
						c3.138,0.036,4.324-1.033,5.395-3.139c1.07-2.105,1.303-3.41-0.575-5.923c-1.398-1.87-4.126-2.886-4.292-4.255
						C176.52,250.01,163.29,245.659,157.65,256.76z"/>
					<path fill="#FFB404" d="M173.868,260.483c-0.45-1.396-3.263-3.726-3.618-1.05c-0.144,1.082,1.037,2.128,2.161,2.914
						c-0.418,0.337-1.023,0.551-1.635,0.65c-1.553-1.959-3.973-3.532-6.089-2.765c-0.801,0.291-0.575,1.286-0.143,1.79
						c1.05,1.223,2.562,1.699,4.107,1.965c0.471,0.082,1.016,0.113,1.572,0.086c0.333,0.468,0.626,0.977,0.814,1.466
						c-0.37-0.075-0.741-0.144-1.116-0.205c-1.275-0.207-2.828-0.524-3.845,0.469c-0.716,0.698-0.094,1.713,0.571,2.15
						c1.682,1.105,5.594,1.471,5.733-1.117c0.381,0.103,0.759,0.209,1.129,0.313c4.091,1.151,8.095,3.003,11.754,5.143
						c0.248,0.145,0.472-0.227,0.23-0.379c-4.126-2.597-8.487-4.911-13.224-6.093c-0.15-0.602-0.445-1.257-0.847-1.905
						c0.763-0.168,1.466-0.469,1.95-0.935c0.202,0.127,0.386,0.243,0.534,0.338c3.98,2.593,8.396,4.513,12.712,6.468
						c0.627,0.284,1.191-0.637,0.559-0.922c-2.852-1.29-5.698-2.59-8.476-4.035c-1.628-0.846-3.232-1.749-4.758-2.769
						C174.074,261.62,174.066,261.098,173.868,260.483z M169.447,267.906c-0.552,0.016-1.189-0.26-1.675-0.49
						c-1.153-0.544-0.444-1.272,0.608-1.258c0.953,0.012,1.921,0.176,2.876,0.396C171.251,267.307,170.771,267.867,169.447,267.906z
						 M166.436,262.238c-0.775-0.344-1.731-1.33,0.005-0.922c0.802,0.189,1.519,0.636,2.193,1.088
						c0.213,0.143,0.465,0.362,0.726,0.629C168.351,262.945,167.351,262.643,166.436,262.238z M172.542,260.162
						c0.31,0.456,0.427,0.853,0.411,1.197c-0.39-0.301-0.764-0.623-1.108-0.978C170.824,259.327,171.763,259.012,172.542,260.162z"
						/>
					<path fill="#706C6E" d="M182.231,263.837c0,0,0.827,1.473-0.933,4.938c-1.761,3.464-3.438,3.664-3.438,3.664
						s1.259,2.281,3.316,0.539c0,0,0.766,1.702,2.509,0.29c0,0,2.777,2.068,4.367-1.061c1.589-3.129-1.718-4.154-1.718-4.154
						c0.112-2.239-1.713-1.854-1.713-1.854C184.814,263.508,182.231,263.837,182.231,263.837z"/>
				</g>
			</g>
			<g>
				<circle fill="#FFFFFF" cx="305.673" cy="126" r="29.977"/>
				<g>
					<path fill="#FFD214" d="M302.169,106.876c-25.613,3.606-25.97,32.533-8.65,40.906c2.577,1.245,2.228,6.962,4.96,10.966
						c3.673,5.383,6.905,6.134,11.761,5.45c4.858-0.684,7.359-1.839,9.402-8.027c1.52-4.603,0.005-10.46,2.138-12.369
						C336.114,130.971,327.782,103.27,302.169,106.876z"/>
					<path fill="#FFB404" d="M315.127,138.919c1.841-2.427,2.462-9.99-2.516-7.411c-2.012,1.044-2.389,4.298-2.39,7.148
						c-1.071-0.311-2.156-1.085-3.052-2.011c1.487-4.973,1.285-10.966-2.538-13.656c-1.448-1.018-2.874,0.551-3.217,1.888
						c-0.832,3.241,0.157,6.383,1.541,9.33c0.423,0.9,1.016,1.863,1.724,2.778c-0.399,1.124-0.917,2.227-1.527,3.131
						c-0.311-0.719-0.636-1.435-0.978-2.144c-1.165-2.417-2.473-5.438-5.374-5.989c-2.041-0.387-3.028,1.879-2.982,3.532
						c0.119,4.177,4.15,11.276,8.722,8.433c0.279,0.771,0.547,1.54,0.81,2.294c2.908,8.335,4.518,17.355,5.23,26.133
						c0.047,0.593,0.948,0.533,0.919-0.059c-0.488-10.116-1.737-20.292-5.362-29.766c0.845-0.971,1.611-2.254,2.236-3.708
						c1.193,1.099,2.542,1.938,3.912,2.207c0.023,0.497,0.047,0.945,0.06,1.311c0.322,9.862,2.307,19.665,4.113,29.339
						c0.263,1.406,2.502,1.271,2.236-0.145c-1.2-6.393-2.37-12.783-3.217-19.234c-0.496-3.78-0.868-7.583-0.946-11.395
						C313.439,140.621,314.318,139.987,315.127,138.919z M297.227,140.222c-0.684-0.919-0.971-2.335-1.159-3.434
						c-0.447-2.609,1.639-2.269,2.867-0.462c1.113,1.636,1.986,3.479,2.747,5.367C300.396,142.583,298.871,142.432,297.227,140.222z
						 M303.298,128.353c-0.337-1.73,0.202-4.529,1.574-1.09c0.634,1.589,0.724,3.342,0.759,5.028
						c0.011,0.535-0.063,1.223-0.208,1.983C304.371,132.454,303.696,130.392,303.298,128.353z M314.098,136.28
						c-0.409,1.07-0.946,1.741-1.55,2.122c0.048-1.023,0.15-2.042,0.346-3.048C313.476,132.359,315.128,133.583,314.098,136.28z"/>
					<path fill="#706C6E" d="M319.368,157.148c0,0-1.524,3.159-9.517,4.285c-7.993,1.125-10.33-1.492-10.33-1.492
						s-2.386,4.856,3.03,6.286c0,0-1.985,3.33,2.491,4.617c0,0-0.215,7.189,7.003,6.173c7.22-1.017,5.028-7.867,5.028-7.867
						c3.946-2.475,1.119-5.125,1.119-5.125C323.003,161.156,319.368,157.148,319.368,157.148z"/>
				</g>
			</g>
			<g>
				<circle fill="#FFFFFF" cx="397.672" cy="126" r="36.904"/>
				<g>
					<path fill="#FFD214" d="M401.309,100.557c-31.521-4.988-42.381,29.01-24.969,45.139c2.591,2.399,0.116,9.018,1.894,14.728
						c2.391,7.676,5.933,9.729,11.909,10.674c5.979,0.946,9.346,0.486,13.989-6.077c3.454-4.882,3.78-12.338,6.986-13.821
						C432.659,141.236,432.827,105.546,401.309,100.557z"/>
					<path fill="#FFB404" d="M405.031,143.037c3.048-2.198,6.512-10.896-0.294-9.65c-2.751,0.505-4.368,4.209-5.399,7.571
						c-1.151-0.753-2.15-2.059-2.874-3.475c3.55-5.33,5.474-12.473,1.936-17.027c-1.342-1.724-3.589-0.388-4.479,1.066
						c-2.149,3.525-2.118,7.586-1.548,11.563c0.174,1.215,0.527,2.566,1.03,3.9c-0.876,1.181-1.886,2.297-2.932,3.143
						c-0.105-0.959-0.231-1.921-0.378-2.882c-0.502-3.272-0.956-7.309-4.178-9.005c-2.269-1.193-4.251,1.124-4.792,3.091
						c-1.37,4.971,0.827,14.801,7.246,13.098c0.051,1.009,0.089,2.013,0.128,2.997c0.423,10.883-0.933,22.105-3.261,32.718
						c-0.159,0.718,0.925,0.971,1.105,0.262c3.075-12.11,5.273-24.567,4.418-37.052c1.348-0.841,2.714-2.079,3.975-3.569
						c1.011,1.727,2.301,3.204,3.82,4.015c-0.151,0.594-0.286,1.131-0.403,1.568c-3.18,11.752-4.375,24.033-5.737,36.099
						c-0.198,1.753,2.493,2.402,2.691,0.637c0.892-7.975,1.817-15.938,3.145-23.854c0.78-4.637,1.712-9.259,2.998-13.785
						C402.424,144.437,403.691,144.006,405.031,143.037z M383.444,138.116c-0.475-1.331-0.305-3.105-0.128-4.47
						c0.415-3.24,2.753-2.085,3.55,0.489c0.721,2.333,1.087,4.823,1.303,7.323C386.329,142.045,384.586,141.315,383.444,138.116z
						 M394.889,126.303c0.227-2.162,1.872-5.27,2.25-0.717c0.174,2.104-0.353,4.203-0.92,6.206
						c-0.179,0.635-0.515,1.419-0.962,2.265C394.675,131.529,394.623,128.852,394.889,126.303z M404.77,139.553
						c-0.867,1.116-1.744,1.713-2.595,1.945c0.427-1.189,0.914-2.354,1.509-3.472C405.451,134.704,406.958,136.745,404.77,139.553z"
						/>
					<path fill="#706C6E" d="M403.456,166.075c0,0-2.939,3.178-12.775,1.621c-9.835-1.557-11.649-5.486-11.649-5.486
						s-4.567,4.868,1.306,8.509c0,0-3.544,3.21,1.272,6.345c0,0-2.849,8.404,6.036,9.811c8.885,1.406,8.77-7.467,8.77-7.467
						c5.549-1.495,3.169-5.642,3.169-5.642C406.297,172.115,403.456,166.075,403.456,166.075z"/>
				</g>
			</g>
			<g>
				<circle fill="#FFFFFF" cx="500.672" cy="156" r="43.036"/>
				<g>
					<path fill="#FFD214" d="M510.636,129.729c-34.029-15.01-56.395,20.062-41.578,43.423c2.204,3.475-2.557,10.196-2.255,17.16
						c0.407,9.36,3.787,12.729,10.24,15.574c6.456,2.847,10.386,3.331,17.573-2.68c5.347-4.473,7.936-12.777,11.989-13.493
						C533.846,184.903,544.664,144.739,510.636,129.729z"/>
					<path fill="#FFB404" d="M502.178,178.703c4.09-1.568,10.583-10.338,2.544-10.961c-3.251-0.251-6.177,3.441-8.339,6.922
						c-1.073-1.191-1.811-2.96-2.203-4.77c5.587-4.949,9.882-12.425,7.252-18.609c-1-2.342-3.928-1.507-5.363-0.134
						c-3.473,3.332-4.647,7.917-5.188,12.568c-0.166,1.42-0.172,3.047-0.003,4.701c-1.339,1.07-2.809,2.026-4.239,2.668
						c0.167-1.113,0.313-2.234,0.431-3.36c0.41-3.836,1.103-8.52-2.023-11.39c-2.201-2.021-5.125-0.001-6.322,2.055
						c-3.022,5.193-3.477,16.923,4.265,16.916c-0.243,1.153-0.5,2.296-0.749,3.417c-2.765,12.388-7.635,24.629-13.42,35.895
						c-0.393,0.761,0.753,1.37,1.167,0.624c7.071-12.729,13.259-26.111,16.014-40.434c1.77-0.546,3.678-1.533,5.542-2.837
						c0.626,2.247,1.64,4.295,3.108,5.663c-0.347,0.624-0.658,1.19-0.922,1.647c-7.082,12.295-12.088,25.776-17.217,38.966
						c-0.745,1.916,2.096,3.449,2.842,1.519c3.383-8.721,6.795-17.417,10.649-25.941c2.261-4.992,4.69-9.923,7.485-14.639
						C498.822,179.503,500.38,179.395,502.178,178.703z M479.32,166.728c-0.141-1.642,0.581-3.589,1.186-5.075
						c1.431-3.527,3.723-1.529,3.853,1.609c0.119,2.842-0.211,5.757-0.712,8.639C481.401,172.014,479.654,170.673,479.32,166.728z
						 M495.733,156.826c0.901-2.367,3.681-5.38,2.749-0.137c-0.43,2.422-1.648,4.631-2.885,6.719
						c-0.391,0.663-1.004,1.446-1.758,2.266C493.935,162.65,494.674,159.619,495.733,156.826z M502.921,174.699
						c-1.312,0.999-2.475,1.411-3.505,1.419c0.835-1.212,1.733-2.38,2.736-3.462C505.132,169.439,506.224,172.186,502.921,174.699z"
						/>
					<path fill="#706C6E" d="M493.54,204.192c0,0-4.258,2.705-14.877-1.979c-10.617-4.684-11.49-9.652-11.49-9.652
						s-6.597,4.124-1.064,9.977c0,0-4.949,2.561-0.455,7.528c0,0-5.715,8.621,3.878,12.852c9.594,4.23,12.105-5.801,12.105-5.801
						c6.699-0.031,5.251-5.413,5.251-5.413C494.942,211.845,493.54,204.192,493.54,204.192z"/>
				</g>
			</g>
			<g>
				<circle fill="#FFFFFF" cx="581.673" cy="228" r="46.215"/>
				<g>
					<path fill="#FFD214" d="M597.693,199.102c-32.886-17.375-57.668,16.032-44.539,40.38c1.953,3.623-3.27,9.99-3.459,16.958
						c-0.255,9.366,2.879,12.964,9.113,16.257c6.241,3.295,10.127,4.056,17.72-1.433c5.65-4.084,8.817-12.185,12.912-12.613
						C616.951,255.776,630.578,216.476,597.693,199.102z"/>
					<path fill="#FFB404" d="M585.801,247.356c4.19-1.275,11.286-9.565,3.31-10.754c-3.225-0.479-6.403,2.997-8.806,6.317
						c-0.987-1.264-1.598-3.08-1.863-4.914c5.923-4.542,10.735-11.697,8.548-18.051c-0.832-2.406-3.81-1.78-5.34-0.512
						c-3.699,3.079-5.193,7.57-6.062,12.171c-0.266,1.405-0.386,3.027-0.334,4.689c-1.41,0.973-2.943,1.824-4.416,2.362
						c0.245-1.099,0.469-2.206,0.668-3.322c0.678-3.798,1.699-8.42-1.216-11.504c-2.053-2.171-5.112-0.362-6.451,1.604
						c-3.382,4.966-4.662,16.636,3.06,17.174c-0.323,1.133-0.659,2.255-0.988,3.355c-3.631,12.162-9.354,24.03-15.921,34.858
						c-0.444,0.731,0.655,1.419,1.122,0.705c7.951-12.199,15.068-25.111,18.828-39.203c1.803-0.42,3.775-1.27,5.727-2.439
						c0.467,2.286,1.332,4.4,2.701,5.868c-0.39,0.597-0.74,1.141-1.035,1.577c-7.933,11.765-13.877,24.86-19.924,37.655
						c-0.879,1.859,1.847,3.589,2.727,1.715c3.989-8.46,8.008-16.894,12.454-25.125c2.607-4.819,5.378-9.568,8.497-14.075
						C582.397,247.919,583.959,247.92,585.801,247.356z M563.846,233.798c-0.024-1.647,0.832-3.54,1.541-4.978
						c1.677-3.417,3.822-1.263,3.73,1.876c-0.081,2.844-0.617,5.729-1.319,8.567C565.547,239.219,563.9,237.757,563.846,233.798z
						 M580.917,225.079c1.065-2.298,4.051-5.107,2.752,0.057c-0.6,2.386-1.973,4.503-3.354,6.499
						c-0.435,0.633-1.102,1.372-1.912,2.136C578.713,230.762,579.663,227.791,580.917,225.079z M586.824,243.415
						c-1.379,0.903-2.568,1.232-3.595,1.167c0.917-1.15,1.896-2.251,2.972-3.26C589.401,238.324,590.296,241.142,586.824,243.415z"
						/>
					<path fill="#706C6E" d="M575.387,272.172c0,0-4.438,2.398-14.7-3.024c-10.261-5.421-10.781-10.439-10.781-10.439
						s-6.871,3.649-1.767,9.877c0,0-5.117,2.206-0.984,7.478c0,0-6.31,8.196,2.96,13.093c9.272,4.897,12.486-4.932,12.486-4.932
						c6.684,0.441,5.619-5.028,5.619-5.028C576.245,279.905,575.387,272.172,575.387,272.172z"/>
				</g>
			</g>
		</g>
		<g>
			<g>
				<g>
					<ellipse fill="#FFFFFF" cx="581.667" cy="353" rx="79.969" ry="49.754"/>
					<g>
						<defs>
							<path id="XMLID_1_" d="M661.223,368.77c0.364-4.778-3.141-9.945-7.979-10.842c0.159-0.589,0.285-1.198,0.335-1.848
								c0.389-5.092-3.75-10.658-9.165-10.658c-1.062,0-2.098,0.138-3.084,0.395c0.018-0.141,0.051-0.273,0.061-0.418
								c0.381-4.996-3.679-10.456-8.991-10.456c-1.4,0-2.757,0.242-4.007,0.693c-1.062-4.231-4.737-7.983-9.279-7.983
								c-3.289,0-6.354,1.231-8.44,3.426c-0.373-1.589-1.131-3.085-2.219-4.32c-0.648-0.565-1.295-1.129-1.941-1.694
								c-1.449-0.955-3.038-1.502-4.768-1.642c-0.857,0.047-1.715,0.094-2.572,0.14c-1.791,0.347-3.373,1.119-4.749,2.316
								c-0.124,0.109-0.236,0.23-0.354,0.345c-0.636-0.926-1.437-1.741-2.39-2.371c-0.083-0.055-0.166-0.11-0.249-0.165
								c-2.703-1.788-6.207-2.036-9.125-0.612c-1.36,0.664-2.506,1.663-3.377,2.86c-1.163-2.483-3.542-4.307-7.249-4.307
								c-3.943,0-6.708,2.078-8.191,4.822c-1.559-1.435-3.542-2.361-5.743-2.361c-4.848,0-9.196,2.784-10.37,7.451
								c-1.165-0.702-2.615-1.12-4.37-1.12c-5.156,0-8.27,3.599-9.098,7.562c-1.146-0.641-2.548-1.021-4.228-1.021
								c-7.507,0-10.751,7.519-8.976,12.858c-0.107-0.005-0.214-0.023-0.319-0.023c-0.825,0.045-1.651,0.09-2.477,0.135
								c-1.723,0.334-3.245,1.077-4.569,2.229c-1.86,1.639-3.021,3.985-3.21,6.455c-0.161,2.114,0.415,4.237,1.577,5.997
								c-11.932,30.394-1.34,79.729-1.34,79.729c72.193,18.595,146.056-0.218,146.056-0.218c4.537-31.786,4.215-53.153,0.762-68.076
								C659.43,374.416,660.981,371.93,661.223,368.77z"/>
						</defs>
						<use xlink:href="#XMLID_1_"  overflow="visible" fill="#E78469"/>
						<clipPath id="XMLID_6_">
							<use xlink:href="#XMLID_1_"  overflow="visible"/>
						</clipPath>
						<path opacity="0.7" clip-path="url(#XMLID_6_)" fill="#975157" d="M671.814,353.469c-13.305,4.794-27.245,4.52-41.175,5.504
							c-15.378,1.085-30.338,2.185-45.794,1.654c-14.994-0.514-29.922-1.661-44.931-1.712c-0.777-0.002-1.556-0.021-2.333-0.03
							c-0.11-0.055-0.209-0.12-0.325-0.169c-6.271-2.678-19.909,0.261-25.434-5.324c-0.012-0.66,0.021-1.325,0.111-1.989
							c0.147-1.072-1.273-1.266-1.752-0.477c-0.143-0.341-0.272-0.696-0.376-1.077c-0.166-0.609-1.068-0.974-1.461-0.341
							c-1.174-0.792-3.212-0.018-3.527,1.661c-0.13,0.694-0.21,1.394-0.256,2.096c-1.062-0.654-2.821,0.232-2.509,1.703
							c0.511,2.402,1.472,4.482,2.72,6.377c-0.172,0.529-0.208,1.147-0.063,1.875c0.534,2.691,2.771,4.443,5.451,5.624
							c4.312,4.946,10.643,8.003,17.385,6.742c1.227-0.229,1.938-0.95,2.21-1.818c0.315-0.454,0.55-0.954,0.678-1.48
							c3.382,0.173,6.771,0.242,10.169,0.285c15.687,0.199,31.302,1.642,46.974,2.229c15.937,0.597,31.467-0.769,47.328-1.779
							c14.488-0.922,29.8-0.174,43.281-6.494C686.848,362.469,680.42,350.369,671.814,353.469z"/>
					</g>
				</g>
				<g>
					<path fill="#F7DEBF" d="M664.09,447.561c0.032-0.226,0.062-0.445,0.093-0.67c5.666-40.085,4.298-66.071-1.233-82.586
						c-53.289,0.301-106.143-0.713-159.596-3.04c-11.013,31.77-1.754,80.542-0.658,86.022c0.066,0.333,0.104,0.514,0.104,0.514
						C582.523,468.336,664.09,447.561,664.09,447.561z"/>
					<path fill="#626953" d="M662.833,363.306c0,0,11.798,32.997,3.982,59.679c0,0-3.147-20.65-16.481-19.984
						c-13.334,0.666-10,28-10,28L627,428.333c0,0,4.667-30.667,0.667-40s-26.667-15.747-30-24.54L662.833,363.306z"/>
				</g>
				<g>
					<defs>
						<path id="XMLID_2_" d="M658.862,364.351c15.98,7.574,28.636,6,40.858,2.227c24.328-7.51,63.822-39.24,76.498-85.244
							c2.717-9.867,0.471-20.076-4.544-29.914C732.947,288.337,695.582,325.732,658.862,364.351z"/>
					</defs>
					<use xlink:href="#XMLID_2_"  overflow="visible" fill="#626953"/>
					<clipPath id="XMLID_7_">
						<use xlink:href="#XMLID_2_"  overflow="visible"/>
					</clipPath>
					<path clip-path="url(#XMLID_7_)" fill="#F7DEBF" d="M698.31,319.376c8.604,0.753,41.565-10.842,54.755-29.97
						c13.19-19.128,36.707-6.022,36.707-6.022l-17.181-52.003L698.31,319.376"/>
				</g>
			</g>
			<g>
				<g>
					<path fill="#57493C" d="M520.729,385.367c1.979,0.276,3.49,1.67,4.369,3.418c0.187-0.492,0.329-1.01,0.406-1.553
						c0.541-3.88-2.166-7.469-6.047-8.011c-3.882-0.542-7.466,2.168-8.009,6.049c-0.226,1.625,0.121,3.196,0.884,4.516
						C513.59,386.208,517.138,384.866,520.729,385.367z"/>
					<path fill="#57493C" d="M565.986,391.686c-1.978-0.276-3.813,0.652-5.137,2.09c-0.046-0.523-0.042-1.062,0.034-1.604
						c0.543-3.881,4.128-6.589,8.01-6.047c3.881,0.541,6.586,4.129,6.045,8.01c-0.228,1.625-0.992,3.042-2.087,4.101
						C572.622,394.451,569.578,392.188,565.986,391.686z"/>
				</g>
				<path fill="#E9BF9E" d="M547.04,437.065c-3.387,2.052-7.709,0.985-10.706-1.449c0.149,0.506,0.342,1.011,0.595,1.515
					c2.034,4.021,7.7,6.33,11.785,3.856c3.923-2.372,5.951-6.896,4.104-11.232C552.101,432.742,549.925,435.32,547.04,437.065z"/>
				<g opacity="0.2">
					<path fill="#E78469" d="M568.912,397.838c-5.297-0.988-10.465,0.645-11.66,4.686c-1.066,3.611,2.23,8.392,7.529,9.377
						c5.298,0.988,10.466-0.642,11.66-4.682C577.506,403.606,574.209,398.826,568.912,397.838z"/>
					<path fill="#E78469" d="M522.447,391.695c-5.015-0.936-9.907,0.608-11.037,4.435c-1.009,3.417,2.111,7.942,7.124,8.878
						c5.016,0.933,9.909-0.611,11.038-4.437C530.582,397.154,527.461,392.629,522.447,391.695z"/>
				</g>
				<path fill="#E9BF9E" d="M540.333,404.312c0,0-16,11.354-8,16.688S541.666,411.625,540.333,404.312z"/>
			</g>
			<g>
				<polygon fill="#FFFFFF" points="481.385,306.756 502.451,325.23 476.615,314.388 				"/>
				<polygon fill="#FFFFFF" points="470.439,338.19 498.442,339.149 471.58,347.117 				"/>
				<polygon fill="#FFFFFF" points="665.654,294.197 649,309.666 658.346,288.946 				"/>
				<polygon fill="#FFFFFF" points="619.46,275.825 609.918,296.455 610.706,273.739 				"/>
				<polygon fill="#FFFFFF" points="523.014,284.697 529.919,306.353 515.15,289.075 				"/>
				<polygon fill="#FFFFFF" points="688.075,307.565 655.667,319.333 683.925,299.579 				"/>
			</g>
			<g>
				<g>
					<path fill="#F7DEBF" d="M486.04,361.389c-1.02-2.822-3.002-1.664-4.769-0.593c-0.617-2.002-1.82-4.506-3.923-2.685
						c-0.512,0.443-1.356,3.282-1.434,3.157c-1.2-1.937-1.518-3.951-3.31-5.533c-0.507-0.449-1.168-0.472-1.605,0.1
						c-1.149,1.509-2.254,6.253-0.039,7.389c-1.509-0.774-2.797-1.598-4.386-0.518c-2.954,2.013,3.601,7.503,4.15,9.129
						c0.119,0.357,0.389,0.458,0.657,0.41c0.016,0.023,0.027,0.05,0.046,0.071c0.744,0.829,1.527,1.459,2.372,1.929l9.947-3.164
						C484.501,368.193,486.991,364.026,486.04,361.389z"/>
					<path fill="#FFFFFF" d="M507.999,463c-17.333-30.666-24-92-24-92l-0.251,0.08l-9.947,3.164l-1.387,0.441
						c0,0,4.247,33.087,6.251,43.665c5.334,28.154,24.269,59.871,28.667,69.315c0.416,0.894,1.701-0.821,1.701-0.821L507.999,463z"
						/>
				</g>
				<path fill="#FFFFFF" d="M664.183,446.892c-0.031,0.225-0.06,0.444-0.093,0.67c0,0-81.566,20.774-161.29,0.24
					c0,0-0.038-0.181-0.104-0.514c-2.088,7.651-19.35,74.881,6.17,118.629l74.434,24.833l74.822-24.833
					C684.171,521.261,665.646,452.14,664.183,446.892z"/>
				<g>
					<g>
						<g>
							<path fill="#E2E2E2" d="M665.718,450.648l1.372,9.42c0,0-78.898,17.325-88.701,26.389c0,0-8.87-29.175-23.172-30.446
								C555.217,456.011,627.403,462.468,665.718,450.648z"/>
							<path fill="#E2E2E2" d="M552.197,460.943c0,0-14.743,2.195-19.006,17.965c0,0-15.255-14.513-32.081-23.452
								c0,0-0.296-1.979,1.044-4.036C502.154,451.42,519.661,456.966,552.197,460.943z"/>
						</g>
						<g>
							<path fill="#FFFFFF" d="M664.09,446.561l2.999,10.305c0,0-78.899,16.527-88.702,25.591c0,0-4.055-24.588-18.356-25.859
								C560.03,456.598,625.775,458.381,664.09,446.561z"/>
							<path fill="#FFFFFF" d="M552.196,456.942c0,0-14.744,2.196-19.007,17.966c0,0-15.255-14.513-32.081-23.452
								c0,0-0.296-1.979,1.045-4.036C502.153,447.42,519.659,452.966,552.196,456.942z"/>
						</g>
					</g>
					<path fill="#57493C" d="M547.263,457.223c0,0,12.695-3.099,16.381,0.337c3.684,3.435-0.225,10.857-6.347,12.604l6.265,36.647
						c0,0-6.817,35.442-11.508,35.814c-4.689,0.371-11.455-42.298-11.455-42.298l10.614-30.289
						C551.213,470.039,539.625,464.462,547.263,457.223z"/>
				</g>
				<g>
					<path fill="#F7DEBF" d="M711.89,389.365c-1.271-1.406-2.318-1.587-3.62-1.42c1.426-1.934,3.38-4.42,2.05-5.917
						c-1.646-1.853-4.119-0.234-6.151,0.948c0.461-2.616,1.639-7.012-1.338-7.04c-2.944-0.028-4.499,3.15-5.45,5.91
						c-0.883-1.756-1.876-3.986-4.007-2.108c-0.887,0.781-0.744,2.067-0.613,3.098c0.326,2.568,0.969,4.995,1.213,7.5
						c0.017-0.034,0.027-0.056,0.027-0.056l9.708,7.316c0,0-0.351,0.698-0.957,1.9c2.882-1.138,5.976-4.589,8.033-6.266
						C711.753,392.44,713.002,390.595,711.89,389.365z"/>
					<path fill="#FFFFFF" d="M694,390.278c0,0-0.011,0.022-0.027,0.056c-0.914,1.902-27.054,56.015-53.101,78.796l-8.875,22.155
						c0,0,0.643,2.044,1.333,1.338c7.279-7.453,35.651-31.104,50.014-55.901c4.574-7.898,16.027-30.523,19.407-37.227
						c0.606-1.203,0.957-1.9,0.957-1.9L694,390.278z"/>
				</g>
			</g>
			<g>
				<path fill="#B56843" d="M659.879,564.448c-15.839,20.714-41.216,27.273-41.216,27.273l-7.606,76.258l-8.221,0.38l-3.428-74.143
					c-9.616,2.219-37.718-0.208-37.718-0.208l-3.639,67.99l-8.01,0.007l-7.397-69.854c-17.756-5.917-33.781-26.234-33.781-26.234
					s12.65,9.75,74.054,9.75C644.32,575.667,659.879,564.448,659.879,564.448z"/>
				<path fill="#57493C" d="M550.971,661c0,0-16,3.059-15.529,9.177c0.471,6.117,23.059,0.117,23.059,0.117L558.154,661H550.971z"/>
				<path fill="#57493C" d="M603.17,667c0,0-17.701,3.384-17.181,10.152c0.521,6.768,25.511,0.13,25.511,0.13L611.117,667H603.17z"
					/>
			</g>
		</g>
	</g>
</g>
</svg>
