<?xml version="1.0" encoding="utf-8"?>
<!-- Generator: Adobe Illustrator 21.1.0, SVG Export Plug-In . SVG Version: 6.00 Build 0)  -->
<svg version="1.1" id="Calque_1" xmlns="http://www.w3.org/2000/svg" xmlns:xlink="http://www.w3.org/1999/xlink" x="0px" y="0px"
	 viewBox="0 0 90 90.2" style="enable-background:new 0 0 90 90.2;" xml:space="preserve">
<style type="text/css">
	.st0{fill:#09C9A9;}
	.st1{fill:#FFFFFF;}
</style>
<path class="st0" d="M83.1,34.7c-3.4,0-6.2,2.4-6.8,5.6h-12c-1.9-7.6-8.1-13.5-15.9-14.8l2.5-11.7c0.1,0,0.2,0,0.3,0
	c3.8,0,6.9-3.1,6.9-6.9S55,0,51.2,0s-6.9,3.1-6.9,6.9c0,2.8,1.6,5.1,4,6.3l-2.6,12c-0.2,0-0.4,0-0.6,0c-7.2,0-13.5,3.8-17.1,9.6
	L13.7,29c0.1-0.4,0.1-0.8,0.1-1.2c0-3.8-3.1-6.9-6.9-6.9S0,24,0,27.8s3.1,6.9,6.9,6.9c2.4,0,4.6-1.3,5.8-3.2l14,5.7
	c-1.2,2.4-1.8,5.1-1.8,7.9c0,5,1.8,9.5,4.8,13L17.4,76.8c-0.7-0.3-1.5-0.4-2.3-0.4c-3.8,0-6.9,3.1-6.9,6.9s3.1,6.9,6.9,6.9
	s6.9-3.1,6.9-6.9c0-2-0.9-3.8-2.2-5.1l12-18.1c3.5,3.1,8.1,5,13.2,5c4.8,0,9.1-1.7,12.5-4.4l11.9,14.2c-0.9,1.2-1.5,2.6-1.5,4.3
	c0,3.8,3.1,6.9,6.9,6.9s6.9-3.1,6.9-6.9s-3.1-6.9-6.9-6.9c-1.2,0-2.3,0.3-3.3,0.9l-12-14.3c3.3-3.7,5.4-8.5,5.4-13.8
	c0-0.7,0-1.4-0.1-2.1h11.5c0.6,3.2,3.4,5.6,6.8,5.6c3.8,0,6.9-3.1,6.9-6.9S87,34.7,83.1,34.7z"/>
<g>
	<path class="st1" d="M44.9,43.6c3.4,0,6.4-3.1,6.4-6.6c0-3.4-2.9-6.2-6.4-6.2s-6.4,2.8-6.4,6.2C38.5,40.5,41.5,43.6,44.9,43.6z
		 M44.9,32.6c2.5,0,4.6,1.9,4.6,4.4c0,2.5-2.2,4.8-4.6,4.8c-2.4,0-4.6-2.3-4.6-4.8C40.3,34.6,42.4,32.6,44.9,32.6z"/>
	<path class="st1" d="M50.9,43.7l-0.6-0.3l-0.5,0.4c-1.4,1.2-3.2,1.9-5,1.9c-1.8,0-3.5-0.7-5-1.9l-0.5-0.4l-0.6,0.3
		c-3.3,1.8-5.4,5.5-5.2,9.6c0,0.3,0.4,4.1,0.4,4.1h21.5c0,0,0.4-3.8,0.4-4.1C56.3,49.3,54.2,45.5,50.9,43.7z M54,55.6H35.8
		c0,0-0.2-2.1-0.2-2.3c-0.1-3.1,1.3-6,3.7-7.6c1.7,1.3,3.6,1.9,5.7,1.9s4-0.7,5.7-1.9c2.4,1.5,3.9,4.5,3.7,7.6
		C54.3,53.5,54,55.6,54,55.6z"/>
</g>
</svg>
