<?xml version="1.0" encoding="utf-8"?>
<!-- Generator: Adobe Illustrator 21.1.0, SVG Export Plug-In . SVG Version: 6.00 Build 0)  -->
<svg version="1.1" id="Calque_1" xmlns="http://www.w3.org/2000/svg" xmlns:xlink="http://www.w3.org/1999/xlink" x="0px" y="0px"
	 viewBox="0 0 225.5 233.6" style="enable-background:new 0 0 225.5 233.6;" xml:space="preserve">
<style type="text/css">
	.st0{fill:#BDCBD1;}
</style>
<path class="st0" d="M72.2,82.5c-0.3,0-0.7-0.2-0.9-0.5c-0.3-0.5-0.1-1.1,0.4-1.4l71.8-40.8c0.5-0.3,1.1-0.1,1.4,0.4
	c0.3,0.5,0.1,1.1-0.4,1.4L72.7,82.4C72.6,82.4,72.4,82.5,72.2,82.5z"/>
<path class="st0" d="M146.6,184.2c-0.2,0-0.3,0-0.5-0.1l-72.4-38.9c-0.5-0.3-0.7-0.9-0.4-1.4c0.3-0.5,0.9-0.7,1.4-0.4l72.4,38.9
	c0.5,0.3,0.7,0.9,0.4,1.4C147.3,184,147,184.2,146.6,184.2z"/>
<path class="st0" d="M187.9,151.6c-0.6,0-1-0.4-1-1V78.7c0-0.6,0.4-1,1-1s1,0.4,1,1v71.9C188.9,151.2,188.5,151.6,187.9,151.6z"/>
<path class="st0" d="M37.6,150.9C16.9,150.9,0,134,0,113.3s16.9-37.6,37.6-37.6c20.7,0,37.6,16.9,37.6,37.6S58.3,150.9,37.6,150.9z
	 M37.6,77.7C18,77.7,2,93.7,2,113.3c0,19.6,16,35.6,35.6,35.6s35.6-16,35.6-35.6C73.2,93.7,57.2,77.7,37.6,77.7z"/>
<path class="st0" d="M187.9,75.2c-20.7,0-37.6-16.9-37.6-37.6S167.2,0,187.9,0c20.7,0,37.6,16.9,37.6,37.6S208.6,75.2,187.9,75.2z
	 M187.9,2c-19.6,0-35.6,16-35.6,35.6s16,35.6,35.6,35.6s35.6-16,35.6-35.6S207.5,2,187.9,2z"/>
<path class="st0" d="M187.9,233.6c-20.7,0-37.6-16.9-37.6-37.6c0-20.7,16.9-37.6,37.6-37.6c20.7,0,37.6,16.9,37.6,37.6
	C225.5,216.7,208.6,233.6,187.9,233.6z M187.9,160.4c-19.6,0-35.6,16-35.6,35.6s16,35.6,35.6,35.6s35.6-16,35.6-35.6
	S207.5,160.4,187.9,160.4z"/>
<path class="st0" d="M187.9,36.9c5.1,0,9.5-4.6,9.5-9.9c0-5.1-4.3-9.2-9.5-9.2s-9.5,4.1-9.5,9.2C178.4,32.3,182.8,36.9,187.9,36.9z
	 M187.9,20.6c3.7,0,6.8,2.9,6.8,6.5c0,3.7-3.3,7.1-6.8,7.1c-3.6,0-6.8-3.4-6.8-7.1C181.1,23.5,184.2,20.6,187.9,20.6z"/>
<path class="st0" d="M196.8,37l-0.8-0.4l-0.7,0.6c-2.1,1.8-4.7,2.8-7.4,2.8s-5.2-1-7.4-2.8l-0.7-0.6L179,37c-5,2.6-8,8.2-7.7,14.2
	c0,0.4,0.7,6.1,0.7,6.1h31.9c0,0,0.6-5.6,0.6-6.1C204.8,45.2,201.8,39.7,196.8,37z M201.5,54.6h-27.1c0,0-0.3-3.1-0.4-3.5
	c-0.2-4.6,1.9-9,5.5-11.3c2.5,1.9,5.4,2.9,8.4,2.9s5.9-1,8.4-2.9c3.6,2.3,5.7,6.6,5.5,11.3C201.8,51.5,201.5,54.6,201.5,54.6z"/>
<path class="st0" d="M187.9,195.3c5.1,0,9.5-4.6,9.5-9.9c0-5.1-4.3-9.2-9.5-9.2s-9.5,4.1-9.5,9.2
	C178.4,190.7,182.8,195.3,187.9,195.3z M187.9,179c3.7,0,6.8,2.9,6.8,6.5c0,3.7-3.3,7.1-6.8,7.1c-3.6,0-6.8-3.4-6.8-7.1
	C181.1,181.9,184.2,179,187.9,179z"/>
<path class="st0" d="M196.8,195.4L196,195l-0.7,0.6c-2.1,1.8-4.7,2.8-7.4,2.8s-5.2-1-7.4-2.8l-0.7-0.6l-0.8,0.4
	c-5,2.6-8,8.2-7.7,14.2c0,0.4,0.7,6.1,0.7,6.1h31.9c0,0,0.6-5.6,0.6-6.1C204.8,203.6,201.8,198.1,196.8,195.4z M201.5,213h-27.1
	c0,0-0.3-3.1-0.4-3.5c-0.2-4.6,1.9-9,5.5-11.3c2.5,1.9,5.4,2.9,8.4,2.9s5.9-1,8.4-2.9c3.6,2.3,5.7,6.6,5.5,11.3
	C201.8,209.9,201.5,213,201.5,213z"/>
<path class="st0" d="M37.6,112.6c5.1,0,9.5-4.6,9.5-9.9c0-5.1-4.3-9.2-9.5-9.2s-9.5,4.1-9.5,9.2C28.1,108,32.5,112.6,37.6,112.6z
	 M37.6,96.3c3.7,0,6.8,2.9,6.8,6.5c0,3.7-3.3,7.1-6.8,7.1c-3.6,0-6.8-3.4-6.8-7.1C30.8,99.2,33.9,96.3,37.6,96.3z"/>
<path class="st0" d="M46.5,112.7l-0.8-0.4l-0.7,0.6c-2.1,1.8-4.7,2.8-7.4,2.8c-2.6,0-5.2-1-7.4-2.8l-0.7-0.6l-0.8,0.4
	c-5,2.6-8,8.2-7.7,14.2c0,0.4,0.7,6.1,0.7,6.1h31.9c0,0,0.6-5.6,0.6-6.1C54.5,120.9,51.5,115.4,46.5,112.7z M51.2,130.3H24.1
	c0,0-0.3-3.1-0.4-3.5c-0.2-4.6,1.9-9,5.5-11.3c2.5,1.9,5.4,2.9,8.4,2.9c3,0,5.9-1,8.4-2.9c3.6,2.3,5.7,6.6,5.5,11.3
	C51.5,127.2,51.2,130.3,51.2,130.3z"/>
</svg>
