<?xml version="1.0" encoding="utf-8"?>
<!-- Generator: Adobe Illustrator 17.0.0, SVG Export Plug-In . SVG Version: 6.00 Build 0)  -->
<!DOCTYPE svg PUBLIC "-//W3C//DTD SVG 1.1//EN" "http://www.w3.org/Graphics/SVG/1.1/DTD/svg11.dtd">
<svg version="1.1" id="Calque_1" xmlns="http://www.w3.org/2000/svg" xmlns:xlink="http://www.w3.org/1999/xlink" x="0px" y="0px"
	 width="595.28px" height="841.89px" viewBox="0 0 595.28 841.89" enable-background="new 0 0 595.28 841.89" xml:space="preserve">
<g>
	
		<line fill="none" stroke="#FF0BC0" stroke-width="2.7812" stroke-linecap="round" stroke-miterlimit="10" x1="190.583" y1="327.641" x2="379.752" y2="220.147"/>
	
		<line fill="none" stroke="#FF0BC0" stroke-width="2.7812" stroke-linecap="round" stroke-miterlimit="10" x1="195.853" y1="493.098" x2="386.602" y2="595.586"/>
	
		<line fill="none" stroke="#FF0BC0" stroke-width="2.7812" stroke-linecap="round" stroke-miterlimit="10" x1="495.414" y1="320.264" x2="495.414" y2="509.696"/>
	<circle fill="none" stroke="#FF0BC0" stroke-width="2.7812" stroke-miterlimit="10" cx="99.424" cy="411.423" r="96.429"/>
	<circle fill="none" stroke="#FF0BC0" stroke-width="2.7812" stroke-miterlimit="10" cx="495.414" cy="211.979" r="96.429"/>
	
		<circle fill="none" stroke="#FF0BC0" stroke-width="2.7812" stroke-linecap="round" stroke-miterlimit="10" cx="495.414" cy="629.31" r="96.429"/>
	<path fill="#FFD400" d="M495.414,210.135c13.437,0,25.029-12.119,25.029-26.083c0-13.437-11.329-24.239-25.029-24.239
		c-13.7,0-25.029,10.802-25.029,24.239C470.385,198.015,481.977,210.135,495.414,210.135z M495.414,167.19
		c9.748,0,17.916,7.641,17.916,17.125c0,9.748-8.694,18.706-17.916,18.706c-9.485,0-17.916-8.958-17.916-18.706
		C477.498,174.83,485.666,167.19,495.414,167.19z"/>
	<path fill="#FFD400" d="M518.862,210.398l-2.108-1.054l-1.844,1.581c-5.533,4.742-12.383,7.377-19.496,7.377
		c-7.114,0-13.7-2.635-19.496-7.377l-1.844-1.581l-2.108,1.054c-13.173,6.85-21.077,21.604-20.287,37.412
		c0,1.054,1.844,16.071,1.844,16.071h84.046c0,0,1.581-14.754,1.581-16.071C539.94,232.003,532.036,217.512,518.862,210.398z
		 M531.245,256.768h-71.399c0,0-0.79-8.167-1.054-9.221c-0.527-12.119,5.006-23.712,14.491-29.772
		c6.587,5.006,14.227,7.641,22.131,7.641s15.544-2.635,22.131-7.641c9.485,6.06,15.018,17.389,14.491,29.772
		C532.036,248.601,531.245,256.768,531.245,256.768z"/>
	<path fill="#FFD400" d="M495.414,627.466c13.437,0,25.029-12.119,25.029-26.083c0-13.437-11.329-24.239-25.029-24.239
		c-13.7,0-25.029,10.802-25.029,24.239C470.385,615.346,481.977,627.466,495.414,627.466z M495.414,584.521
		c9.748,0,17.916,7.641,17.916,17.125c0,9.748-8.694,18.706-17.916,18.706c-9.485,0-17.916-8.958-17.916-18.706
		C477.498,592.161,485.666,584.521,495.414,584.521z"/>
	<path fill="#FFD400" d="M518.862,627.729l-2.108-1.054l-1.844,1.581c-5.533,4.742-12.383,7.377-19.496,7.377
		c-7.114,0-13.7-2.635-19.496-7.377l-1.844-1.581l-2.108,1.054c-13.173,6.85-21.077,21.604-20.287,37.412
		c0,1.054,1.844,16.071,1.844,16.071h84.046c0,0,1.581-14.754,1.581-16.071C539.94,649.333,532.036,634.843,518.862,627.729z
		 M531.245,674.099h-71.399c0,0-0.79-8.167-1.054-9.221c-0.527-12.119,5.006-23.712,14.491-29.772
		c6.587,5.006,14.227,7.641,22.131,7.641s15.544-2.635,22.131-7.641c9.485,6.06,15.018,17.389,14.491,29.772
		C532.036,665.932,531.245,674.099,531.245,674.099z"/>
	<path fill="#FFD400" d="M99.424,409.579c13.437,0,25.029-12.119,25.029-26.083c0-13.437-11.329-24.239-25.029-24.239
		s-25.029,10.802-25.029,24.239C74.395,397.459,85.987,409.579,99.424,409.579z M99.424,366.634c9.748,0,17.916,7.641,17.916,17.125
		c0,9.748-8.694,18.706-17.916,18.706c-9.485,0-17.916-8.958-17.916-18.706C81.508,374.274,89.676,366.634,99.424,366.634z"/>
	<path fill="#FFD400" d="M122.873,409.842l-2.108-1.054l-1.844,1.581c-5.533,4.742-12.383,7.377-19.497,7.377
		c-6.85,0-13.7-2.635-19.497-7.377l-1.844-1.581l-2.108,1.054c-13.173,6.85-21.077,21.604-20.287,37.412
		c0,1.054,1.844,16.071,1.844,16.071h84.046c0,0,1.581-14.754,1.581-16.071C143.95,431.447,136.046,416.956,122.873,409.842z
		 M135.255,456.212H63.856c0,0-0.79-8.167-1.054-9.221c-0.527-12.119,5.006-23.712,14.491-29.772
		c6.587,5.006,14.227,7.641,22.131,7.641s15.545-2.635,22.131-7.641c9.485,6.06,15.018,17.389,14.491,29.772
		C136.046,448.045,135.255,456.212,135.255,456.212z"/>
</g>
</svg>
