<?xml version="1.0" encoding="utf-8"?>
<!-- Generator: Adobe Illustrator 17.0.0, SVG Export Plug-In . SVG Version: 6.00 Build 0)  -->
<!DOCTYPE svg PUBLIC "-//W3C//DTD SVG 1.1//EN" "http://www.w3.org/Graphics/SVG/1.1/DTD/svg11.dtd">
<svg version="1.1" xmlns="http://www.w3.org/2000/svg" xmlns:xlink="http://www.w3.org/1999/xlink" x="0px" y="0px" width="800px"
	 height="800px" viewBox="0 0 800 800" enable-background="new 0 0 800 800" xml:space="preserve">
<g id="Layer_2">
</g>
<g id="Layer_1">
	<g>
		<path fill="#FDDCBE" d="M571.819,195.482c-3.361-3.358-27.821,19.616-30.126,21.94c-1.801,1.811-52.122,47.203-101.291,81.445
			l9.692,12.515c55.394-37.348,104.047-77.255,106.244-79.03c2.747-2.221,5.438-4.273,4.785-6.708
			c-0.44-1.64-2.062-1.842-3.24-1.084c1.151-1.351,2.556-2.499,1.1-4.441c-0.652-0.869-2.232-0.863-3.149-0.155
			c1.727-1.752,2.758-3.664,2.043-4.984c-0.767-1.417-3.043-1.893-4.224-1.143C554.99,212.255,574.156,197.817,571.819,195.482z"/>
		<g>
			<path fill="#F5F5F5" d="M440.402,298.866l9.692,12.515c5.93-3.998,11.775-8.025,17.502-12.031l-9.354-13.33
				C452.337,290.401,446.362,294.716,440.402,298.866z"/>
		</g>
		<g>
			<path fill="#E6E7E8" d="M440.402,298.866l9.692,12.515c2.464-1.661,4.902-3.328,7.334-4.995l-3.909-16.889
				C449.161,292.682,444.777,295.819,440.402,298.866z"/>
		</g>
		<g>
			<path fill="#F5F5F5" d="M291.245,574.234l35.239,43.345c3.043,3.744,7.619,5.947,12.443,5.883
				c50.992-0.681,105.435-19.842,151.915-57.631c57.91-47.081,90.073-112.162,92.176-173.58
				c0.389-11.355-7.633-21.222-18.828-23.159c-60.554-10.477-130.83,7.725-188.74,54.806
				c-46.481,37.789-76.351,87.174-87.426,136.954C286.978,565.561,288.202,570.49,291.245,574.234z"/>
			<path fill="#B05033" d="M350.358,624.255c17.461,21.477,16.148,52.083-1.872,71.988c-2.514,2.777-2.716,6.936-0.353,9.843
				l0.703,0.864c2.235,2.749,6.103,3.579,9.242,1.937c8.667-4.532,17.016-9.98,24.9-16.389
				c29.592-24.059,47.494-57.156,52.996-92.081c-28.395,13.331-57.924,20.88-86.633,22.65
				C349.681,623.461,350.027,623.848,350.358,624.255z"/>
			<path fill="#B05033" d="M289.572,549.534c-17.461-21.477-47.691-26.439-70.854-12.861c-3.232,1.894-7.344,1.243-9.708-1.664
				l-0.703-0.864c-2.235-2.749-2.258-6.705-0.01-9.443c6.206-7.56,13.243-14.621,21.127-21.03
				c29.592-24.059,65.647-34.827,100.959-33.085c-18.846,25.076-32.263,52.442-39.856,80.186
				C290.211,550.359,289.903,549.941,289.572,549.534z"/>
			<path fill="#B05033" d="M564.332,369.119c-26.5-4.6-54.865-3.696-83.244,2.705l82.295,101.223
				c12.059-26.475,18.733-54.059,19.639-80.94C583.401,380.865,575.415,371.042,564.332,369.119z"/>
			<path fill="#E6E7E8" d="M493.529,380.398c-0.509-0.627-0.759-1.465-0.676-2.269c0.085-0.821,0.49-1.583,1.126-2.101
				c0.636-0.517,1.475-0.766,2.286-0.674c1.625,0.168,2.934,1.778,2.767,3.403c-0.085,0.821-0.498,1.574-1.134,2.091
				c-0.637,0.517-1.458,0.768-2.279,0.683C494.816,381.449,494.046,381.033,493.529,380.398z"/>
			<path fill="#E6E7E8" d="M504.764,389.293c1.33-1.081,3.288-0.879,4.369,0.451l0,0c1.082,1.33,0.88,3.288-0.451,4.369l0,0
				c-1.331,1.082-3.288,0.88-4.369-0.451l0,0C503.231,392.332,503.433,390.375,504.764,389.293z"/>
			<path fill="#E6E7E8" d="M547.902,442.353c1.33-1.081,3.287-0.88,4.37,0.451l0,0c1.082,1.33,0.88,3.288-0.451,4.369l0,0
				c-1.331,1.082-3.288,0.88-4.37-0.451l0,0C546.369,445.392,546.572,443.435,547.902,442.353z M537.117,429.088
				c1.33-1.082,3.288-0.879,4.37,0.451l0,0c1.082,1.33,0.88,3.288-0.451,4.37l0,0c-1.331,1.082-3.288,0.879-4.369-0.451l0,0
				C535.585,432.127,535.786,430.17,537.117,429.088z M526.333,415.823c1.33-1.082,3.288-0.879,4.369,0.451l0,0
				c1.081,1.33,0.88,3.288-0.451,4.369l0,0c-1.331,1.082-3.288,0.88-4.37-0.451l0,0
				C524.801,418.862,525.002,416.905,526.333,415.823z M515.548,402.558c1.33-1.081,3.288-0.88,4.369,0.451l0,0
				c1.082,1.33,0.88,3.288-0.451,4.37l0,0c-1.331,1.082-3.288,0.879-4.369-0.451l0,0
				C514.016,405.597,514.217,403.64,515.548,402.558z"/>
			<path fill="#E6E7E8" d="M558.236,459.988c-0.518-0.636-0.758-1.465-0.684-2.279c0.092-0.812,0.499-1.573,1.135-2.091
				c0.636-0.517,1.464-0.759,2.278-0.684c1.626,0.169,2.942,1.788,2.775,3.413c-0.093,0.812-0.498,1.575-1.134,2.091
				c-0.636,0.517-1.466,0.758-2.279,0.683C559.515,461.029,558.753,460.624,558.236,459.988z"/>
			<path fill="#E6E7E8" d="M478.686,372.36l83.682,102.929c0.349-0.745,0.674-1.495,1.015-2.242l-82.295-101.223
				C480.287,372.004,479.487,372.17,478.686,372.36z"/>
			<path fill="#E6E7E8" d="M322.678,470.413c-17.242,23.09-30.158,47.999-38.482,73.395c1.896,1.757,3.698,3.662,5.376,5.726
				c0.331,0.407,0.639,0.825,0.956,1.238c7.593-27.743,21.01-55.11,39.856-80.186C327.818,470.46,325.249,470.407,322.678,470.413z"
				/>
			<path fill="#E6E7E8" d="M435.974,600.416c-28.394,13.331-57.924,20.88-86.633,22.65c0.34,0.395,0.686,0.782,1.017,1.188
				c1.688,2.076,3.192,4.24,4.531,6.468c26.548-2.963,53.557-10.517,79.669-22.673C435.094,605.516,435.571,602.972,435.974,600.416
				z"/>
			<g>
				<path fill="#B05033" d="M300.597,661.22c-38.344,31.174-114.522,34.517-114.522,34.517s18.822-73.891,57.166-105.065
					c19.482-15.839,42.332-8.185,58.17,11.297C317.25,621.45,320.079,645.38,300.597,661.22z"/>
				<path fill="#EFA734" d="M297.839,651.92c-15.645,12.72-48.15,18.083-60.87,2.438c-12.72-15.643-0.834-46.371,14.811-59.091
					c15.645-12.719,32.856-5.647,45.575,9.997C310.074,620.911,313.483,639.202,297.839,651.92z"/>
				<path fill="#F5F5F5" d="M296.388,633.893c-9.258,7.527-28.741,10.902-36.268,1.644c-7.527-9.258-0.246-27.643,9.011-35.17
					c9.258-7.526,17.084-1.423,24.61,7.835C301.268,617.461,305.645,626.367,296.388,633.893z"/>
			</g>
			<g>
				<g>
					<path fill="#B05033" d="M288.026,560.852c-1.048,4.709,0.176,9.639,3.219,13.382l35.24,43.345
						c3.043,3.744,7.62,5.947,12.443,5.883c3.455-0.046,6.926-0.185,10.409-0.401l-58.804-72.283
						C289.614,554.132,288.774,557.491,288.026,560.852z"/>
				</g>
				<g>
					<path fill="#E6E7E8" d="M295.36,556.712l-7.635,6.211c-0.059,0.714-0.06,1.427-0.021,2.137l8.693-7.072L295.36,556.712z"/>
					<path fill="#E6E7E8" d="M300.706,563.283l-10.88,8.851c0.276,0.476,0.577,0.937,0.902,1.386l11.016-8.961L300.706,563.283z"/>
					
						<rect x="293.917" y="574.167" transform="matrix(0.7757 -0.6311 0.6311 0.7757 -295.3419 318.9331)" fill="#E6E7E8" width="14.252" height="1.644"/>
					
						<rect x="299.26" y="580.739" transform="matrix(0.7757 -0.6311 0.6311 0.7757 -298.2928 323.7852)" fill="#E6E7E8" width="14.254" height="1.644"/>
					
						<rect x="304.604" y="587.311" transform="matrix(0.7757 -0.6311 0.6311 0.7757 -301.2431 328.6357)" fill="#E6E7E8" width="14.257" height="1.644"/>
					
						<rect x="309.947" y="593.883" transform="matrix(0.7757 -0.6311 0.6311 0.7757 -304.1928 333.4853)" fill="#E6E7E8" width="14.26" height="1.644"/>
					
						<rect x="315.291" y="600.455" transform="matrix(0.7757 -0.6311 0.6311 0.7757 -307.1364 338.3197)" fill="#E6E7E8" width="14.262" height="1.645"/>
					
						<rect x="320.634" y="607.027" transform="matrix(0.7757 -0.6311 0.6311 0.7757 -310.0856 343.1677)" fill="#E6E7E8" width="14.265" height="1.644"/>
					<path fill="#E6E7E8" d="M338.127,609.282l-11.028,8.972c0.374,0.41,0.765,0.798,1.175,1.164l10.891-8.86L338.127,609.282z"/>
					<path fill="#E6E7E8" d="M343.472,615.852l-8.696,7.075c0.688,0.182,1.387,0.326,2.099,0.412l7.635-6.211L343.472,615.852z"/>
				</g>
			</g>
			<g>
				<path fill="#F5F5F5" d="M577.952,377.143c1.295,1.598,1.144,4.371-0.704,8.007c-20.02,39.38-63.865,90.092-121.775,137.173
					c-46.481,37.789-93.391,66.215-132.147,81.946c-3.666,1.488-6.465,1.471-7.643,0.023l-0.001,0l10.802,13.286
					c3.043,3.744,7.62,5.947,12.443,5.883c50.992-0.681,105.435-19.842,151.915-57.631c57.91-47.081,90.073-112.162,92.176-173.58
					C583.214,386.575,581.306,381.271,577.952,377.143z"/>
			</g>
		</g>
		<path fill="#E6E7E8" d="M376.71,504.034c2.412-24.698-19.449-22.69-19.449-22.69l24.792-28.891l-10.888-24.998
			c-4.262,3.611-8.378,7.32-12.345,11.119l8.536,11.821l-20.882,33.188C346.474,483.583,374.429,527.398,376.71,504.034z"/>
		<g>
			<g>
				<g>
					<g>
						<path fill="#F5F5F5" d="M312.773,309.513l139.741-11.85c-0.996,18.796-2.369,43.36,6.552,64.364
							c-17.636,21.195-85.624,63.084-111.182,64.431C330.428,396.851,317.477,352.848,312.773,309.513z"/>
					</g>
				</g>
			</g>
			<g>
				<path fill="#533E29" d="M459.066,362.027l-111.182,64.431l13.955,25.276l-24.733,30.427c0,0,22.465,46.866,27.549,23.949
					c5.374-24.227-16.57-24.87-16.57-24.87l28.096-25.69l-8.209-27.523c0,0,40.268-27.916,82.502-49.553l1.495,1.869
					c4.964-1.794,9.946-3.415,14.937-4.867L459.066,362.027z"/>
			</g>
			<g>
				<g>
					<g>
						<path fill="#FDDCBE" d="M452.514,297.663c0,0,9.312-141.831-101.691-108.117c0,0-35.442,41.88-38.05,119.967
							C406.394,333.804,452.514,297.663,452.514,297.663z"/>
					</g>
				</g>
				<g>
					<g>
						<path fill="#533E29" d="M442.216,122.896c10.377,39.655,16.163,96.028-100.047,102.032l-1.401,30.139
							c0,0-13.139-10.011-15.164,4.247c-2.027,14.267,14.258,7.266,14.258,7.266s-12.878,26.598-27.089,42.932
							c-0.851,0.979-61.777-123.855,1.444-130.169c0,0,2.697-31.485,46.817-36.816C401.312,137.661,421.865,174.54,442.216,122.896z
							"/>
					</g>
				</g>
			</g>
			<g>
				<path fill="#EB7D86" d="M387.694,277.953c0,0,17.56-4.763,41-6.792c0,0,2.849,22.198-16.896,25.469
					C390.041,300.234,387.694,277.953,387.694,277.953z"/>
			</g>
			<g>
				
					<ellipse transform="matrix(0.9714 -0.2373 0.2373 0.9714 -49.1606 96.1101)" fill="#533E29" cx="374.61" cy="252.242" rx="4.924" ry="10.692"/>
				
					<ellipse transform="matrix(0.9714 -0.2373 0.2373 0.9714 -44.3115 109.0172)" fill="#533E29" cx="430.639" cy="238.553" rx="4.924" ry="10.692"/>
			</g>
			<g>
				<g>
					<g>
						<path fill="#E6E7E8" d="M329.367,326.006c56.879,56.598,104.557,72.184,106.872,72.518c2.967,0.426,8.884,1.748,8.135,4.497
							c-0.382,1.397-1.375,1.883-3.268,1.764c1.197,0.458,2.444,1.078,2.361,2.404c-0.069,1.182-2.175,2.12-3.521,2.072
							c-0.118-0.018-0.238-0.038-0.351-0.035c0.113-0.003,0.233,0.017,0.351,0.035c1.145,0.19,2.422,1.44,2.356,2.525
							c-0.073,1.424-1.965,1.87-3.371,1.742c1.201,0.452,2.059,1.145,1.985,2.462c-0.159,2.77-4.606,2.382-8.626,1.97
							c-6.128-0.244-61.833-14.974-113.467-80.148L329.367,326.006z"/>
					</g>
				</g>
				<g>
					<g>
						<path fill="#FDDCBE" d="M329.274,325.923c57.32,56.15,105.119,71.362,107.436,71.679c2.97,0.402,8.898,1.678,8.17,4.433
							c-0.371,1.399-1.361,1.894-3.254,1.79c1.2,0.449,2.452,1.059,2.38,2.385c-0.06,1.182-2.158,2.137-3.505,2.099
							c-0.118-0.018-0.239-0.036-0.352-0.033c0.113-0.004,0.233,0.015,0.352,0.033c1.146,0.181,2.433,1.421,2.375,2.506
							c-0.062,1.425-1.95,1.885-3.357,1.768c1.204,0.442,2.068,1.129,2.004,2.446c-0.137,2.771-5.411,1.506-8.549,0.725
							c-2.509-0.626-52.603-16.271-114.153-77.945L329.274,325.923z"/>
					</g>
				</g>
				<g>
					<path fill="#F5F5F5" d="M329.274,325.923l-10.452,11.887c4.503,4.512,8.935,8.749,13.301,12.781l9.991-12.626
						C337.896,334.169,333.617,330.178,329.274,325.923z"/>
				</g>
			</g>
		</g>
		<g>
			<g>
				<path fill="#F5F5F5" d="M441.687,313.931l3.994,4.194l-2.084,6.804c0,0,4.685,38.751-41.373,49.183l-13.851-10.246
					l10.674-12.271c38.833,0.283,37.466-24.059,37.466-24.059l-6.005-4.918l1.155-4.652L441.687,313.931z"/>
			</g>
			<g>
				<path fill="#533E29" d="M441.687,313.931l3.994,4.194l-2.084,6.804c0,0,4.399,35.235-41.659,45.667l-13.851-10.246
					l10.674-12.271c38.833,0.283,37.752-20.544,37.752-20.544l-6.005-4.918l1.155-4.652L441.687,313.931z"/>
			</g>
		</g>
	</g>
	<g>
		<g>
			<path fill="#E8F0EC" d="M236.57,363.321c-0.433,0-0.785-0.352-0.785-0.785l0-4.761c0-0.433,0.352-0.784,0.785-0.784
				c0.433,0,0.785,0.352,0.785,0.784l0,4.762C237.355,362.969,237.003,363.321,236.57,363.321z"/>
		</g>
		<g>
			<path fill="#E8F0EC" d="M232.385,364.742c-0.21,0-0.407-0.082-0.555-0.23l-3.367-3.367c-0.148-0.148-0.23-0.345-0.23-0.554
				c0-0.209,0.082-0.407,0.23-0.555c0.148-0.148,0.345-0.23,0.555-0.23s0.407,0.082,0.555,0.23l3.367,3.367
				c0.148,0.148,0.23,0.345,0.23,0.555s-0.082,0.406-0.23,0.554C232.791,364.661,232.594,364.742,232.385,364.742z"/>
		</g>
		<g>
			<path fill="#E8F0EC" d="M225.669,368.708c-0.433,0-0.785-0.352-0.785-0.785c0-0.433,0.352-0.785,0.785-0.785l4.761,0
				c0.433,0,0.785,0.352,0.785,0.785c0,0.433-0.352,0.785-0.785,0.785l0,0L225.669,368.708z"/>
		</g>
		<g>
			<path fill="#E8F0EC" d="M228.486,376.26c-0.209,0-0.406-0.082-0.555-0.23c-0.148-0.148-0.23-0.345-0.23-0.555
				c0-0.21,0.082-0.406,0.23-0.554l3.367-3.367c0.148-0.148,0.345-0.23,0.555-0.23c0.21,0,0.406,0.082,0.555,0.23
				c0.148,0.148,0.23,0.345,0.23,0.555c0,0.209-0.082,0.406-0.23,0.555l-3.367,3.367C228.892,376.179,228.695,376.26,228.486,376.26
				z"/>
		</g>
		<g>
			<path fill="#E8F0EC" d="M235.817,379.609c-0.433,0-0.784-0.352-0.784-0.785l0-4.761c0-0.433,0.352-0.785,0.785-0.785
				c0.433,0,0.785,0.352,0.785,0.785l0,4.761C236.602,379.257,236.25,379.609,235.817,379.609z"/>
		</g>
		<g>
			<path fill="#E8F0EC" d="M243.37,376.793c-0.209,0-0.406-0.082-0.555-0.23l-3.366-3.367c-0.148-0.148-0.23-0.345-0.23-0.555
				c0-0.209,0.082-0.407,0.23-0.555c0.148-0.148,0.345-0.23,0.555-0.23c0.209,0,0.406,0.082,0.555,0.23l3.366,3.367
				c0.148,0.148,0.23,0.345,0.23,0.555s-0.082,0.406-0.23,0.555C243.776,376.711,243.579,376.793,243.37,376.793z"/>
		</g>
		<g>
			<path fill="#E8F0EC" d="M241.957,369.46c-0.433,0-0.784-0.352-0.784-0.785c0-0.433,0.352-0.785,0.784-0.785l4.762,0.001
				c0.433,0,0.785,0.352,0.785,0.784c0,0.432-0.352,0.785-0.785,0.785l0,0L241.957,369.46z"/>
		</g>
		<g>
			<path fill="#E8F0EC" d="M240.536,365.275c-0.209,0-0.406-0.082-0.555-0.23c-0.148-0.148-0.23-0.345-0.23-0.555
				c0-0.209,0.082-0.407,0.23-0.555l3.366-3.366c0.148-0.148,0.345-0.23,0.555-0.23c0.209,0,0.406,0.082,0.555,0.23
				c0.306,0.306,0.306,0.803,0,1.109l-3.367,3.366C240.942,365.193,240.745,365.275,240.536,365.275z"/>
		</g>
	</g>
	<g>
		<g>
			<path fill="#E8F0EC" d="M631.344,243.594c-0.576,0-1.045-0.469-1.045-1.045v-14.968c0-0.576,0.469-1.045,1.045-1.045
				c0.576,0,1.045,0.469,1.045,1.045v14.968C632.389,243.126,631.92,243.594,631.344,243.594z"/>
		</g>
		<g>
			<path fill="#E8F0EC" d="M623.86,236.11c-0.576,0-1.045-0.469-1.045-1.045c0-0.576,0.469-1.045,1.045-1.045h14.967
				c0.576,0,1.045,0.469,1.045,1.045c0,0.576-0.469,1.045-1.045,1.045H623.86z"/>
		</g>
	</g>
	<g>
		<g>
			<path fill="#E8F0EC" d="M201.842,252.81c-0.488,0-0.884-0.397-0.884-0.884v-12.663c0-0.488,0.396-0.884,0.884-0.884
				c0.487,0,0.884,0.397,0.884,0.884v12.663C202.726,252.413,202.33,252.81,201.842,252.81z"/>
		</g>
		<g>
			<path fill="#E8F0EC" d="M195.511,246.478c-0.488,0-0.884-0.397-0.884-0.884c0-0.488,0.397-0.884,0.884-0.884h12.662
				c0.488,0,0.884,0.397,0.884,0.884c0,0.487-0.397,0.884-0.884,0.884H195.511z"/>
		</g>
	</g>
	<g>
		<g>
			<path fill="#E8F0EC" d="M712.571,335.599c-0.703,0-1.276-0.572-1.276-1.276v-18.268c0-0.703,0.572-1.275,1.276-1.275
				c0.703,0,1.275,0.572,1.275,1.275v18.268C713.847,335.027,713.274,335.599,712.571,335.599z"/>
		</g>
		<g>
			<path fill="#E8F0EC" d="M703.438,326.465c-0.703,0-1.276-0.572-1.276-1.275c0-0.703,0.572-1.276,1.276-1.276h18.268
				c0.703,0,1.276,0.572,1.276,1.276c0,0.703-0.572,1.275-1.276,1.275H703.438z"/>
		</g>
	</g>
	<g>
		<path fill="#E8F0EC" d="M277.911,90.551c-2.469,0-4.478-2.009-4.478-4.478s2.009-4.478,4.478-4.478s4.478,2.009,4.478,4.478
			S280.38,90.551,277.911,90.551z M277.911,83.28c-1.54,0-2.793,1.253-2.793,2.792c0,1.54,1.253,2.793,2.793,2.793
			c1.54,0,2.792-1.253,2.792-2.793C280.703,84.533,279.451,83.28,277.911,83.28z"/>
	</g>
	<g>
		<path fill="#E8F0EC" d="M599.062,339.115c-2.276-0.074-4.068-1.987-3.994-4.263c0.074-2.276,1.986-4.068,4.263-3.994
			c2.276,0.074,4.068,1.987,3.994,4.263C603.251,337.397,601.339,339.189,599.062,339.115z M599.281,332.412
			c-1.42-0.046-2.612,1.071-2.658,2.491c-0.046,1.419,1.071,2.612,2.49,2.658c1.42,0.046,2.612-1.071,2.658-2.491
			C601.818,333.651,600.701,332.458,599.281,332.412z"/>
	</g>
	<g>
		<path fill="#E8F0EC" d="M103.261,171.135c-3.298,0-5.981-2.683-5.981-5.981s2.683-5.981,5.981-5.981
			c3.298,0,5.981,2.683,5.981,5.981S106.559,171.135,103.261,171.135z M103.261,161.425c-2.057,0-3.73,1.673-3.73,3.73
			c0,2.057,1.673,3.73,3.73,3.73c2.057,0,3.73-1.673,3.73-3.73C106.991,163.098,105.318,161.425,103.261,161.425z"/>
	</g>
	<g>
		<path fill="#E8F0EC" d="M669.428,151.404c-0.974-0.002-1.766-0.794-1.766-1.767c0-0.973,0.791-1.765,1.764-1.765
			c0.974,0,1.767,0.792,1.767,1.766C671.193,150.612,670.401,151.404,669.428,151.404z M662.348,148.481
			c-0.357,0-0.699-0.107-0.991-0.31l-0.113-0.078h-0.011l-0.139-0.134c-0.677-0.677-0.679-1.796,0.003-2.488
			c0.336-0.336,0.782-0.523,1.253-0.523c0.474,0,0.917,0.186,1.248,0.523c0.691,0.679,0.692,1.794,0.009,2.49
			C663.258,148.298,662.82,148.481,662.348,148.481z M676.49,148.464c-0.47,0-0.913-0.184-1.248-0.518
			c-0.682-0.682-0.683-1.801-0.002-2.493c0.337-0.331,0.783-0.516,1.253-0.516c0.472,0,0.914,0.182,1.245,0.513
			c0.337,0.337,0.522,0.784,0.52,1.259c-0.002,0.47-0.188,0.911-0.523,1.24C677.412,148.284,676.972,148.464,676.49,148.464z
			 M659.417,141.418c-0.978,0-1.774-0.792-1.774-1.766c0-0.974,0.792-1.766,1.766-1.766c0.974,0,1.766,0.788,1.766,1.757
			C661.174,140.623,660.386,141.418,659.417,141.418z M679.422,141.402c-0.973-0.001-1.765-0.797-1.765-1.775
			c0-0.993,0.788-1.801,1.756-1.801c0.967,0,1.764,0.786,1.775,1.752C681.188,140.599,680.412,141.402,679.422,141.402z
			 M662.322,134.339c-0.47,0-0.913-0.184-1.248-0.518c-0.687-0.689-0.688-1.809,0-2.496c0.33-0.336,0.771-0.52,1.245-0.52
			c0.471,0,0.916,0.184,1.251,0.52c0.335,0.328,0.518,0.767,0.52,1.237c0.002,0.475-0.183,0.922-0.521,1.259
			C663.235,134.154,662.792,134.339,662.322,134.339z M676.464,134.295c-0.466,0-0.907-0.179-1.242-0.504
			c-0.684-0.696-0.689-1.825-0.005-2.51c0.333-0.333,0.777-0.517,1.249-0.517c0.471,0,0.914,0.184,1.247,0.517
			c0.685,0.684,0.69,1.803,0.011,2.493C677.375,134.112,676.936,134.295,676.464,134.295z M669.393,131.391
			c-0.979,0-1.774-0.788-1.774-1.757c0-0.979,0.792-1.774,1.766-1.774c0.974,0,1.766,0.792,1.766,1.766
			C671.15,130.599,670.362,131.391,669.393,131.391z"/>
	</g>
	<g>
		<g>
			<path fill="#E8F0EC" d="M88.795,351.624c-1.032,0-1.872-0.84-1.872-1.872c0-1.032,0.84-1.872,1.872-1.872
				c1.032,0,1.872,0.839,1.872,1.872C90.666,350.785,89.826,351.624,88.795,351.624z M81.288,348.526
				c-0.377,0-0.74-0.113-1.049-0.328l-0.121-0.083h-0.011l-0.147-0.143c-0.719-0.717-0.719-1.903,0.003-2.638
				c0.355-0.356,0.828-0.554,1.329-0.554c0.501,0,0.971,0.196,1.322,0.553c0.733,0.72,0.735,1.902,0.011,2.641
				C82.254,348.332,81.789,348.526,81.288,348.526z M96.282,348.508c-0.499,0-0.969-0.195-1.322-0.549
				c-0.723-0.724-0.725-1.91-0.003-2.644c0.356-0.351,0.831-0.547,1.329-0.547c0.499,0,0.968,0.193,1.319,0.544
				c0.358,0.358,0.554,0.831,0.552,1.334c-0.002,0.499-0.199,0.967-0.554,1.316C97.259,348.317,96.793,348.508,96.282,348.508z
				 M78.182,341.039c-1.037,0-1.881-0.839-1.881-1.872c0-1.032,0.84-1.872,1.872-1.872c1.032,0,1.872,0.835,1.872,1.863
				C80.045,340.195,79.209,341.039,78.182,341.039z M99.389,341.021c-1.032,0-1.872-0.844-1.872-1.882
				c0-1.053,0.835-1.909,1.863-1.909c1.024,0,1.868,0.833,1.881,1.857C101.261,340.169,100.438,341.021,99.389,341.021z
				 M81.261,333.533c-0.498,0-0.968-0.195-1.323-0.549c-0.729-0.731-0.729-1.918,0-2.647c0.35-0.356,0.818-0.55,1.32-0.55
				c0.5,0,0.97,0.196,1.326,0.551c0.355,0.349,0.549,0.813,0.551,1.311c0.002,0.504-0.194,0.978-0.552,1.336
				C82.229,333.339,81.76,333.533,81.261,333.533z M96.253,333.486c-0.494,0-0.962-0.19-1.318-0.534
				c-0.724-0.737-0.73-1.935-0.005-2.66c0.354-0.353,0.824-0.548,1.325-0.548c0.499,0,0.968,0.195,1.322,0.548
				c0.726,0.726,0.731,1.912,0.012,2.643C97.219,333.293,96.754,333.486,96.253,333.486z M88.756,330.408
				c-1.036,0-1.88-0.835-1.88-1.863c0-1.037,0.84-1.881,1.872-1.881s1.872,0.839,1.872,1.872
				C90.62,329.568,89.784,330.408,88.756,330.408z"/>
		</g>
	</g>
	<g>
		<g>
			<path fill="#E8F0EC" d="M496.553,78.549c-0.612,0-1.11-0.498-1.11-1.111v-6.315c0-0.613,0.498-1.111,1.11-1.111
				c0.613,0,1.111,0.498,1.111,1.111v6.315C497.664,78.051,497.165,78.549,496.553,78.549z"/>
		</g>
		<g>
			<path fill="#E8F0EC" d="M491.002,80.436c-0.296,0-0.574-0.115-0.785-0.325l-4.466-4.466c-0.21-0.21-0.326-0.489-0.326-0.785
				s0.116-0.575,0.326-0.786c0.209-0.21,0.488-0.325,0.785-0.325c0.297,0,0.576,0.116,0.785,0.325l4.465,4.465
				c0.432,0.433,0.432,1.138,0,1.571C491.578,80.32,491.298,80.436,491.002,80.436z"/>
		</g>
		<g>
			<path fill="#E8F0EC" d="M482.096,85.695c-0.613,0-1.111-0.498-1.111-1.111c0-0.613,0.498-1.111,1.111-1.111h6.315
				c0.613,0,1.11,0.498,1.11,1.111c0,0.613-0.498,1.111-1.11,1.111H482.096z"/>
		</g>
		<g>
			<path fill="#E8F0EC" d="M485.831,95.711c-0.296,0-0.576-0.116-0.785-0.325c-0.21-0.21-0.326-0.489-0.326-0.786
				c0-0.297,0.116-0.576,0.326-0.786l4.466-4.465c0.209-0.21,0.488-0.326,0.785-0.326c0.297,0,0.575,0.116,0.785,0.326
				c0.432,0.433,0.432,1.137,0,1.57l-4.466,4.466C486.407,95.596,486.128,95.711,485.831,95.711z"/>
		</g>
		<g>
			<path fill="#E8F0EC" d="M495.556,100.152c-0.612,0-1.11-0.498-1.11-1.111v-6.314c0-0.613,0.498-1.111,1.11-1.111
				c0.613,0,1.111,0.498,1.111,1.111v6.314C496.667,99.653,496.168,100.152,495.556,100.152z"/>
		</g>
		<g>
			<path fill="#E8F0EC" d="M505.572,96.416c-0.297,0-0.576-0.116-0.785-0.325l-4.465-4.465c-0.21-0.21-0.326-0.489-0.326-0.786
				c0-0.296,0.116-0.575,0.326-0.786c0.21-0.209,0.489-0.325,0.785-0.325c0.296,0,0.575,0.116,0.785,0.326l4.465,4.466
				c0.21,0.21,0.326,0.489,0.326,0.785c0,0.297-0.116,0.576-0.326,0.786C506.148,96.301,505.869,96.416,505.572,96.416z"/>
		</g>
		<g>
			<path fill="#E8F0EC" d="M503.699,86.692c-0.612,0-1.111-0.498-1.111-1.111c0-0.613,0.499-1.111,1.111-1.111h6.315
				c0.613,0,1.111,0.498,1.111,1.111c0,0.613-0.498,1.111-1.111,1.111H503.699z"/>
		</g>
		<g>
			<path fill="#E8F0EC" d="M501.813,81.141c-0.296,0-0.576-0.116-0.785-0.325c-0.21-0.21-0.326-0.489-0.326-0.785
				c0-0.297,0.116-0.576,0.326-0.786l4.464-4.465c0.21-0.21,0.49-0.325,0.786-0.325c0.296,0,0.575,0.116,0.785,0.325
				c0.432,0.433,0.433,1.138,0,1.57l-4.465,4.465C502.387,81.025,502.108,81.141,501.813,81.141z"/>
		</g>
	</g>
</g>
</svg>
