<?xml version="1.0" encoding="utf-8"?>
<!-- Generator: Adobe Illustrator 17.0.0, SVG Export Plug-In . SVG Version: 6.00 Build 0)  -->
<!DOCTYPE svg PUBLIC "-//W3C//DTD SVG 1.1//EN" "http://www.w3.org/Graphics/SVG/1.1/DTD/svg11.dtd">
<svg version="1.1" xmlns="http://www.w3.org/2000/svg" xmlns:xlink="http://www.w3.org/1999/xlink" x="0px" y="0px" width="5000px"
	 height="5000px" viewBox="0 0 5000 5000" enable-background="new 0 0 5000 5000" xml:space="preserve">
<g id="Layer_1">
</g>
<g id="Layer_5">
	<path fill="#E3C2A5" d="M2220.467,3363.328l-188.571-69.619C1890.691,3247.237,1921.077,3166,1921.077,3166h-145.165h-2.281
		h-145.165c0,0,30.386,81.237-110.819,127.709l-188.571,69.664l445.695,53.649L2220.467,3363.328z"/>
	<path fill="#F4DBC0" d="M1413.947,2606.155c1.913,55.359-9.396,103.616-37.997,104.604c-28.602,0.988-49.324-43.226-51.237-98.585
		c-1.913-55.359,20.051-101.049,48.652-102.037C1401.966,2509.148,1412.034,2550.796,1413.947,2606.155z"/>
	<path fill="#F4DBC0" d="M2140.805,2595.031c-1.913,55.359,9.396,103.616,37.997,104.604s49.324-43.227,51.237-98.585
		s-20.051-101.049-48.652-102.037C2152.786,2498.024,2142.718,2539.672,2140.805,2595.031z"/>
	<ellipse fill="#F4DBC0" cx="1774.709" cy="2650.538" rx="388.728" ry="554.839"/>
	<g>
		<g>
			<path fill="#E3C2A5" d="M1771,2096.482V3206.16c-218,0-388.729-248.41-388.729-554.839S1553,2096.482,1771,2096.482z"/>
		</g>
	</g>
	<path fill="#39261A" d="M1690.347,2466.833l-87.012-18.336c-15.535-3.274-31.448-3.274-46.983,0l-87.012,18.336
		c-4.637,0.977-9.516-0.728-12.586-4.889c-1.999-2.709-3.21-6.225-3.21-10.054l0,0c-1.832-15.137,65.708-27.153,65.708-27.153
		c11.781-2.246,44.473-9.417,101.528-2.686c0,0,90.131,10.859,85.361,29.839l0,0c0,3.829-1.211,7.345-3.21,10.054
		C1699.862,2466.105,1694.984,2467.81,1690.347,2466.833z"/>
	<path fill="#39261A" d="M2074.641,2463.356l-87.012-18.336c-15.535-3.274-31.448-3.274-46.983,0l-87.012,18.336
		c-4.637,0.977-9.516-0.728-12.586-4.889c-1.999-2.709-3.21-6.225-3.21-10.054l0,0c-1.832-15.137,65.708-27.153,65.708-27.153
		c11.781-2.246,44.473-9.417,101.528-2.686c0,0,90.131,10.859,85.361,29.839l0,0c0,3.829-1.211,7.345-3.209,10.054
		C2084.157,2462.628,2079.279,2464.333,2074.641,2463.356z"/>
	<path fill="#FBF6EE" d="M1658.847,2584.299c0,0-39.553,49.116-88.516,49.116c-48.806,0-88.408-49.116-88.408-49.116
		s39.602-49.153,88.408-49.153C1619.293,2535.146,1658.847,2584.299,1658.847,2584.299z"/>
	<path fill="#524743" d="M1603.953,2584.295c0,18.534-15.01,33.54-33.589,33.54c-18.523,0-33.548-15.006-33.548-33.54
		c0-18.543,15.025-33.571,33.548-33.571C1588.943,2550.725,1603.953,2565.753,1603.953,2584.295z"/>
	<circle fill="#FFFFFF" cx="1580.309" cy="2574.679" r="11.583"/>
	<path fill="#FBF6EE" d="M1884.895,2581.365c0,0,39.553,49.116,88.516,49.116c48.806,0,88.408-49.116,88.408-49.116
		s-39.602-49.152-88.408-49.152C1924.448,2532.213,1884.895,2581.365,1884.895,2581.365z"/>
	<path fill="#412C20" d="M1347.87,2543.26c-6.694-78.548-13.194-198.26,28.745-317.875c26.585-75.823,62.484-167.15,136.605-198.165
		c91.909-38.458,28.029,24.118,219.67-13.689c81.924-16.162,158.115-57.257,290.72-19.555c0,0,130.303,39.812,168.916,335.775
		c0.056,0.431,0.123,0.855,0.202,1.283c1.504,8.107,17.2,96.116,11.078,205.666c-1.068,19.112-19.657,111.316-35.076,122.659
		c-23.823,17.527-24.115-3.425-26.322-4.418c-7.94-3.575,10.375-112.182,9.18-120.808c-6.866-49.586-41.972-206.33-122.893-245.463
		c-0.455-0.22-50.764-17.073-134.101,23.438c-160.835,78.185-236.242,9.55-257.157,3.579c-1.397-0.399-25.785-14.716-27.093-15.348
		c-15.763-7.604-108.038-45.716-154.028,39.356c-0.493,0.913-1.026,1.797-1.626,2.644c-6.099,8.617-47.097,67.475-62.061,201.572
		c-0.892,7.994,17.763,104.593,15.644,114.289c-0.032,0.147-23.663,11.738-27.377-3.422
		C1379.934,2650.848,1351.419,2584.899,1347.87,2543.26z"/>
	<path fill="#2B2825" d="M2171.84,2528.513c0.16-2.238-4.748-11.289-6.458-12.406c-20.551-13.427-32.87-27.384-62.029-27.517
		c-27.785-0.126-55.601-1.042-83.348-0.201c-68.279,2.07-136.57,5.087-204.84,7.431c-13.569,0.466-27.554,1.051-40.814,1.292
		c-13.26-0.241-26.879-0.826-40.448-1.292c-68.27-2.344-136.378-5.361-204.657-7.431c-27.747-0.841-55.472,0.075-83.257,0.201
		c-29.159,0.133-41.433,14.09-61.983,27.517c-1.71,1.117-6.596,10.168-6.436,12.406c1.75,24.359-9.956,48.298,17.393,66.509
		c8.028,9.581,8.019,28.784,10.704,41.139c9.346,43.006,41.219,66.266,87.088,72.724c54.49,10.745,136.562,7.388,153.322,4.189
		c20.814-2.305,39.239-15.06,49.62-29.351c14.267-19.64,26.707-40.364,38.947-61.068c6.887-11.649,11.55-24.166,17.256-36.345
		c4.262-9.097,10.848-13.034,22.451-13.016c11.603-0.018,18.555,3.918,22.817,13.016c5.706,12.179,10.734,24.696,17.622,36.345
		c12.24,20.705,24.681,41.428,38.947,61.068c10.38,14.291,28.806,27.046,49.62,29.351c16.76,3.2,98.832,6.556,153.322-4.189
		c45.869-6.458,77.742-29.719,87.088-72.724c2.685-12.355,2.676-31.559,10.704-41.139
		C2181.819,2576.811,2170.091,2552.872,2171.84,2528.513z M1725.98,2580.418c-5.045,30.591-19.336,58.029-39.207,83.073
		c-13.828,17.428-33.45,27.285-57.762,31.428c-44.998,7.669-89.628,3.941-134.122-1.661c-28.911-3.64-48.292-19.137-56.529-43.986
		c-12.131-36.599-14.669-73.791-7.937-111.564c2.685-15.067,11.033-25.356,28.246-26.959c31.387-2.922,74.761-4.18,93.822-4.735
		c17.776,0,36.785-0.267,54.317,1.548c26.842,2.779,54.278,5.357,79.818,12.538
		C1717.799,2528.864,1730.677,2551.939,1725.98,2580.418z M2111.072,2649.272c-8.237,24.848-27.618,40.346-56.529,43.986
		c-44.494,5.602-89.125,9.33-134.122,1.661c-24.311-4.144-43.933-14-57.762-31.428c-19.871-25.044-34.162-52.482-39.207-83.073
		c-4.696-28.479,8.182-51.554,39.354-60.318c25.54-7.181,52.976-9.759,79.818-12.538c17.532-1.815,36.541-1.548,54.317-1.548
		c19.061,0.555,62.434,1.813,93.822,4.735c17.214,1.603,25.561,11.892,28.246,26.959
		C2125.741,2575.481,2123.203,2612.673,2111.072,2649.272z"/>
	<path fill="#412C20" d="M2141.203,2650.848c1.246,15.318-16.609,95.166-36.503,139.675c-4.917,11-9.456,21.193-13.734,30.608
		c-27.067,59.568-99.192,96.67-156.563,65.213c-28.516-15.636-45.151-33.244-121.46-43.239l-38.313,0.482l-38.313-0.482
		c-76.309,9.995-92.944,27.603-121.46,43.239c-57.371,31.458-129.495-5.644-156.563-65.213c-4.278-9.415-8.818-19.608-13.734-30.608
		c-19.894-44.51-37.749-124.357-36.503-139.675h-28.123c3.461,51.664,9.828,104.275,20.791,151.335
		c0,0,54.727,382.697,358.127,403.282c0,0,5.355,0.608,14.794,0.695v0.011c0.224,0.001,0.438,0.002,0.667,0.002v-0.003
		c0.109,0,0.21-0.002,0.319-0.002c0.108,0,0.209,0.002,0.319,0.002v0.003c0.229,0,0.442-0.001,0.666-0.002v-0.011
		c9.438-0.087,14.794-0.695,14.794-0.695c303.4-20.585,358.127-403.282,358.127-403.282c10.963-47.06,17.33-99.671,20.791-151.335
		H2141.203z"/>
	<g>
		<path fill="#FFFFFF" d="M1771.381,3052.398c39.213-0.441,87.146-28.398,104.756-93.398h-208.481
			C1685.755,3024,1734.041,3051.979,1771.381,3052.398z"/>
		<path fill="#DF3655" d="M1884.183,2955.75c-0.726-0.937-1.843-1.484-3.028-1.484h-218.569c-1.19,0-2.314,0.554-3.038,1.498
			c-0.726,0.945-0.97,2.174-0.663,3.323c17.89,66.867,71.269,103.438,112.497,103.9c43.234-0.487,96.099-36.343,113.485-103.937
			C1885.16,2957.905,1884.908,2956.685,1884.183,2955.75z M1771.381,3055.325c-37.34-0.419-85.627-33.241-103.726-93.398h208.481
			C1858.527,3022.694,1810.595,3054.884,1771.381,3055.325z"/>
		<g>
			<path fill="#F39AA2" d="M1868.647,2982.358h-193.258c8.906,23.198,29.125,42.458,43.37,54.057h106.682
				C1842.741,3024.71,1858.915,3005.343,1868.647,2982.358z"/>
		</g>
	</g>
	<path fill="#C39A6E" d="M1787.632,2799.771c0,0-6.238,7.299-15.457,7.199c-9.22,0.1-15.457-7.199-15.457-7.199
		c-21.698-13.271-24.958,4.286-24.958,4.286c1.146,10.386,25.464,6.211,25.464,6.211c5.023,4.979,10.319,6.268,14.952,5.961
		c4.632,0.307,9.928-0.982,14.951-5.961c0,0,24.318,4.176,25.464-6.211C1812.59,2804.057,1809.33,2786.5,1787.632,2799.771z"/>
	<path fill="#EFEEEF" d="M1520.241,3276.417c0.308-0.014,0.625-0.038,0.933-0.051l82.491,425.8l0.579,2.956l66.724,344.42
		l30.378,156.847h144.81l26.371-136.131l70.48-363.805l82.492-426.35c-20.815-8.234-42.214-14.613-64.604-18.072
		c0,0,17.079,110.617-163.78,115.247c-203.184,5.202-205.545-115.247-205.545-115.247c-25.031,2.555-48.989,7.667-72.32,14.391
		c0.326-0.018,0.652-0.042,0.979-0.059L1520.241,3276.417z"/>
	<path fill="#221E1B" d="M1670.965,4049.566l-67.301-347.4l-83.423-425.749c-0.395,0.018-0.799,0.046-1.196,0.065
		c-1.734,0.085-3.469,0.172-5.228,0.285c-168.828,10.788-453.659,145.934-483.609,179.455c0.756,3.689,1.499,7.379,2.241,11.069
		l-144.532,739.097h478.981h233.411h60.088h40.948L1670.965,4049.566z"/>
	<path fill="#443C3B" d="M2025.669,3279.791c-0.036-0.002-0.072-0.005-0.109-0.007l-0.062,0.318c0.034,0.013,0.068,0.027,0.103,0.04
		L2025.669,3279.791z"/>
	<path fill="#221E1B" d="M2517.627,3470.236l-1.541-7.882c0.184-0.905,0.364-1.813,0.55-2.717
		c-30.389-34.013-323.196-172.646-490.966-179.856l-0.002,0.009l-0.068,0.352l-153.074,790.125v0.001l-26.372,136.119h35.544h90.705
		h341.804h347.376L2517.627,3470.236z"/>
	<path fill="#524743" d="M2006.925,2584.295c0,18.534-15.01,33.54-33.589,33.54c-18.524,0-33.548-15.006-33.548-33.54
		c0-18.543,15.025-33.571,33.548-33.571C1991.915,2550.725,2006.925,2565.753,2006.925,2584.295z"/>
	<circle fill="#FFFFFF" cx="1983.281" cy="2574.679" r="11.583"/>
</g>
<g id="Layer_6">
	<path fill="#E3C2A5" d="M3701.675,3378.948l-210.3-77.628c-157.476-51.828-123.589-142.412-123.589-142.412h-161.892h-2.544
		h-161.892c0,0,33.887,90.585-123.589,142.412l-210.3,77.684l497.053-5.272L3701.675,3378.948z"/>
	<rect x="2707.569" y="3379.005" fill="#EFEEEF" width="1038.329" height="791.915"/>
	<path fill="#D54A30" d="M3266.735,3473.256c-2.754,5.355-14.498,9.379-26.432,9.379h-79.231c-11.934,0-23.678-4.024-26.432-9.379
		l-45.34-88.164c-8.821-17.152,3.231-33.188,28.27-33.188h166.236c25.039,0,37.091,16.035,28.27,33.188L3266.735,3473.256z"/>
	<path fill="#D9B69A" d="M3203.366,3203.682l-240.729,198.695l-216.646-82.312l309.535-58.49l-23.661-49.281
		c0,0,18.48-12.467,10.964-48.657C3042.828,3163.638,3115.705,3204.016,3203.366,3203.682z"/>
	<path fill="#FFFFFF" d="M3043.689,3191.468c1.848,0.341,160.218,160.436,160.218,160.436l-240.652,138.468l-55.301-204.377
		L3043.689,3191.468z"/>
	<path fill="#FFFFFF" d="M3365.551,3191.468c-1.848,0.341-162.722,160.436-162.722,160.436l243.159,138.468l50.167-204.596
		L3365.551,3191.468z"/>
	<path fill="#E3C2A5" d="M2814.649,2610.881c1.569,45.39-7.704,84.958-31.155,85.768c-23.451,0.81-40.442-35.443-42.011-80.833
		c-1.569-45.391,16.44-82.853,39.891-83.664C2804.825,2531.342,2813.08,2565.49,2814.649,2610.881z"/>
	<path fill="#E3C2A5" d="M3595.173,2610.881c-1.569,45.39,7.704,84.958,31.155,85.768c23.451,0.81,40.442-35.443,42.011-80.833
		c1.569-45.391-16.44-82.853-39.891-83.664C3604.996,2531.342,3596.741,2565.49,3595.173,2610.881z"/>
	<ellipse fill="#F4DBC0" cx="3206.12" cy="2625.419" rx="418.704" ry="584.395"/>
	<g>
		<g>
			<path fill="#E3C2A5" d="M3206,2040.406v1168.79c-231,0-418.704-261.643-418.704-584.395S2975,2040.406,3206,2040.406z"/>
		</g>
	</g>
	<path fill="#39261A" d="M3410.863,2928.902c-18.135,46.29-35.068,82.714-35.068,82.714c15.644-99.882-15.62-128.365-15.62-128.365
		c-12-12.885-38.812-22.468-66.815-29.337c-57.682-14.15-118.062-14.13-175.762-0.06c-28.166,6.868-55.198,16.466-67.241,29.397
		c0,0-31.263,28.483-15.62,128.365c0,0-16.933-36.424-35.068-82.714c0,0-151.176-131.858-201.373-170.559
		c0,0,32.227,202.906,148.901,326.359c0,0,101.472,125.112,256.455,125.112c178.391,0,287.552-156.382,287.552-156.382
		c99.5-126.122,127.059-310.179,127.059-310.179C3568.066,2781.953,3410.863,2928.902,3410.863,2928.902z M3316.538,3081.004
		c-11.907,14.238-28.577,21.969-46.134,22.194c-43.901,0.559-65.14-39.223-65.14-39.223s-21.239,39.782-65.14,39.223
		c-17.557-0.225-34.227-7.957-46.134-22.194c-16.621-19.875-36.817-59.902-37.252-137.684c0,0,22.905-58.351,150.71-58.352
		c131.609,0,146.341,58.352,146.341,58.352C3353.355,3021.102,3333.16,3061.128,3316.538,3081.004z"/>
	<g>
		<path fill="#39261A" d="M2803.581,2672.473c0,0,20.439-209.623,42.681-320.863c0,0,132.084-243.681,458.66,8.101
			c0,0,173.755,138.914,263.774,22.792c0,0,35.063,204.246,36.601,304.904l8.641,70.937
			c61.926-207.354,24.102-430.376,24.102-430.376c-82.428-354.068-410.575-328.022-410.575-328.022
			c-246.502-25.233-379.958,118.836-379.958,118.836c-90.279,63.489-32.972,159.535-32.972,159.535
			c-50.242,4.884-54.167,46.395-54.167,46.395c-21.261,193.99,37.002,427.95,37.002,427.95
			C2799.041,2745.121,2802.075,2680.031,2803.581,2672.473z"/>
	</g>
	<g>
		<path fill="#FFFFFF" d="M3206.767,3042.316c41.698-0.469,92.667-39.316,111.393-99.316h-221.691
			C3115.715,3003,3167.061,3041.87,3206.767,3042.316z"/>
		<path fill="#DF3655" d="M3326.715,2936.182c-0.772-0.996-1.96-1.578-3.219-1.578h-232.418c-1.265,0-2.461,0.589-3.23,1.593
			c-0.772,1.005-1.032,2.311-0.706,3.534c19.023,71.103,75.784,109.991,119.625,110.483
			c45.973-0.517,102.188-38.646,120.675-110.522C3327.755,2938.473,3327.487,2937.177,3326.715,2936.182z M3206.767,3042.067
			c-39.706-0.445-91.052-35.347-110.298-99.316h221.691C3299.434,3007.368,3248.465,3041.598,3206.767,3042.067z"/>
		<g>
			<path fill="#F39AA2" d="M3310.195,2964.477h-205.504c9.471,24.667,30.97,45.148,46.118,57.482h113.442
				C3282.648,3009.512,3299.847,2988.918,3310.195,2964.477z"/>
		</g>
	</g>
	<path fill="#5B3E2D" d="M3122.572,2505.876l-91.26-19.231c-16.293-3.434-32.984-3.434-49.277,0l-91.26,19.231
		c-4.864,1.025-9.98-0.763-13.2-5.128c-2.096-2.841-3.366-6.529-3.366-10.545l0,0c-1.921-15.876,68.917-28.479,68.917-28.479
		c12.356-2.355,46.644-9.877,106.485-2.817c0,0,94.532,11.389,89.529,31.296l0,0c0,4.016-1.271,7.704-3.366,10.545
		C3132.552,2505.113,3127.436,2506.901,3122.572,2505.876z"/>
	<path fill="#5B3E2D" d="M3525.63,2502.23l-91.26-19.231c-16.293-3.434-32.984-3.434-49.277,0l-91.26,19.231
		c-4.864,1.025-9.98-0.763-13.2-5.128c-2.096-2.841-3.366-6.529-3.366-10.545l0,0c-1.921-15.876,68.917-28.479,68.917-28.479
		c12.356-2.355,46.645-9.877,106.485-2.817c0,0,94.532,11.389,89.529,31.296l0,0c0,4.016-1.27,7.704-3.366,10.545
		C3535.61,2501.467,3530.494,2503.255,3525.63,2502.23z"/>
	<g>
		<path fill="#FBF6EE" d="M3092.441,2564.222c0,0-38.448,47.744-86.043,47.744c-47.443,0-85.939-47.744-85.939-47.744
			s38.496-47.779,85.939-47.779C3053.993,2516.443,3092.441,2564.222,3092.441,2564.222z"/>
		<path fill="#524743" d="M3039.081,2564.219c0,18.016-14.59,32.603-32.65,32.603c-18.006,0-32.611-14.587-32.611-32.603
			c0-18.025,14.605-32.633,32.611-32.633C3024.491,2531.587,3039.081,2546.195,3039.081,2564.219z"/>
		<circle fill="#FFFFFF" cx="3016.098" cy="2554.871" r="11.26"/>
	</g>
	<g>
		<path fill="#FBF6EE" d="M3312.175,2561.371c0,0,38.448,47.744,86.043,47.744c47.443,0,85.939-47.744,85.939-47.744
			s-38.496-47.779-85.939-47.779C3350.623,2513.592,3312.175,2561.371,3312.175,2561.371z"/>
		<path fill="#524743" d="M3365.535,2561.368c0,18.017,14.59,32.603,32.65,32.603c18.006,0,32.611-14.587,32.611-32.603
			c0-18.024-14.605-32.633-32.611-32.633C3380.125,2528.735,3365.535,2543.344,3365.535,2561.368z"/>
		<circle fill="#FFFFFF" cx="3407.839" cy="2553.196" r="11.26"/>
	</g>
	<path fill="#C39A6E" d="M3224.58,2786.257c0,0-8.761,10.251-21.709,10.111c-12.948,0.14-21.709-10.111-21.709-10.111
		c-30.474-18.639-35.053,6.019-35.053,6.019c1.609,14.587,35.764,8.723,35.764,8.723c7.054,6.993,14.493,8.804,20.999,8.373
		c6.505,0.431,13.944-1.379,20.999-8.373c0,0,34.155,5.865,35.764-8.723C3259.634,2792.276,3255.055,2767.617,3224.58,2786.257z"/>
	<polygon fill="#D54A30" points="3288.767,4260.388 3312.585,4151.786 3286.314,3762.043 3266.733,3471.422 3134.203,3471.422 
		3114.621,3762.043 3090.719,4116.373 3119.922,4260.388 	"/>
	<path fill="#366592" d="M3090.719,4116.373l-72.367-356.884l-104.197-477.812c-61.973,0-110.371,22.029-128.598,27.061l0.014-0.181
		c-177.808,43.162-356.78,161.008-375.769,191.114s-246.941,760.716-246.941,760.716h416.198l9.29-25.54l72.523-184.642
		c6.554,54.908,11.441,122.31,14.996,195.78c0.231,4.766,0.45,9.587,0.669,14.402h310.01h8.434h85.957h31.482h7.502
		L3090.719,4116.373z"/>
	<path fill="#366592" d="M4005.966,3499.671c-18.989-30.106-197.961-147.952-375.769-191.114l-0.001-0.005
		c-13.535-4.574-98.903-24.432-138.992-24.99l-92.58,475.927l-86.038,392.297l-23.819,108.602h15.563h15.641h100.817h318.443
		c0.219-4.815,0.438-9.636,0.669-14.402c3.555-73.47,8.442-140.871,14.996-195.78l72.523,184.642l9.29,25.54h416.198
		C4252.906,4260.388,4024.955,3529.777,4005.966,3499.671z"/>
</g>
<g id="Layer_3">
	<polygon fill="#E3C2A5" points="1041.567,3801.257 876.3,3801.257 919.428,3874.925 1112.67,4066.158 1353.452,3814.005 	"/>
	<path fill="#E3C2A5" d="M1232.476,3563.428l-216.439-0.167c0,0,70.987,209.024-190.272,249.695l306.756,51.655l301.418-51.764
		C1205.768,3798.371,1232.476,3563.428,1232.476,3563.428z"/>
	<ellipse fill="#F4DBC0" cx="1121.496" cy="3197.933" rx="305.745" ry="396.457"/>
	<path fill="#E3C2A5" d="M1119.406,2804.948l1.318,789.442c-168.905,0.072-307.166-173.984-307.166-392.985
		S950.501,2804.876,1119.406,2804.948z"/>
	<path fill="#FBF6EE" d="M1053.698,3209.565c0,0-31.878,39.584-71.338,39.584c-39.335,0-71.252-39.584-71.252-39.584
		s31.917-39.614,71.252-39.614C1021.82,3169.951,1053.698,3209.565,1053.698,3209.565z"/>
	<path fill="#524743" d="M1009.457,3209.562c0,14.938-12.097,27.031-27.07,27.031c-14.929,0-27.038-12.094-27.038-27.031
		c0-14.944,12.109-27.056,27.038-27.056C997.36,3182.507,1009.457,3194.618,1009.457,3209.562z"/>
	<path fill="#805730" d="M989.503,3250.47c26.111-3.17,44.041-20.29,57.493-30.273c-12.975,11.254-30.415,29.145-56.426,32.297
		c-25.213,3.065-47.646-8.839-68.737-15.51C942.253,3242.397,964.307,3253.535,989.503,3250.47z"/>
	<path fill="#805730" d="M888.131,3169.577c9.353,1.198,19.656,2.167,31.342,0.112c11.691-2.052,20.611-6.528,20.611-6.528
		l-0.071,0.076c7.906-4.522,17.379-7.898,28.119-9.573c37.645-5.876,75.908,36.25,83.35,50.609
		c-0.055-0.177-12.668-18.787-28.193-27.055c-15.967-8.504-31.612-13.421-50.545-10.468c-37.114,5.792-62.054,34.021-70.197,47.942
		c1.313-4.86,12.327-23.166,17.349-32.143c-2.119,0.665-12.85,3.598-24.491-1.001c-12.988-5.13-20.782-14.196-20.782-14.196
		S878.784,3168.379,888.131,3169.577z"/>
	<path fill="#FBF6EE" d="M1201.732,3209.565c0,0,31.878,39.584,71.338,39.584c39.335,0,71.252-39.584,71.252-39.584
		s-31.917-39.614-71.252-39.614C1233.609,3169.951,1201.732,3209.565,1201.732,3209.565z"/>
	<path fill="#524743" d="M1245.972,3209.562c0,14.938,12.097,27.031,27.07,27.031c14.929,0,27.038-12.094,27.038-27.031
		c0-14.944-12.109-27.056-27.038-27.056C1258.069,3182.507,1245.972,3194.618,1245.972,3209.562z"/>
	<path fill="#805730" d="M1265.927,3250.47c-26.111-3.17-44.041-20.29-57.493-30.273c12.974,11.254,30.415,29.145,56.426,32.297
		c25.213,3.065,47.646-8.839,68.737-15.51C1313.177,3242.397,1291.123,3253.535,1265.927,3250.47z"/>
	<path fill="#805730" d="M1367.298,3169.577c-9.353,1.198-19.656,2.167-31.343,0.112c-11.691-2.052-20.611-6.528-20.611-6.528
		l0.071,0.076c-7.906-4.522-17.379-7.898-28.119-9.573c-37.645-5.876-75.907,36.25-83.35,50.609
		c0.055-0.177,12.668-18.787,28.193-27.055c15.968-8.504,31.612-13.421,50.545-10.468c37.114,5.792,62.054,34.021,70.197,47.942
		c-1.313-4.86-12.327-23.166-17.349-32.143c2.119,0.665,12.85,3.598,24.491-1.001c12.988-5.13,20.782-14.196,20.782-14.196
		S1376.646,3168.379,1367.298,3169.577z"/>
	<g>
		<path fill="#FFFFFF" d="M1118.897,3528.758c33.906-0.382,75.352-31.758,90.579-80.758h-180.268
			C1044.859,3497,1086.61,3528.396,1118.897,3528.758z"/>
		<path fill="#DF3655" d="M1216.433,3441.087c-0.628-0.81-1.594-1.283-2.618-1.283h-188.991c-1.029,0-2.001,0.479-2.627,1.295
			c-0.628,0.817-0.839,1.879-0.574,2.874c15.469,57.818,61.624,89.439,97.273,89.84c37.383-0.421,83.094-31.425,98.127-89.871
			C1217.278,3442.95,1217.061,3441.896,1216.433,3441.087z M1118.897,3527.187c-32.287-0.362-74.039-28.743-89.689-80.758h180.268
			C1194.249,3498.972,1152.804,3526.805,1118.897,3527.187z"/>
		<g>
			<path fill="#F39AA2" d="M1203,3464.094h-167.105c7.701,20.058,25.183,36.712,37.5,46.741h92.245
				C1180.599,3500.715,1194.585,3483.969,1203,3464.094z"/>
		</g>
	</g>
	<path fill="#AA3117" d="M1256.217,2914.204c0,0-227.338,110.028-353.548,122.471c0,0-91.902,14.211-83.903,119.978
		c7.999,105.768,36.165,235.843,42.241,252.286c10.032,27.152,49.951,242.99-11.376,315.872c0,0,29.331-199.98-33.774-258.641
		c0,0-103.99-163.539-114.655-342.188c0,0,0.889-298.637,161.762-433.735c0,0,200.869-181.315,482.619-32.886
		c0,0,146.652,56.883,210.646,278.195c0,0,43.551,92.435-55.106,311.969s-90.658,239.088-99.546,277.306
		c0,0-16.887,134.209,55.994,215.09c0,0-171.665-177.502-103.227-285.047s77.506-243.118,74.887-267.36
		C1429.23,3187.514,1410.868,2938.201,1256.217,2914.204z"/>
	<path fill="#302D2A" d="M1452.249,3105.729c0,7.157-0.324,14.448,0.077,21.7c0.573,10.365-0.071,19.352-11.803,24.181
		c-3.446,1.418-6.262,6.995-7.312,11.181c-6.294,25.101-11.922,50.367-17.934,75.54c-1.348,5.645-3.523,11.089-4.992,16.71
		c-6.6,25.255-23.909,38.879-47.688,47.718c-27.919,10.377-56.927,13.019-85.363,9.684c-44.247-5.189-81.8-25.144-104.433-65.688
		c-10.287-18.428-18.827-38.037-26.136-57.856c-5.877-15.938-15.648-23.11-31.889-21.593c-12.411,1.16-17.33,4.373-21.532,16.665
		c-7.898,23.106-14.987,46.406-28.107,67.488c-19.348,31.089-46.269,49.804-81.828,59.192c-27.547,7.272-55.183,5.851-81-0.124
		c-30.395-7.034-58.708-22.175-67.54-57.803c-6.222-25.101-14.059-49.799-20.9-74.752c-2.684-9.791-6.239-18.475-15.385-24.401
		c-3.054-1.979-5.275-6.856-5.853-10.712c-1.246-8.32-0.96-16.856-1.731-25.264c-0.509-5.558,1.792-7.98,7.08-8.629
		c40.744-5.006,81.367-11.485,122.247-14.766c43.256-3.471,85.977,4.261,128.403,12.188c18.181,3.397,36.049,8.611,54.3,11.453
		c26.255,4.088,51.463-3.924,76.718-9.347c39.333-8.447,78.766-17.181,119.063-17.358c33.407-0.147,66.845,3.041,100.238,5.222
		c13.062,0.853,26.079,2.729,39.035,4.679C1442.726,3101.751,1447.232,3104.029,1452.249,3105.729z M1404.261,3150.233
		c0,0-19.364-34.615-41.292-39.478c-39.547-8.772-79.35-8.062-118.926-0.958c-16.774,3.011-33.509,7.741-49.371,13.961
		c-20.276,7.95-30.153,24.817-29.514,44.174c0.802,24.326,7.087,47.414,19.226,68.085c15.289,26.035,32.117,50.469,66.09,56.471
		c27.548,4.867,54.739,8.186,82.363,3.28c36.497-6.482,61.133-26.845,68.67-63.945c3.858-18.99,4.954-38.573,6.69-57.942
		c0.482-5.377-2.224-18.875-2.224-18.875L1404.261,3150.233z M944.513,3104.674c-20.983,2.906-42.437,3.968-62.834,9.17
		c-27.421,6.994-41.502,23.247-43.669,49.819c-2.338,28.677,2.637,56.224,12.447,83.004c8.338,22.759,24.153,38.33,47.476,44.976
		c16.119,4.593,32.598,9.21,49.181,10.558c21.02,1.709,42.102-1.938,60.502-13.187c34.746-21.243,54.907-52.882,61.958-92.686
		c2-11.288,3.508-23.267,1.921-34.459c-3.225-22.748-18.596-35.979-39.772-42.868
		C1003.479,3109.813,974.322,3106.819,944.513,3104.674z"/>
	<path fill="#1C3542" d="M1158.719,2698.898c-5.885,0.092-11.776,0.042-17.66-0.102v-0.016c-0.164,0.004-0.328,0.004-0.492,0.008
		c-0.165-0.004-0.329-0.004-0.493-0.008v0.016c-5.884,0.144-11.775,0.194-17.66,0.102c-48.324-0.751-279.152,17.99-337.209,337.777
		h20.831c0,0,41.54-210.204,243.607-264.527c15.924-4.281,79.222-8.01,90.268-7.522c41.469,1.833,62.782,0.29,91.425,10.705
		c197.147,71.69,232.613,261.344,232.613,261.344h22.278C1400.901,2711.48,1207.043,2698.147,1158.719,2698.898z"/>
	<path fill="#D9B69A" d="M1023.872,3604.037l262.495,144.833c0,0-62.371-59.395-54.255-181.222c0,0-104.035,56.977-213.561,4.582
		C1018.55,3572.23,1023.032,3590.908,1023.872,3604.037z"/>
	<path fill="#53555D" d="M757.019,4289.456c0.114,0.032,0.228,0.38,0.343,0.412l6.441,111.337h718.885l5.211-110.298l39.203,110.298
		h264.853l-141.297-420.782c-1.103-3.109-2.379-6.175-3.784-9.076c-33.698-92.382-121.243-158.729-223.257-158.729l-170.011,31.29
		c-85.709,15.776-173.491,15.866-259.232,0.268l-173.476-31.558c-102.014,0-189.559,66.347-223.257,158.729
		c-1.405,2.901-2.68,5.967-3.785,9.076L452.56,4401.205h264.756L757.019,4289.456z"/>
	<circle fill="#FFFFFF" cx="993.274" cy="3203.353" r="8"/>
	<circle fill="#FFFFFF" cx="1284.376" cy="3203.353" r="8"/>
</g>
<g id="Layer_4">
	<rect x="3525.74" y="2997.356" fill="#AA3117" width="694.525" height="925.103"/>
	<ellipse fill="#F4DBC0" cx="3890.163" cy="3210.852" rx="304.941" ry="395.415"/>
	<path fill="#E3C2A5" d="M3888.078,2818.9l1.314,787.366c-168.46,0.072-306.358-173.526-306.358-391.952
		S3719.617,2818.828,3888.078,2818.9z"/>
	<path fill="#FBF6EE" d="M3817.049,3222.312c0,0-34.16,42.418-76.445,42.418c-42.151,0-76.353-42.418-76.353-42.418
		s34.202-42.45,76.353-42.45C3782.889,3179.862,3817.049,3222.312,3817.049,3222.312z"/>
	<path fill="#33302D" d="M3769.641,3222.309c0,16.007-12.963,28.966-29.009,28.966c-15.998,0-28.974-12.959-28.974-28.966
		c0-16.014,12.976-28.993,28.974-28.993C3756.678,3193.316,3769.641,3206.295,3769.641,3222.309z"/>
	<path fill="#805730" d="M3748.258,3266.146c27.98-3.397,47.193-21.743,61.609-32.44c-13.903,12.059-32.592,31.231-60.466,34.609
		c-27.018,3.285-51.057-9.472-73.657-16.621C3697.625,3257.494,3721.259,3269.43,3748.258,3266.146z"/>
	<path fill="#FBF6EE" d="M3975.68,3222.312c0,0,34.16,42.418,76.445,42.418c42.151,0,76.353-42.418,76.353-42.418
		s-34.202-42.45-76.353-42.45C4009.84,3179.862,3975.68,3222.312,3975.68,3222.312z"/>
	<path fill="#33302D" d="M4023.088,3222.309c0,16.007,12.963,28.966,29.009,28.966c15.998,0,28.974-12.959,28.974-28.966
		c0-16.014-12.976-28.993-28.974-28.993C4036.051,3193.316,4023.088,3206.295,4023.088,3222.309z"/>
	<path fill="#805730" d="M4044.471,3266.146c-27.98-3.397-47.193-21.743-61.609-32.44c13.903,12.059,32.592,31.231,60.466,34.609
		c27.018,3.285,51.057-9.472,73.658-16.621C4095.104,3257.494,4071.471,3269.43,4044.471,3266.146z"/>
	<g>
		<path fill="#FFFFFF" d="M3887.57,3536.546c33.817-0.381,75.154-20.546,90.341-80.546h-179.793
			C3813.726,3509,3855.368,3536.185,3887.57,3536.546z"/>
		<path fill="#DF3655" d="M3984.85,3453.366c-0.626-0.808-1.589-1.28-2.611-1.28h-188.494c-1.026,0-1.996,0.478-2.62,1.292
			c-0.626,0.815-0.837,1.874-0.572,2.866c15.428,57.666,61.462,89.204,97.017,89.603c37.285-0.419,82.875-31.342,97.869-89.635
			C3985.693,3455.225,3985.476,3454.173,3984.85,3453.366z M3887.57,3539.24c-32.202-0.361-73.844-28.667-89.452-80.546h179.793
			C3962.724,3511.099,3921.388,3538.859,3887.57,3539.24z"/>
		<g>
			<path fill="#F39AA2" d="M3971.452,3476.313h-166.666c7.681,20.006,25.117,36.616,37.402,46.618h92.003
				C3949.111,3512.837,3963.059,3496.135,3971.452,3476.313z"/>
		</g>
	</g>
	<path fill="#AA3117" d="M4382.051,3958.13c0,0-76.377-209.201-83.208-343.941c0,0,10.936-452.084,12.751-563.273
		c0,0-1.118-169.059-90.587-290.938c0,0-53.681-85.512-135.322-81.581c0,0-52.562-92.392-149.859-103.204
		c0,0-16.851-2.193-47.673-2.193s-47.673,2.193-47.673,2.193c-97.297,10.812-161.943,58.291-161.943,58.291
		c-78.374,49.295-128.8,121.939-128.8,121.939c-89.468,121.879-85.025,295.492-85.025,295.492
		c1.815,111.189,12.75,563.273,12.75,563.273c-6.83,134.74-83.207,343.941-83.207,343.941l-62.628,425.595
		c86.113,83.546,314.258,6.88,314.258,6.88c89.181-27.482,112.264-56.454,112.264-56.454
		c-46.971-166.109-103.283-600.617-103.283-600.617c-15.115-189.045,1.215-256.419,1.215-256.419
		c-60.147-65.942-72.455-182.044-72.455-182.044c-15.639-214.691,49.021-297.714,49.021-297.714
		c91.459,32.057,177.095,38.044,255.505,35.425c78.41,2.619,166.798-4.309,258.257-36.366c0,0,61.908,83.964,46.27,298.656
		c0,0-12.309,116.102-72.456,182.044c0,0,16.33,67.374,1.215,256.419c0,0-56.312,434.508-103.283,600.617
		c0,0,24.787,27.242,112.264,56.454c0,0,228.145,76.667,314.258-6.88L4382.051,3958.13z"/>
	<polygon fill="#E3C2A5" points="3810.443,3812.589 3641.47,3820.441 3600.12,3932.421 3860.814,4117.934 4104.898,4023.477 
		4161.579,3820.441 	"/>
	<path fill="#1C3542" d="M3910.423,2689.779c-5.869,0.091-11.744,0.042-17.613-0.102v-0.017c-0.164,0.005-0.327,0.004-0.491,0.008
		c-0.165-0.004-0.328-0.004-0.492-0.008v0.017c-5.868,0.143-11.743,0.193-17.613,0.102
		c-48.198-0.749-278.418,17.943-336.322,336.889h20.776c0,0,41.431-209.651,242.966-263.832c15.882-4.27,79.013-7.99,90.03-7.503
		c41.36,1.828,62.617,0.289,91.185,10.677c196.629,71.501,232.001,260.657,232.001,260.657h22.219
		C4151.969,2702.328,3958.621,2689.03,3910.423,2689.779z"/>
	<path fill="#E3C2A5" d="M4000.411,3579.647c0,0-53.208,26.583-110.973,26.583c-54.56,0-100.578-21.496-100.578-21.496
		s89.199,179.933-147.389,235.707l260.666,114.625l259.442-114.625C3949.555,3803.584,4000.411,3579.647,4000.411,3579.647z"/>
	<path fill="#D9B69A" d="M3800.76,3620.512l245.011,154.077c0,0-70.802-57.527-45.36-194.942c0,0-107.319,56.442-211.524,5.142
		C3788.886,3584.789,3796.214,3599.986,3800.76,3620.512z"/>
	<path fill="#65462E" d="M3972.809,3142.306c0,0-2.156,9.488,6.038,14.232c0,0,95.74-38.813,164.742,0
		C4143.589,3156.538,4122.457,3106.943,3972.809,3142.306z"/>
	<path fill="#65462E" d="M3807.875,3142.306c0,0,2.156,9.488-6.038,14.232c0,0-95.74-38.813-164.742,0
		C3637.096,3156.538,3658.228,3106.943,3807.875,3142.306z"/>
	<path fill="#C39A6E" d="M3901.413,3398.646c0,0-5.436,6.361-13.471,6.274c-8.035,0.087-13.471-6.274-13.471-6.274
		c-18.91-11.566-21.751,3.735-21.751,3.735c0.999,9.052,22.192,5.413,22.192,5.413c4.378,4.339,8.994,5.463,13.03,5.195
		c4.037,0.268,8.653-0.856,13.03-5.195c0,0,21.194,3.639,22.192-5.413C3923.164,3402.382,3920.323,3387.081,3901.413,3398.646z"/>
	<circle fill="#FFFFFF" cx="3750.742" cy="3212.583" r="7.139"/>
	<circle fill="#FFFFFF" cx="4063.072" cy="3212.583" r="7.139"/>
	<path fill="#E8C19D" d="M4473,4101.465c0-193.043-226.902-212.157-226.902-212.157l33.394,334.374
		c1.724,67.567,14.044,146.318,25.859,213.318H4473V4101.465z"/>
	<path fill="#E8C19D" d="M3524.093,4223.682l33.253-334.15c0,0-227.346,18.89-227.346,211.933V4437h168.526
		C3510.336,4370,3522.368,4291.25,3524.093,4223.682z"/>
	<path fill="#798368" d="M4327.281,4155.909l158.521-37.434l-21.143-103.071c-9.598-45.51-66.697-93.198-120.268-110.52
		l-50.384-24.443c-0.673-0.385-1.345-0.77-2.099-1.156c-6.889-3.844-16.797-8.558-29.058-14.036
		c-25.532-11.443-61.38-26.442-101.271-44.809c-37.919,27.236-117.917,208.227-260.171,228.626
		c-142.254-20.399-222.02-201.39-259.938-228.626c-39.892,18.367-75.507,33.366-101.039,44.809
		c-12.26,5.479-22.168,10.192-29.057,14.036c-0.755,0.386-1.427,0.771-2.099,1.156l-54.313,28.973
		c-8.556,5.036-16.056,9.717-22.656,14.125c-43.685,22.291-83.596,61.126-91.478,98.496l-21.143,103.071l156.369,36.926
		c0.179,18.457,0.432,38.269,0.631,66.954c-22.254,34.901-35.78,79.708-35.78,128.456c0,27.921,4.411,54.492,12.35,78.659h896.752
		c7.941-24.167,12.354-50.738,12.354-78.659c0-48.747-13.519-93.555-35.773-128.456
		C4326.811,4197.109,4327.101,4176.188,4327.281,4155.909z"/>
	<path fill="#2B2825" d="M4236.162,3141.309c0.139-1.95-4.137-9.835-5.627-10.808c-17.905-11.698-28.638-23.858-54.043-23.974
		c-24.208-0.11-48.442-0.908-72.617-0.176c-59.488,1.803-118.986,4.432-178.466,6.474c-11.822,0.406-24.007,0.916-35.559,1.125
		c-11.553-0.21-23.418-0.719-35.24-1.125c-59.48-2.042-118.819-4.671-178.306-6.474c-24.174-0.733-48.33,0.065-72.537,0.176
		c-25.405,0.115-36.098,12.276-54.002,23.974c-1.49,0.973-5.747,8.859-5.607,10.808c1.524,21.223-8.674,42.08,15.154,57.946
		c6.995,8.347,6.986,25.078,9.326,35.843c8.143,37.469,35.912,57.734,75.875,63.361c47.475,9.361,118.979,6.437,133.581,3.649
		c18.134-2.009,34.187-13.121,43.231-25.572c12.43-17.111,23.268-35.167,33.933-53.205c6.001-10.15,10.063-21.054,15.034-31.665
		c3.713-7.926,9.451-11.356,19.56-11.34c10.109-0.016,16.166,3.414,19.879,11.34c4.971,10.611,9.352,21.516,15.353,31.665
		c10.664,18.039,21.503,36.094,33.933,53.205c9.044,12.451,25.097,23.563,43.231,25.572c14.603,2.788,86.107,5.712,133.581-3.649
		c39.963-5.627,67.732-25.892,75.875-63.361c2.34-10.764,2.332-27.495,9.326-35.843
		C4244.855,3183.389,4234.637,3162.532,4236.162,3141.309z M3847.708,3186.531c-4.395,26.652-16.847,50.557-34.159,72.377
		c-12.048,15.184-29.143,23.772-50.324,27.382c-39.204,6.682-78.088,3.434-116.854-1.447c-25.189-3.171-42.075-16.673-49.251-38.322
		c-10.569-31.887-12.78-64.29-6.915-97.2c2.34-13.127,9.612-22.092,24.61-23.488c27.346-2.545,65.135-3.642,81.742-4.125
		c15.487,0,32.049-0.232,47.323,1.349c23.386,2.421,47.29,4.667,69.541,10.924
		C3840.58,3141.615,3851.799,3161.719,3847.708,3186.531z M4183.217,3246.52c-7.176,21.649-24.062,35.151-49.25,38.322
		c-38.766,4.881-77.65,8.128-116.854,1.447c-21.181-3.61-38.277-12.197-50.324-27.382c-17.312-21.82-29.764-45.724-34.159-72.377
		c-4.092-24.812,7.128-44.916,34.287-52.552c22.251-6.256,46.155-8.502,69.541-10.924c15.275-1.581,31.836-1.349,47.323-1.349
		c16.607,0.483,54.396,1.58,81.742,4.125c14.997,1.396,22.27,10.361,24.609,23.488
		C4195.998,3182.23,4193.786,3214.633,4183.217,3246.52z"/>
</g>
<g id="Layer_7">
	<path fill="#E3C2A5" d="M2962.349,3977.041l-209.59-59.408c-157.399-96.19-124.136-348.98-124.136-348.98h-161.813h-2.543h-161.813
		c0,0,24.858,245.736-132.541,341.926l-201.186,66.568l496.811-9.786L2962.349,3977.041z"/>
	<rect x="1971.441" y="3883.554" fill="#EFEEEF" width="1025.986" height="782.501"/>
	<path fill="#D54A30" d="M2523.959,3976.686c-2.721,5.292-14.325,9.268-26.118,9.268h-78.289c-11.792,0-23.396-3.976-26.118-9.268
		l-44.801-87.116c-8.716-16.948,3.192-32.793,27.934-32.793h164.26c24.741,0,36.65,15.844,27.934,32.793L2523.959,3976.686z"/>
	<path fill="#FFFFFF" d="M2303.565,3698.248c1.826,0.337,158.313,158.529,158.313,158.529l-237.791,136.822l-54.644-201.947
		L2303.565,3698.248z"/>
	<path fill="#FFFFFF" d="M2621.601,3698.248c-1.826,0.337-160.788,158.529-160.788,158.529l240.268,136.822l49.571-202.163
		L2621.601,3698.248z"/>
	<polygon fill="#D54A30" points="2545.729,4754.46 2569.265,4647.149 2543.306,4262.04 2523.958,3974.873 2393.004,3974.873 
		2373.654,4262.04 2350.037,4612.157 2378.892,4754.46 	"/>
	<path fill="#2E2E28" d="M2814.909,4200.25l130.603,55.685l-269.332,498.525h314.658c0.217-4.758,0.433-9.522,0.661-14.231
		c3.513-72.597,8.342-139.197,14.818-193.453l71.66,182.447l9.18,25.236h411.25c0,0-225.242-721.925-244.005-751.673
		c-18.763-29.748-195.608-146.193-371.302-188.842l27.14,353.155L2814.909,4200.25z"/>
	<path fill="#2E2E28" d="M2116.708,4200.25l-130.603,55.685l269.332,498.525h-314.658c-0.217-4.758-0.433-9.522-0.661-14.231
		c-3.513-72.597-8.342-139.197-14.818-193.453l-71.66,182.447l-9.18,25.236h-411.25c0,0,225.242-721.925,244.005-751.673
		c18.763-29.748,195.608-146.193,371.302-188.842l-27.14,353.155L2116.708,4200.25z"/>
	<g>
		<path fill="#AFAEB5" d="M2278.53,4259.516l-102.958-472.132c-62.403,0-110.899,22.617-128.088,27.018l-0.018,0.243
			l-27.462,352.456l96.287,33.149l-131.912,55.685l262.724,498.525h93.268h31.108h7.413l-28.856-142.303L2278.53,4259.516z"/>
		<path fill="#AFAEB5" d="M2814.909,4200.25l95.332-33.149l-27.14-353.155l-0.001-0.005c-13.374-4.519-97.727-24.142-137.339-24.693
			l-91.48,470.269l-85.015,387.634l-23.535,107.311h15.378h15.455h99.618l269.332-498.525L2814.909,4200.25z"/>
	</g>
	<path fill="#E3C2A5" d="M2105.62,3128.275c1.831,52.99-8.993,99.182-36.371,100.128c-27.377,0.946-47.213-41.377-49.044-94.367
		s19.193-96.725,46.57-97.671S2103.789,3075.285,2105.62,3128.275z"/>
	<path fill="#F4DBC0" d="M2801.373,3117.627c-1.831,52.99,8.994,99.182,36.371,100.128s47.213-41.377,49.044-94.367
		s-19.192-96.725-46.57-97.671S2803.205,3064.637,2801.373,3117.627z"/>
	<path fill="#F4DBC0" d="M2823.037,3156.564c0,301.155-166.592,545.29-372.093,545.29s-372.093-244.135-372.093-545.29
		s166.592-557.823,372.093-557.823S2823.037,2855.409,2823.037,3156.564z"/>
	<path fill="#E3C2A5" d="M2454.262,2598.742v1103.113c-206.432,0.099-375.412-238.211-375.412-538.058
		C2078.851,2857.508,2235.502,2604.029,2454.262,2598.742z"/>
	<path fill="#5A3721" d="M2042.371,3068.071c-6.408-75.186-12.63-189.776,27.515-304.272
		c25.447-72.578,59.811-172.53,130.76-202.218c87.976-36.813,26.83,23.086,210.27-13.103c78.419-15.47,151.349-54.807,278.28-18.718
		c0,0,124.727,50.641,161.687,333.939c0.054,0.412,0.118,0.819,0.194,1.228c1.439,7.76,16.464,92.003,10.604,196.865
		c-1.022,18.294-18.816,106.552-33.575,117.41c-22.803,16.777-23.083-3.278-25.195-4.229c-7.6-3.422,9.93-107.382,8.787-115.638
		c-6.572-47.464-40.176-197.501-117.634-234.959c-0.435-0.21-48.591-16.343-128.363,22.435
		c-153.952,74.839-226.132,9.141-246.152,3.426c-1.337-0.382-24.681-14.087-25.934-14.691
		c-15.088-7.279-103.415-43.76-147.436,37.672c-0.472,0.874-0.982,1.72-1.556,2.53c-5.838,8.249-45.082,64.588-59.405,192.946
		c-0.854,7.652,17.002,100.117,14.975,109.398c-0.031,0.141-22.651,11.235-26.206-3.276
		C2073.062,3171.056,2045.768,3107.929,2042.371,3068.071z"/>
	<g>
		<path fill="#FFFFFF" d="M2448.844,3569.012c37.372-0.421,83.053-32.012,99.836-89.012H2349.99
			C2367.239,3537,2413.257,3568.613,2448.844,3569.012z"/>
		<path fill="#DF3655" d="M2556.348,3474.852c-0.692-0.893-1.756-1.414-2.885-1.414h-208.305c-1.134,0-2.206,0.528-2.895,1.427
			c-0.692,0.901-0.925,2.072-0.632,3.167c17.05,63.727,67.922,98.58,107.214,99.021c41.203-0.463,91.586-34.636,108.156-99.055
			C2557.28,3476.906,2557.04,3475.743,2556.348,3474.852z M2448.844,3569.751c-35.587-0.399-81.605-31.68-98.854-89.012h198.691
			C2531.897,3538.652,2486.216,3569.331,2448.844,3569.751z"/>
		<g>
			<path fill="#F39AA2" d="M2541.542,3500.211h-184.183c8.489,22.108,27.757,40.464,41.333,51.518h101.672
				C2516.852,3540.573,2532.267,3522.116,2541.542,3500.211z"/>
		</g>
	</g>
	<path fill="#5A3721" d="M2646.683,3420.809c-33.08-37.29-178.632-40.809-178.632-40.809h-4.361l-0.451,48.177l49.921-1.549
		c65.926-2.436,94.553,10.821,108.172,31.345c6.157,9.28,8.845,20.134,8.959,31.27c0.623,60.681-40.747,110.396-40.747,110.396
		c-24.835,31.758-51.026,37.089-67.704,36.792c-7.206-0.128-14.3-1.95-20.779-5.103c-32.349-15.738-49.158-37.5-49.158-37.5
		s-16.541,21.736-48.889,37.474c-6.48,3.153-13.574,4.936-20.78,5.064c-16.677,0.297-42.869-5.104-67.703-36.862
		c0,0-41.369-49.854-40.747-110.534c0.114-11.135,2.803-22.265,8.96-31.544c13.619-20.524,42.246-34.33,108.172-31.894l49.921,2.646
		l-0.451-48.177h-4.36c0,0-145.552,3.519-178.632,40.809c0,0-34.283,28.524-15.036,110.322c0,0,20.411,71.678,32.838,108.563
		c2.907,8.628,6.953,16.465,12.184,23.916c12.143,17.294,39.685,38.063,70.402,50.317c0,0,41.313,18.161,94.235,18.161
		c54.802,0,94.17-18.173,94.17-18.173c34.516-12.47,58.368-33.279,70.51-50.574c5.232-7.451,9.278-15.586,12.185-24.214
		c12.427-36.885,32.838-108.006,32.838-108.006C2680.966,3449.324,2646.683,3420.809,2646.683,3420.809z"/>
	<path fill="#221D16" d="M2378.946,2987.953l-77.682-16.37c-13.869-2.923-28.076-2.923-41.945,0l-77.682,16.37
		c-4.14,0.872-8.495-0.65-11.236-4.365c-1.784-2.419-2.865-5.558-2.865-8.976l0,0c-1.635-13.514,58.663-24.241,58.663-24.241
		c10.517-2.005,39.704-8.407,90.641-2.398c0,0,80.467,9.695,76.208,26.639l0,0c0,3.418-1.081,6.557-2.865,8.976
		C2387.441,2987.304,2383.085,2988.826,2378.946,2987.953z"/>
	<path fill="#221D16" d="M2722.033,2984.85l-77.682-16.37c-13.869-2.923-28.076-2.923-41.945,0l-77.682,16.37
		c-4.14,0.873-8.495-0.649-11.236-4.365c-1.784-2.419-2.865-5.558-2.865-8.976l0,0c-1.635-13.514,58.663-24.241,58.663-24.241
		c10.518-2.005,39.704-8.407,90.641-2.398c0,0,80.467,9.695,76.208,26.639l0,0c0,3.418-1.081,6.557-2.865,8.976
		C2730.528,2984.2,2726.173,2985.722,2722.033,2984.85z"/>
	<path fill="#2B2825" d="M2837.954,3048.465c0.155-2.162-4.588-10.907-6.24-11.986c-19.855-12.972-31.758-26.458-59.93-26.586
		c-26.844-0.122-53.72-1.007-80.528-0.195c-65.968,2-131.948,4.915-197.907,7.179c-13.11,0.45-26.622,1.016-39.433,1.248
		c-12.811-0.233-25.97-0.798-39.08-1.248c-65.959-2.264-131.763-5.18-197.731-7.179c-26.808-0.813-53.595,0.072-80.439,0.195
		c-28.172,0.128-40.031,13.613-59.885,26.586c-1.652,1.079-6.373,9.824-6.218,11.986c1.69,23.534-9.619,46.664,16.804,64.258
		c7.757,9.257,7.748,27.81,10.342,39.747c9.03,41.55,39.824,64.023,84.141,70.263c52.646,10.381,131.94,7.138,148.133,4.047
		c20.11-2.227,37.912-14.55,47.941-28.358c13.784-18.975,25.803-38.998,37.629-59.001c6.654-11.255,11.159-23.348,16.672-35.115
		c4.118-8.79,10.481-12.593,21.691-12.576c11.21-0.017,17.927,3.786,22.044,12.576c5.512,11.767,10.371,23.86,17.025,35.115
		c11.826,20.004,23.846,40.026,37.629,59.001c10.029,13.808,27.831,26.13,47.941,28.358c16.193,3.092,95.487,6.334,148.133-4.047
		c44.317-6.24,75.111-28.713,84.141-70.263c2.594-11.937,2.585-30.491,10.342-39.747
		C2847.594,3095.128,2836.263,3071.999,2837.954,3048.465z M2407.182,3098.613c-4.874,29.556-18.682,56.065-37.88,80.261
		c-13.36,16.838-32.318,26.361-55.807,30.365c-43.475,7.409-86.595,3.808-129.583-1.604c-27.933-3.517-46.658-18.49-54.616-42.497
		c-11.72-35.361-14.173-71.294-7.668-107.789c2.594-14.557,10.659-24.499,27.29-26.047c30.325-2.823,72.231-4.039,90.647-4.575
		c17.175,0,35.54-0.258,52.479,1.496c25.934,2.685,52.441,5.176,77.117,12.114
		C2399.278,3048.804,2411.72,3071.098,2407.182,3098.613z M2779.242,3165.137c-7.958,24.007-26.683,38.98-54.616,42.497
		c-42.989,5.412-86.108,9.014-129.583,1.604c-23.489-4.003-42.447-13.526-55.807-30.365c-19.198-24.197-33.006-50.706-37.88-80.261
		c-4.538-27.515,7.905-49.809,38.021-58.277c24.676-6.938,51.183-9.429,77.117-12.114c16.939-1.753,35.304-1.496,52.479-1.496
		c18.416,0.536,60.322,1.752,90.647,4.575c16.631,1.548,24.696,11.49,27.29,26.047
		C2793.415,3093.843,2790.962,3129.776,2779.242,3165.137z"/>
	<g>
		<path fill="#FBF6EE" d="M2350.04,3109.735c0,0-35.312,43.849-79.024,43.849c-43.573,0-78.928-43.849-78.928-43.849
			s35.356-43.882,78.928-43.882C2314.728,3065.853,2350.04,3109.735,2350.04,3109.735z"/>
		<path fill="#38312E" d="M2301.032,3109.732c0,16.547-13.4,29.944-29.987,29.944c-16.537,0-29.951-13.397-29.951-29.944
			c0-16.554,13.414-29.971,29.951-29.971C2287.632,3079.761,2301.032,3093.178,2301.032,3109.732z"/>
		<circle fill="#FFFFFF" cx="2279.924" cy="3101.146" r="10.341"/>
	</g>
	<g>
		<path fill="#FBF6EE" d="M2551.849,3107.116c0,0,35.312,43.849,79.024,43.849c43.573,0,78.929-43.849,78.929-43.849
			s-35.356-43.882-78.929-43.882C2587.161,3063.234,2551.849,3107.116,2551.849,3107.116z"/>
		<path fill="#38312E" d="M2600.856,3107.113c0,16.547,13.4,29.944,29.987,29.944c16.537,0,29.951-13.397,29.951-29.944
			c0-16.554-13.414-29.971-29.951-29.971C2614.256,3077.143,2600.856,3090.559,2600.856,3107.113z"/>
		<circle fill="#FFFFFF" cx="2640.479" cy="3101.146" r="10.341"/>
	</g>
	<path fill="#C39A6E" d="M2469.632,3337.771c0,0-6.238,7.299-15.457,7.199c-9.219,0.1-15.457-7.199-15.457-7.199
		c-21.698-13.271-24.958,4.286-24.958,4.286c1.146,10.386,25.464,6.211,25.464,6.211c5.023,4.979,10.32,6.268,14.952,5.961
		c4.632,0.307,9.928-0.982,14.951-5.961c0,0,24.319,4.176,25.464-6.211C2494.59,3342.057,2491.33,3324.5,2469.632,3337.771z"/>
</g>
<g id="Layer_2">
	<path fill="#C55640" d="M564.04,1055.057h383.197c191.083,0,347.253,155.724,347.253,346.808v23.253
		c0,191.083-156.169,348.052-347.253,348.052H823.214L901,1978.932L604.644,1773.17H564.04
		c-191.083,0-347.253-156.969-347.253-348.052v-23.253C216.787,1210.781,372.956,1055.057,564.04,1055.057z"/>
	<path fill="#D26B55" d="M4353.237,1265.057H3970.04c-191.083,0-347.253,155.724-347.253,346.808v23.253
		c0,191.083,156.169,348.052,347.253,348.052h124.023l-77.787,205.762l296.356-205.762h40.604
		c191.083,0,347.252-156.969,347.252-348.052v-23.253C4700.49,1420.781,4544.32,1265.057,4353.237,1265.057z"/>
	<path fill="#DC652F" d="M2850.82,1119.623h329.637c164.375,0,298.716,133.958,298.716,298.333v20.003
		c0,164.375-134.341,299.404-298.716,299.404h-106.688l66.914,177.002l-254.934-177.002h-34.929
		c-164.375,0-298.716-135.029-298.716-299.404v-20.003C2552.104,1253.581,2686.445,1119.623,2850.82,1119.623z"/>
	<path fill="#C66546" d="M2121.655,483.555h-474.034c-236.379,0-429.568,192.639-429.568,429.018v28.765
		c0,236.379,193.189,430.557,429.568,430.557h153.423l-96.226,254.537l366.607-254.537h50.229
		c236.379,0,429.568-194.178,429.568-430.557v-28.765C2551.223,676.194,2358.034,483.555,2121.655,483.555z"/>
	<circle fill="#FEF2EA" cx="502.273" cy="1409.956" r="71.965"/>
	<circle fill="#FEF2EA" cx="755.638" cy="1409.956" r="71.965"/>
	<circle fill="#FEF2EA" cx="1009.004" cy="1409.956" r="71.965"/>
	<circle fill="#FEF2EA" cx="1563.065" cy="926.908" r="91.338"/>
	<circle fill="#FEF2EA" cx="1884.638" cy="926.908" r="91.338"/>
	<circle fill="#FEF2EA" cx="2206.212" cy="926.908" r="91.338"/>
	<circle fill="#FEF2EA" cx="3909.034" cy="1618.832" r="71.748"/>
	<circle fill="#FEF2EA" cx="4161.638" cy="1618.832" r="71.748"/>
	<circle fill="#FEF2EA" cx="4414.243" cy="1618.832" r="71.748"/>
	<circle fill="#FEF2EA" cx="2819.06" cy="1421.955" r="55.835"/>
	<circle fill="#FEF2EA" cx="3015.638" cy="1421.955" r="55.835"/>
	<circle fill="#FEF2EA" cx="3212.217" cy="1421.955" r="55.835"/>
</g>
</svg>
