<?xml version="1.0" encoding="utf-8"?>
<!-- Generator: Adobe Illustrator 21.1.0, SVG Export Plug-In . SVG Version: 6.00 Build 0)  -->
<svg version="1.1" id="Calque_1" xmlns="http://www.w3.org/2000/svg" xmlns:xlink="http://www.w3.org/1999/xlink" x="0px" y="0px"
	 viewBox="0 0 940 720" style="enable-background:new 0 0 940 720;" xml:space="preserve">
<style type="text/css">
	.st0{fill:#0ACC00;}
</style>
<g transform="translate(91.881 -228.75)">
	<g transform="matrix(-1 0 0 1 755.44 -.88158)">
		<path class="st0" d="M347.1,896.5c-50.3-34.6-92-4.2-130.2,30.1C266.2,940,318.5,946.1,347.1,896.5z"/>
		<path class="st0" d="M335,866.7c-2.2-61-51.5-76.3-101.9-86.5C251.8,827.8,278.1,873.3,335,866.7z"/>
		<path class="st0" d="M257.5,869c-47.2-38.7-91.3-12-132.3,19C173.2,905.5,224.7,916,257.5,869z"/>
		<path class="st0" d="M213.7,840c29.4-53.5-5-92-43.1-126.5C162.3,764,161.5,816.5,213.7,840z"/>
		<path class="st0" d="M175.6,838.9c-34.7-50.2-84.5-36.6-132.4-18.1C84.5,850.9,131.2,875.1,175.6,838.9z"/>
		<path class="st0" d="M126.6,794.1c44.9-41.3,24.5-88.8-0.5-133.6C102,705.6,84.5,755.2,126.6,794.1L126.6,794.1z"/>
		<path class="st0" d="M102.7,789c-24.5-55.9-76-52-126.6-42.9C11,783.5,52.2,816.2,102.7,789z"/>
		<path class="st0" d="M61.8,735c51.8-32.3,40.6-82.7,24.3-131.4C54.1,643.5,27.7,689,61.8,735z"/>
		<path class="st0" d="M43.7,727.4C30.2,667.9-21,662-72.4,661.4C-45.2,704.7-11,744.5,43.7,727.4z"/>
		<path class="st0" d="M28.4,640c55.1-26.2,49.8-77.5,39.2-127.8C31.2,548.2-0.2,590.3,28.4,640z"/>
		<path class="st0" d="M19.2,657c-6.3-60.7-56.6-72.7-107.5-79.4C-66.5,623.8-37.2,667.5,19.2,657z"/>
		<path class="st0" d="M5.2,540.5c59.6-13.2,65.8-64.4,66.7-115.8C28.5,451.6-11.6,485.7,5.2,540.5z"/>
		<path class="st0" d="M-6.5,585.2c17.2-58.5-24.6-88.7-69.2-114.4C-73,522-62.6,573.5-6.5,585.2z"/>
		<path class="st0" d="M28.6,425.5c61,3.1,80.5-44.7,95-94C74.6,346,26.9,368.2,28.6,425.5z"/>
		<path class="st0" d="M-10.6,491.2c36.6-48.8,8-91.7-24.8-131.3C-50.8,408.6-59,460.6-10.6,491.2z"/>
		<path class="st0" d="M55.3,338.7c60.9-3.5,75.2-53.1,84.3-103.7C92.4,254.7,47.4,281.9,55.3,338.7z"/>
		<path class="st0" d="M16.4,391.3c45.8-40.4,26.4-88.2,2.4-133.6C-6.2,302.3-24.8,351.5,16.4,391.3z"/>
	</g>
	<path class="st0" d="M347.1,896.5c-50.3-34.6-92-4.2-130.2,30.1C266.2,940,318.5,946.1,347.1,896.5z"/>
	<path class="st0" d="M335,866.7c-2.2-61-51.5-76.3-101.9-86.5C251.8,827.8,278.1,873.3,335,866.7z"/>
	<path class="st0" d="M257.5,869c-47.2-38.7-91.3-12-132.3,19C173.2,905.5,224.7,916,257.5,869z"/>
	<path class="st0" d="M213.7,840c29.4-53.5-5-92-43.1-126.5C162.3,764,161.5,816.5,213.7,840z"/>
	<path class="st0" d="M175.6,838.9c-34.7-50.2-84.5-36.6-132.4-18.1C84.5,850.9,131.2,875.1,175.6,838.9z"/>
	<path class="st0" d="M126.6,794.1c44.9-41.3,24.5-88.8-0.5-133.6C102,705.6,84.5,755.2,126.6,794.1L126.6,794.1z"/>
	<path class="st0" d="M102.7,789c-24.5-55.9-76-52-126.6-42.9C11,783.5,52.2,816.2,102.7,789z"/>
	<path class="st0" d="M61.8,735c51.8-32.3,40.6-82.7,24.3-131.4C54.1,643.5,27.7,689,61.8,735z"/>
	<path class="st0" d="M43.7,727.4C30.2,667.9-21,662-72.4,661.4C-45.2,704.7-11,744.5,43.7,727.4z"/>
	<path class="st0" d="M28.4,640c55.1-26.2,49.8-77.5,39.2-127.8C31.2,548.2-0.2,590.3,28.4,640z"/>
	<path class="st0" d="M19.2,657c-6.3-60.7-56.6-72.7-107.5-79.4C-66.5,623.8-37.2,667.5,19.2,657z"/>
	<path class="st0" d="M5.2,540.5c59.6-13.2,65.8-64.4,66.7-115.8C28.5,451.6-11.6,485.7,5.2,540.5z"/>
	<path class="st0" d="M-6.5,585.2c17.2-58.5-24.6-88.7-69.2-114.4C-73,522-62.6,573.5-6.5,585.2z"/>
	<path class="st0" d="M28.6,425.5c61,3.1,80.5-44.7,95-94C74.6,346,26.9,368.2,28.6,425.5z"/>
	<path class="st0" d="M-10.6,491.2c36.6-48.8,8-91.7-24.8-131.3C-50.8,408.6-59,460.6-10.6,491.2z"/>
	<path class="st0" d="M55.3,338.7c60.9-3.5,75.2-53.1,84.3-103.7C92.4,254.7,47.4,281.9,55.3,338.7z"/>
	<path class="st0" d="M16.4,391.3c45.8-40.4,26.4-88.2,2.4-133.6C-6.2,302.3-24.8,351.5,16.4,391.3z"/>
	<path class="st0" d="M395.2,884.2c0,9.8-7.9,17.7-17.7,17.7c-9.8,0-17.7-7.9-17.7-17.7c0-9.8,7.9-17.7,17.7-17.7
		C387.3,866.5,395.2,874.4,395.2,884.2L395.2,884.2z"/>
</g>
</svg>
