<svg xmlns="http://www.w3.org/2000/svg" viewBox="0 0 2243.85 492.55"><defs><style>.cls-1{isolation:isolate;}.cls-2,.cls-3{fill:#fff;}.cls-2{mix-blend-mode:multiply;}</style></defs><title>Fichier 2</title><g class="cls-1"><g id="Calque_2" data-name="Calque 2"><g id="Mode_Isolation" data-name="Mode Isolation"><path class="cls-2" d="M317.12,486.64H107.68A107.68,107.68,0,0,1,0,379V5.08H182.6A134.52,134.52,0,0,1,317.12,139.6Z"/><path class="cls-2" d="M332.79,486.64H542.23A107.68,107.68,0,0,0,649.91,379V5.08H467.31A134.52,134.52,0,0,0,332.79,139.6Z"/><path class="cls-3" d="M848.36,67.22c-1.18-7.37-5-11.79-10-14.45s-11.2-3.83-18-3.83c-15.33,0-22.11,4.42-22.11,12.09,0,31.84,122.06,12.09,122.06,89.34,0,49.24-41,73.12-99.36,73.12-56,0-92.58-32.73-94.05-71.06h66.63A24.21,24.21,0,0,0,805,169.24a38.16,38.16,0,0,0,19.75,5.31c17.4,0,28.89-5.6,28.89-15.63,0-32.14-122.06-10-122.06-91.1C731.61,22.7,770.53,0,823.6,0c59,0,85.8,30.07,90.81,67.22Z"/><path class="cls-3" d="M952.13,5.6h69.58V74.3l61-68.7h81.67l-77.54,79.9,85.8,132.38h-83.44l-51-84.62-16.51,17.4v67.22H952.13Z"/><path class="cls-3" d="M1198,217.89V5.6h69.58V217.89Z"/><path class="cls-3" d="M1312.71,217.89V5.6h69.58V168.35h95.53v49.53Z"/><path class="cls-3" d="M1509.36,217.89V5.6h69.58V168.35h95.53v49.53Z"/><path class="cls-3" d="M721,447.78,739,437q19,35,43.91,35a42.06,42.06,0,0,0,20-5,35.13,35.13,0,0,0,14.25-13.32A34.47,34.47,0,0,0,822.11,436q0-10.65-7.2-20.87-9.93-14.11-36.28-34t-33-28.94q-11.23-15-11.23-32.39a49.15,49.15,0,0,1,6.62-25.19,47.23,47.23,0,0,1,18.64-17.92,53.73,53.73,0,0,1,26.13-6.55,55.7,55.7,0,0,1,28,7.41q13,7.42,27.57,27.28l-17.27,13.1q-11.95-15.83-20.37-20.87a35.11,35.11,0,0,0-18.36-5q-12.81,0-20.95,7.77a25.44,25.44,0,0,0-8.13,19.15,32.63,32.63,0,0,0,2.88,13.39q2.88,6.48,10.51,14.11,4.17,4,27.35,21.16,27.49,20.3,37.72,36.13T845,435.54q0,23-17.49,40t-42.54,17a62.41,62.41,0,0,1-35-10.29Q734.29,472,721,447.78Z"/><path class="cls-3" d="M990.61,270.13q48.11,0,80.52,32.1t32.41,79q0,46.5-32.34,78.89t-78.87,32.39q-47.11,0-79.52-32.25t-32.41-78a112.83,112.83,0,0,1,14.77-56.58,109.06,109.06,0,0,1,95.44-55.57Zm.94,20.59A90.42,90.42,0,0,0,914.12,336q-11.82,20.75-11.82,46.25,0,37.75,26.17,63.75t63.08,26a90.61,90.61,0,0,0,45.64-12,85.63,85.63,0,0,0,32.73-32.7q11.75-20.75,11.75-46.11t-11.75-45.6A87.78,87.78,0,0,0,1036.82,303,89.54,89.54,0,0,0,991.55,290.72Z"/><path class="cls-3" d="M1146,275.46h21.16V466.78h81.48v20.44H1146Z"/><path class="cls-3" d="M1282.92,275.46h21.16V403.3q0,22.75.86,28.36,1.58,12.53,7.34,20.95T1330,466.71a55.46,55.46,0,0,0,24,5.69,47.47,47.47,0,0,0,20.16-4.46,44.81,44.81,0,0,0,16.12-12.38,50.52,50.52,0,0,0,9.5-19.15q2.16-8.06,2.16-33.11V275.46h21.16V403.3q0,28.36-5.54,45.85t-22.17,30.45q-16.63,13-40.24,13-25.63,0-43.91-12.24t-24.47-32.39q-3.89-12.38-3.89-44.63Z"/><path class="cls-3" d="M1454.23,296.19V275.46h116v20.73H1523v191h-21.59v-191Z"/><path class="cls-3" d="M1597.76,275.46h21.16V487.22h-21.16Z"/><path class="cls-3" d="M1768.28,270.13q48.11,0,80.52,32.1t32.41,79q0,46.5-32.34,78.89T1770,492.55q-47.11,0-79.52-32.25t-32.41-78a112.83,112.83,0,0,1,14.77-56.58,109.06,109.06,0,0,1,95.44-55.57Zm.94,20.59A90.42,90.42,0,0,0,1691.78,336Q1680,356.71,1680,382.21q0,37.75,26.17,63.75t63.08,26a90.61,90.61,0,0,0,45.64-12,85.63,85.63,0,0,0,32.73-32.7q11.75-20.75,11.75-46.11t-11.75-45.6A87.78,87.78,0,0,0,1814.49,303,89.54,89.54,0,0,0,1769.22,290.72Z"/><path class="cls-3" d="M1923.83,487.22V275.46h4.61l140.94,162.33V275.46h20.87V487.22h-4.75L1945.71,326.87V487.22Z"/><path class="cls-3" d="M2119.9,447.78l18-10.8q19,35,43.91,35a42.06,42.06,0,0,0,20-5,35.13,35.13,0,0,0,14.25-13.32A34.47,34.47,0,0,0,2221,436q0-10.65-7.2-20.87-9.93-14.11-36.28-34t-33-28.94q-11.23-15-11.23-32.39a49.15,49.15,0,0,1,6.62-25.19,47.23,47.23,0,0,1,18.64-17.92,53.73,53.73,0,0,1,26.13-6.55,55.7,55.7,0,0,1,28,7.41q13,7.42,27.57,27.28L2223,317.93q-11.95-15.83-20.37-20.87a35.11,35.11,0,0,0-18.36-5q-12.81,0-20.95,7.77a25.44,25.44,0,0,0-8.13,19.15,32.63,32.63,0,0,0,2.88,13.39q2.88,6.48,10.51,14.11,4.17,4,27.35,21.16,27.49,20.3,37.72,36.13t10.22,31.82q0,23-17.49,40t-42.54,17a62.41,62.41,0,0,1-35-10.29Q2133.14,472,2119.9,447.78Z"/></g></g></g></svg>