<?xml version="1.0" encoding="utf-8"?>
<!-- Generator: Adobe Illustrator 21.1.0, SVG Export Plug-In . SVG Version: 6.00 Build 0)  -->
<svg version="1.1" id="Calque_1" xmlns="http://www.w3.org/2000/svg" xmlns:xlink="http://www.w3.org/1999/xlink" x="0px" y="0px"
	 viewBox="0 0 65.6 63.6" style="enable-background:new 0 0 65.6 63.6;" xml:space="preserve">
<style type="text/css">
	.st0{fill:#BDCBD1;}
	.st1{fill:none;}
</style>
<path class="st0" d="M32.9,40.8c-3.8,0-6.9,3.2-6.9,7s3.1,6.9,7,6.9l0,0c1.9,0,3.6-0.7,4.9-2.1c1.3-1.3,2-3.1,2-4.9
	C39.8,43.9,36.7,40.8,32.9,40.8z M36.8,51.6c-1,1-2.4,1.6-3.9,1.6V54v-0.8c-3,0-5.4-2.4-5.5-5.4c0-3,2.4-5.5,5.5-5.5
	c3,0,5.4,2.4,5.5,5.4C38.4,49.2,37.8,50.6,36.8,51.6z"/>
<g>
	<path class="st1" d="M42.2,41.1l1.7-2.5L42,36.7l-2.5,1.7l-0.4-0.3c-1.2-0.8-2.4-1.3-3.8-1.6l-0.5-0.1l-0.6-3h-2.7l-0.5,3l-0.5,0.1
		c-1.4,0.3-2.6,0.8-3.8,1.6l-0.4,0.3l-2.5-1.7l-1.9,1.9l1.7,2.5l-0.3,0.4c-0.8,1.2-1.3,2.5-1.6,3.8l-0.1,0.5l-3,0.6v2.7l3,0.5
		l0.1,0.5c0.3,1.4,0.8,2.7,1.6,3.8l0.3,0.4l-1.7,2.5l1.9,1.9l2.5-1.7l0.4,0.3c1.2,0.8,2.5,1.3,3.8,1.6L31,59l0.6,3h2.7l0.5-3
		l0.5-0.1c1.4-0.3,2.7-0.8,3.8-1.6l0.4-0.3l2.5,1.7l1.9-1.9l-1.7-2.5l0.3-0.4c0.8-1.2,1.3-2.4,1.6-3.8l0.1-0.5l3-0.6v-2.7l-3-0.5
		l-0.1-0.5c-0.3-1.3-0.9-2.6-1.6-3.8L42.2,41.1z"/>
	<path class="st1" d="M18.9,20.9l-1.7-3.3L13,19.1c-0.3,0.1-0.5,0.3-0.8,0.4c-0.7,0.4-1.4,1.1-1.8,1.8c-0.6,1-0.9,1.9-1,2.8
		c0,0,0,0.1,0,0.2c-0.3,2-0.5,4.3-0.7,7v0.1H14c0.2-1.8,0.4-2.9,0.5-3.2c0-1.5,0.5-2.9,1.3-4.4C16.5,22.6,17.6,21.6,18.9,20.9z"/>
	<path class="st1" d="M9.1,20.7c0.4-0.7,0.9-1.3,1.6-1.8l-1.5-2.8l-3.7,1.3c-0.2,0.1-0.5,0.2-0.7,0.3c-0.7,0.4-1.2,1-1.6,1.6
		c-0.6,0.8-0.8,1.6-0.9,2.4c0,0,0,0.1,0,0.2c-0.2,1.7-0.4,3.8-0.6,6.1v0.3h5.8c0.1-1.4,0.2-2.7,0.4-3.9v-0.2C8,23.1,8.4,22,9,20.9
		L9.1,20.7z"/>
	<path class="st1" d="M56.3,24.1c0-0.8-0.4-1.8-0.9-2.7v-0.1c-0.4-0.8-1-1.4-1.8-1.8c-0.2-0.2-0.5-0.3-0.8-0.4l-4.2-1.5l-1.7,3.2
		c0.1,0,0.2,0,0.3,0.1c1.1,0.7,2.1,1.6,2.7,2.7v0.1c0.8,1.3,1.2,2.6,1.3,3.8v0.2c0.1,1.1,0.3,2.3,0.4,3.6H57c-0.2-2.7-0.4-5-0.7-7
		C56.3,24.2,56.3,24.1,56.3,24.1z"/>
	<path class="st1" d="M49.7,27.7c-0.1-1-0.5-2.1-1.1-3.2v-0.1c-0.6-0.9-1.3-1.6-2.2-2.1c-0.3-0.1-0.6-0.3-1-0.4l-5-1.8l-4.1,8.2
		h-6.8l-4.1-8.2l-5,1.8c-1.4,0.5-2.5,1.4-3.2,2.6c-0.7,1.3-1.1,2.5-1.1,3.7v0.2c0,0-0.6,2.7-0.8,7.7h7l1.2-1.2l2.7,1.8
		c1.1-0.6,2.2-1.1,3.4-1.4l0.6-3.3h5.2l0.6,3.2c1.2,0.3,2.3,0.8,3.4,1.4l2.7-1.8l1.3,1.3h7.1C50.3,33,50,30.3,49.7,28
		C49.7,27.8,49.7,27.7,49.7,27.7z"/>
	<path class="st1" d="M63.3,21.6c0-0.8-0.3-1.6-0.8-2.4v-0.1c-0.4-0.7-0.9-1.2-1.6-1.6c-0.2-0.1-0.4-0.2-0.7-0.3l-3.7-1.3L55,18.6
		c0.6,0.5,1.2,1.1,1.6,1.8v0.1c0.6,1.1,1,2.2,1.1,3.3V24c0.1,1.2,0.3,2.5,0.4,3.9h5.8c-0.2-2.3-0.4-4.4-0.6-6.1
		C63.3,21.7,63.3,21.6,63.3,21.6z"/>
	<path class="st0" d="M65.6,28.7c-0.2-2.7-0.4-5.1-0.7-7v-0.1c-0.1-1-0.4-2-1-3v-0.1c-0.5-0.9-1.3-1.6-2.2-2.1
		c-0.3-0.2-0.6-0.3-1-0.4l-4.9-1.8l-2,3.8c-0.2-0.1-0.4-0.2-0.6-0.2l-5.5-2l-2.3,4.5l-5.7-2.1l-4.3,8.6h-5l-4.3-8.6l-5.7,2.1
		L18,15.8l-5.5,2c-0.2,0.1-0.4,0.2-0.6,0.2l-2-3.8l-5,1.8c-0.3,0.1-0.7,0.3-1,0.4c-0.9,0.5-1.7,1.3-2.1,2.1l-0.1,0.2
		c-0.6,1-0.9,2-1,2.9v0.1c-0.3,2-0.5,4.3-0.7,7v0.8h7.2C7.1,30.3,7.1,31.1,7,32v0.8h6.9c-0.1,1.1-0.2,2.5-0.3,4v0.8h7.1l-1,1
		l1.9,2.7c-0.6,1.1-1.1,2.2-1.4,3.4L17,45.3v5.2l3.2,0.6c0.3,1.2,0.8,2.3,1.4,3.4l-1.8,2.7l3.7,3.7l2.7-1.9c1.1,0.6,2.2,1.1,3.4,1.4
		l0.6,3.2h5.2l0.6-3.2c1.2-0.3,2.3-0.8,3.4-1.4l2.7,1.8l3.7-3.7L44,54.3c0.6-1,1.1-2.2,1.4-3.4l3.2-0.6v-5.2l-3.2-0.6
		c-0.3-1.2-0.8-2.3-1.4-3.4l1.8-2.7l-0.9-0.9H52v-0.8c-0.1-1.4-0.2-2.7-0.3-4h7L58.6,32c-0.1-0.9-0.1-1.7-0.2-2.5h7.2V28.7z
		 M7.9,24.4c-0.2,1.2-0.3,2.5-0.4,3.9H1.7V28c0.2-2.3,0.4-4.4,0.6-6.1c0-0.1,0-0.2,0-0.2c0.1-0.8,0.3-1.6,0.9-2.4
		c0.4-0.6,0.9-1.2,1.6-1.6c0.2-0.1,0.5-0.2,0.7-0.3l3.7-1.3l1.5,2.8C10,19.4,9.5,20,9.1,20.7L9,20.9c-0.6,1.1-1,2.2-1.1,3.3V24.4z
		 M14,31.4H8.7v-0.1c0.2-2.7,0.4-5,0.7-7c0-0.1,0-0.2,0-0.2c0.1-0.9,0.4-1.8,1-2.8c0.4-0.7,1.1-1.4,1.8-1.8c0.3-0.1,0.5-0.3,0.8-0.4
		l4.2-1.5l1.7,3.3c-1.3,0.7-2.4,1.7-3.1,2.9c-0.8,1.5-1.3,2.9-1.3,4.4C14.4,28.5,14.2,29.6,14,31.4z M44.1,45.3l0.1,0.5l3,0.5V49
		l-3,0.6l-0.1,0.5c-0.3,1.4-0.8,2.6-1.6,3.8l-0.3,0.4l1.7,2.5L42,58.7L39.5,57l-0.4,0.3c-1.1,0.8-2.4,1.3-3.8,1.6L34.8,59l-0.5,3
		h-2.7L31,59l-0.5-0.1c-1.3-0.3-2.6-0.8-3.8-1.6L26.3,57l-2.5,1.7l-1.9-1.9l1.7-2.5l-0.3-0.4c-0.8-1.1-1.3-2.4-1.6-3.8l-0.1-0.5
		l-3-0.5v-2.7l3-0.6l0.1-0.5c0.3-1.3,0.8-2.6,1.6-3.8l0.3-0.4l-1.7-2.5l1.9-1.9l2.5,1.7l0.4-0.3c1.2-0.8,2.4-1.3,3.8-1.6l0.5-0.1
		l0.5-3h2.7l0.6,3l0.5,0.1c1.4,0.3,2.6,0.8,3.8,1.6l0.4,0.3l2.5-1.7l1.9,1.9l-1.7,2.5l0.3,0.4C43.2,42.7,43.8,44,44.1,45.3z
		 M43.4,36.1l-1.3-1.3l-2.7,1.8c-1.1-0.6-2.2-1.1-3.4-1.4L35.4,32h-5.2l-0.6,3.3c-1.2,0.3-2.3,0.8-3.4,1.4l-2.7-1.8l-1.2,1.2h-7
		c0.2-5,0.8-7.7,0.8-7.7v-0.2c0-1.2,0.4-2.4,1.1-3.7c0.7-1.2,1.8-2.1,3.2-2.6l5-1.8l4.1,8.2h6.8l4.1-8.2l5,1.8
		c0.4,0.1,0.7,0.3,1,0.4c0.9,0.5,1.6,1.2,2.2,2.1v0.1c0.6,1.1,1,2.2,1.1,3.2c0,0,0,0.1,0,0.3c0.3,2.3,0.6,5,0.8,8.1H43.4z
		 M51.6,31.3c-0.1-1.3-0.3-2.5-0.4-3.6v-0.2c-0.1-1.2-0.5-2.5-1.3-3.8v-0.1c-0.6-1.1-1.6-2-2.7-2.7c-0.1-0.1-0.2-0.1-0.3-0.1
		l1.7-3.2l4.2,1.5c0.3,0.1,0.6,0.2,0.8,0.4c0.8,0.4,1.4,1,1.8,1.8v0.1c0.5,0.9,0.9,1.9,0.9,2.7c0,0,0,0.1,0,0.2c0.3,2,0.5,4.3,0.7,7
		H51.6z M58.1,27.9c-0.1-1.4-0.3-2.7-0.4-3.9v-0.2c-0.1-1.1-0.5-2.2-1.1-3.3v-0.1c-0.4-0.7-1-1.3-1.6-1.8l1.5-2.7l3.7,1.3
		c0.3,0.1,0.5,0.2,0.7,0.3c0.7,0.4,1.2,0.9,1.6,1.6v0.1c0.5,0.8,0.8,1.6,0.8,2.4c0,0,0,0.1,0,0.2c0.2,1.7,0.4,3.8,0.6,6.1H58.1z"/>
</g>
<path class="st0" d="M15.1,14.1c1.1,0,2.3-0.3,3.3-0.8c1.4,1.4,3.3,2.3,5.5,2.3c0.9,0,1.9-0.2,2.7-0.5c1.6,1.7,3.8,2.7,6.3,2.7
	s4.7-1,6.3-2.7c0.9,0.3,1.8,0.5,2.7,0.5c2.1,0,4.1-0.9,5.5-2.3c1,0.5,2.1,0.8,3.3,0.8c3.9,0,7-3.1,7-7s-3.1-7-7-7
	c-1.5,0-3,0.5-4.2,1.4C45.2,0.6,43.7,0,42,0c-1.6,0-3.1,0.5-4.4,1.4c-1.3-0.8-2.9-1.3-4.6-1.3c-1.7,0-3.3,0.5-4.6,1.3
	C27.1,0.5,25.6,0,24,0c-1.7,0-3.2,0.5-4.5,1.5c-1.2-0.9-2.7-1.4-4.2-1.4c-3.9,0-7,3.1-7,7S11.3,14.1,15.1,14.1z M56.1,7.1
	c0,3-2.5,5.5-5.5,5.5c-0.8,0-1.6-0.2-2.3-0.5c0.8-1.2,1.3-2.7,1.3-4.3c0-2-0.8-3.9-2.1-5.2c0.9-0.6,2-0.9,3.1-0.9
	C53.7,1.6,56.1,4.1,56.1,7.1z M41.9,1.6c3.4,0,6.2,2.8,6.2,6.2S45.3,14,41.9,14c-0.6,0-1.2-0.1-1.7-0.2c0.9-1.4,1.5-3.1,1.5-4.9
	c0-2.6-1.1-4.9-2.9-6.5C39.7,1.9,40.8,1.6,41.9,1.6z M40.2,8.9c0,4-3.3,7.3-7.3,7.3s-7.3-3.3-7.3-7.3s3.3-7.3,7.3-7.3
	S40.2,4.9,40.2,8.9z M27,2.4c-1.8,1.6-2.9,3.9-2.9,6.5c0,1.8,0.5,3.5,1.5,4.9C25,14,24.5,14,23.9,14c-3.4,0-6.2-2.8-6.2-6.2
	s2.8-6.2,6.2-6.2C25,1.6,26.1,1.9,27,2.4z M15.1,1.6c1.1,0,2.2,0.3,3.1,0.9c-1.3,1.4-2.1,3.2-2.1,5.2c0,1.6,0.5,3.1,1.3,4.3
	c-0.7,0.3-1.5,0.5-2.3,0.5c-3,0-5.5-2.5-5.5-5.5S12.1,1.6,15.1,1.6z"/>
</svg>
