<?xml version="1.0" encoding="utf-8"?>
<!-- Generator: Adobe Illustrator 21.1.0, SVG Export Plug-In . SVG Version: 6.00 Build 0)  -->
<svg version="1.1"
	 id="Calque_1" xmlns:cc="http://creativecommons.org/ns#" xmlns:dc="http://purl.org/dc/elements/1.1/" xmlns:inkscape="http://www.inkscape.org/namespaces/inkscape" xmlns:rdf="http://www.w3.org/1999/02/22-rdf-syntax-ns#" xmlns:sodipodi="http://sodipodi.sourceforge.net/DTD/sodipodi-0.dtd" xmlns:svg="http://www.w3.org/2000/svg"
	 xmlns="http://www.w3.org/2000/svg" xmlns:xlink="http://www.w3.org/1999/xlink" x="0px" y="0px" viewBox="0 0 92 75"
	 style="enable-background:new 0 0 92 75;" xml:space="preserve">
<style type="text/css">
	.st0{fill:none;}
	.st1{fill:#A7D307;}
	.st2{fill:#28DB03;}
	.st3{fill:#FFBC00;}
	.st4{fill:#FF0000;}
	.st5{fill:#FCF62B;}
</style>
<path class="st0" d="M46.5,48.6c4.5,0,8.1-3.7,8.1-8.1s-3.6-8.1-8.1-8.1s-8.1,3.7-8.1,8.1S42.1,48.6,46.5,48.6z"/>
<path class="st0" d="M30.4,44.2c0.2,0.1,0.4,0.2,0.5,0.5l1,2.8c0.1,0.2,0,0.5-0.1,0.7l-1.7,2.4l1.4,2l2.9-0.8c0.2-0.1,0.5,0,0.7,0.1
	l2.3,1.9c0.2,0.2,0.3,0.4,0.3,0.6l-0.3,3l2.2,1l2.1-2.1c0.1-0.2,0.3-0.2,0.5-0.2h0.1l2.9,0.5c0.2,0,0.4,0.2,0.5,0.4l1.3,2.7l2.4-0.2
	l0.8-2.9c0.1-0.2,0.2-0.4,0.5-0.5l2.8-1c0.2-0.1,0.5-0.1,0.7,0.1l2.4,1.7l2-1.4l-0.8-2.9c-0.1-0.2,0-0.5,0.1-0.7l1.9-2.3
	c0.2-0.2,0.4-0.3,0.6-0.3l3,0.3l1-2.2l-2.1-2.1c-0.2-0.2-0.2-0.4-0.2-0.7l0.5-2.9c0-0.2,0.2-0.4,0.4-0.5l2.7-1.3l-0.2-2.4l-2.9-0.8
	c-0.2-0.1-0.4-0.2-0.5-0.5l-1-2.8c-0.1-0.2,0-0.5,0.1-0.7l1.7-2.4l-1.4-2l-2.9,0.8c-0.2,0.1-0.5,0-0.7-0.1l-2.3-1.9
	c-0.2-0.2-0.3-0.4-0.3-0.6l0.3-3l-2.2-1l-2.1,2.1c-0.2,0.2-0.4,0.3-0.7,0.2l-2.9-0.5c-0.2,0-0.4-0.2-0.5-0.4l-1.3-2.7l-2.4,0.2
	l-0.8,2.9c-0.1,0.2-0.2,0.4-0.5,0.5l-2.8,1c-0.2,0.1-0.5,0-0.7-0.1L36.3,24l-2,1.4l0.8,2.9c0.1,0.2,0,0.5-0.1,0.7l-1.9,2.3
	c-0.2,0.2-0.4,0.3-0.6,0.3l-3-0.3l-1,2.2l2.1,2.1c0.2,0.2,0.2,0.4,0.2,0.7l-0.5,2.9c0,0.2-0.2,0.4-0.4,0.5L27.3,41l0.2,2.4
	L30.4,44.2z M46.5,30.9c5.3,0,9.6,4.3,9.6,9.6s-4.2,9.6-9.6,9.6c-5.3,0-9.6-4.3-9.6-9.6S41.2,30.9,46.5,30.9z"/>
<path class="st0" d="M2,72c0,0.6,0.4,1,1,1h86c0.6,0,1-0.4,1-1V13H2V72z M26.2,39.8l2.8-1.3l0.4-2.1l-2.2-2.2
	c-0.2-0.2-0.3-0.6-0.1-0.8l1.5-3.2c0.1-0.3,0.4-0.5,0.7-0.4l3.1,0.3l1.4-1.7l-0.8-3c-0.1-0.3,0-0.6,0.3-0.8l2.9-2
	c0.3-0.2,0.6-0.2,0.9,0l2.5,1.8l2-0.7l0.8-3c0.1-0.3,0.3-0.5,0.7-0.6l3.5-0.3c0.3,0,0.6,0.1,0.7,0.4l1.3,2.8l2.1,0.4l2.2-2.2
	c0.2-0.2,0.6-0.3,0.8-0.1l3.2,1.5c0.3,0.1,0.5,0.4,0.4,0.7l-0.3,3l1.7,1.4l3-0.8c0.3-0.1,0.6,0,0.8,0.3l2,2.9c0.2,0.3,0.2,0.6,0,0.9
	l-1.8,2.5l0.7,2l3,0.8c0.3,0.1,0.5,0.3,0.6,0.7l0.3,3.5c0,0.3-0.1,0.6-0.4,0.7L64,42.5l-0.4,2.1l2.2,2.2c0.2,0.2,0.3,0.6,0.1,0.8
	l-1.5,3.2c-0.1,0.3-0.4,0.5-0.7,0.4l-3-0.2l-1.4,1.7l0.8,3c0.1,0.3,0,0.6-0.3,0.8l-2.9,2c-0.3,0.2-0.6,0.2-0.9,0l-2.5-1.8l-2,0.7
	l-0.8,3c-0.1,0.3-0.3,0.5-0.7,0.6l-3.5,0.2c-0.3,0-0.6-0.2-0.7-0.4L44.6,58l-2.1-0.4l-2.2,2.2C40,60,39.7,60.1,39.4,60l-3.2-1.5
	c-0.3-0.1-0.5-0.4-0.4-0.7l0.3-3.1l-1.7-1.4l-3,0.8c-0.3,0.1-0.6,0-0.8-0.3l-2-2.9c-0.2-0.3-0.2-0.6,0-0.9l1.8-2.5l-0.7-2l-3-0.8
	c-0.3-0.1-0.5-0.3-0.6-0.7l-0.3-3.5C25.8,40.2,25.9,39.9,26.2,39.8z"/>
<path class="st0" d="M89,2H3C2.4,2,2,2.4,2,3v9h88V3C90,2.4,89.6,2,89,2z M6.8,8C6.8,8,6.8,8,6.8,8C5.8,8,4.9,7.1,4.9,6.1
	c0,0,0,0,0,0c0-1,0.9-1.9,1.9-1.9c1,0,1.9,0.9,1.9,1.9C8.7,7.1,7.8,8,6.8,8z M14.1,6.1c0,1-0.9,1.9-1.9,1.9c-1,0-1.9-0.9-1.9-1.9
	c0-1,0.8-1.9,1.9-1.9c0,0,0,0,0,0C13.2,4.2,14.1,5.1,14.1,6.1C14.1,6.1,14.1,6.1,14.1,6.1z M19.5,6.1c0,1-0.9,1.9-1.9,1.9
	c0,0,0,0,0,0c-1,0-1.9-0.9-1.9-1.9c0,0,0,0,0,0c0-1,0.9-1.9,1.9-1.9c0,0,0,0,0,0C18.6,4.2,19.5,5.1,19.5,6.1
	C19.5,6.1,19.5,6.1,19.5,6.1z"/>
<g>
	<path class="st1" d="M46.5,50.1c5.4,0,9.6-4.3,9.6-9.6s-4.3-9.6-9.6-9.6s-9.6,4.3-9.6,9.6S41.2,50.1,46.5,50.1z M46.5,32.4
		c4.5,0,8.1,3.7,8.1,8.1s-3.6,8.1-8.1,8.1c-4.4,0-8.1-3.7-8.1-8.1S42,32.4,46.5,32.4z"/>
	<path class="st2" d="M17.6,4.2C17.6,4.2,17.6,4.2,17.6,4.2c-1.1,0-1.9,0.9-1.9,1.9c0,0,0,0,0,0c0,1,0.9,1.9,1.9,1.9c0,0,0,0,0,0
		c1,0,1.9-0.9,1.9-1.9c0,0,0,0,0,0C19.5,5.1,18.6,4.2,17.6,4.2z"/>
	<path class="st3" d="M89,0H3C1.3,0,0,1.3,0,3v69c0,1.7,1.3,3,3,3h86c1.7,0,3-1.3,3-3V3C92,1.3,90.7,0,89,0z M90,72c0,0.6-0.4,1-1,1
		H3c-0.6,0-1-0.4-1-1V13h88V72z M90,12H2V3c0-0.6,0.4-1,1-1h86c0.6,0,1,0.4,1,1V12z"/>
	<path class="st4" d="M6.8,4.2c-1,0-1.9,0.9-1.9,1.9c0,0,0,0,0,0c0,1,0.9,1.9,1.9,1.9c0,0,0,0,0,0c1,0,1.9-0.9,1.9-1.9
		C8.7,5.1,7.8,4.2,6.8,4.2z"/>
	<path class="st1" d="M26.7,44.7l3,0.8l0.7,2L28.6,50c-0.2,0.3-0.2,0.6,0,0.9l2,2.9c0.2,0.3,0.5,0.4,0.8,0.3l3-0.8l1.7,1.4l-0.3,3.1
		c-0.1,0.3,0.1,0.6,0.4,0.7l3.2,1.5c0.3,0.1,0.6,0,0.9-0.2l2.2-2.2l2.1,0.4l1.2,2.8c0.1,0.2,0.4,0.4,0.7,0.4L50,61
		c0.4-0.1,0.6-0.3,0.7-0.6l0.8-3l2-0.7l2.5,1.8c0.3,0.2,0.6,0.2,0.9,0l2.9-2c0.3-0.2,0.4-0.5,0.3-0.8l-0.8-3l1.4-1.7l3,0.2
		c0.3,0.1,0.6-0.1,0.7-0.4l1.5-3.2c0.2-0.2,0.1-0.6-0.1-0.8l-2.2-2.2l0.4-2.1l2.9-1.3c0.3-0.1,0.4-0.4,0.4-0.7L67,37
		c-0.1-0.4-0.3-0.6-0.6-0.7l-3-0.8l-0.7-2l1.8-2.5c0.2-0.3,0.2-0.6,0-0.9l-2-2.9c-0.2-0.3-0.5-0.4-0.8-0.3l-3,0.8L57,26.3l0.3-3
		c0.1-0.3-0.1-0.6-0.4-0.7l-3.2-1.5c-0.2-0.2-0.6-0.1-0.8,0.1l-2.2,2.2L48.6,23l-1.3-2.8c-0.1-0.3-0.4-0.4-0.7-0.4l-3.5,0.3
		c-0.4,0.1-0.6,0.3-0.7,0.6l-0.8,3l-2,0.7l-2.5-1.8c-0.3-0.2-0.6-0.2-0.9,0l-2.9,2c-0.3,0.2-0.4,0.5-0.3,0.8l0.8,3l-1.4,1.7
		l-3.1-0.3c-0.3-0.1-0.6,0.1-0.7,0.4l-1.5,3.2c-0.2,0.2-0.1,0.6,0.1,0.8l2.2,2.2L29,38.5l-2.8,1.3c-0.3,0.1-0.4,0.4-0.4,0.7l0.3,3.5
		C26.2,44.4,26.4,44.6,26.7,44.7z M29.9,39.7c0.2-0.1,0.4-0.3,0.4-0.5l0.5-2.9c0-0.3,0-0.5-0.2-0.7l-2.1-2.1l1-2.2l3,0.3
		c0.2,0,0.4-0.1,0.6-0.3L35,29c0.1-0.2,0.2-0.5,0.1-0.7l-0.8-2.9l2-1.4l2.4,1.7c0.2,0.1,0.5,0.2,0.7,0.1l2.8-1
		c0.3-0.1,0.4-0.3,0.5-0.5l0.8-2.9l2.4-0.2l1.3,2.7c0.1,0.2,0.3,0.4,0.5,0.4l2.9,0.5c0.3,0.1,0.5,0,0.7-0.2l2.1-2.1l2.2,1l-0.3,3
		c0,0.2,0.1,0.4,0.3,0.6l2.3,1.9c0.2,0.1,0.5,0.2,0.7,0.1l2.9-0.8l1.4,2l-1.7,2.4c-0.1,0.2-0.2,0.5-0.1,0.7l1,2.8
		c0.1,0.3,0.3,0.4,0.5,0.5l2.9,0.8l0.2,2.4L63,41.2c-0.2,0.1-0.4,0.3-0.4,0.5l-0.5,2.9c0,0.3,0,0.5,0.2,0.7l2.1,2.1l-1,2.2l-3-0.3
		c-0.2,0-0.4,0.1-0.6,0.3l-1.9,2.3c-0.1,0.2-0.2,0.5-0.1,0.7l0.8,2.9l-2,1.4l-2.4-1.7C54,55,53.7,55,53.5,55.1l-2.8,1
		c-0.3,0.1-0.4,0.3-0.5,0.5l-0.8,2.9L47,59.7L45.7,57c-0.1-0.2-0.3-0.4-0.5-0.4l-2.9-0.5h-0.1c-0.2,0-0.4,0-0.5,0.2l-2.1,2.1l-2.2-1
		l0.3-3c0-0.2-0.1-0.4-0.3-0.6l-2.3-1.9c-0.2-0.1-0.5-0.2-0.7-0.1l-2.9,0.8l-1.4-2l1.7-2.4c0.1-0.2,0.2-0.5,0.1-0.7l-1-2.8
		c-0.1-0.3-0.3-0.4-0.5-0.5l-2.9-0.8L27.3,41L29.9,39.7z"/>
	<path class="st5" d="M12.2,4.2C12.2,4.2,12.2,4.2,12.2,4.2c-1,0-1.9,0.9-1.9,1.9c0,1,0.8,1.9,1.9,1.9c1,0,1.9-0.9,1.9-1.9
		c0,0,0,0,0,0C14.1,5.1,13.2,4.2,12.2,4.2z"/>
</g>
</svg>
