<?xml version="1.0" encoding="utf-8"?>
<!-- Generator: Adobe Illustrator 21.1.0, SVG Export Plug-In . SVG Version: 6.00 Build 0)  -->
<svg version="1.1" id="Calque_1" xmlns="http://www.w3.org/2000/svg" xmlns:xlink="http://www.w3.org/1999/xlink" x="0px" y="0px"
	 viewBox="0 0 76.7 71.8" style="enable-background:new 0 0 76.7 71.8;" xml:space="preserve">
<style type="text/css">
	.st0{fill:#DB00A2;}
	.st1{fill:#FFE000;}
</style>
<title>icon base_1</title>
<path class="st0" d="M34.5,40.4c1.5-1,3-2.1,4.2-3.5l4.4,2.5l4-6.9L42.7,30c0.6-1.7,0.9-3.5,0.9-5.4l4.9-0.9l-1.4-7.9l-4.9,0.9
	c-0.7-1.7-1.6-3.3-2.7-4.7l3.3-3.9L36.7,3l-3.3,3.9C31.8,6,30.1,5.4,28.3,5V0h-8v5c-1.8,0.4-3.5,1-5.1,1.9L12,3L5.8,8.2L9.1,12
	c-1.1,1.4-2,3-2.7,4.7l-4.9-0.9L0,23.7l4.9,0.9C5,26.4,5.3,28.2,5.9,30l-4.4,2.5l4,6.9l4.4-2.5c1.2,1.4,2.6,2.5,4.2,3.5l-1.7,4.8
	l7.5,2.7l1.7-4.8c1.8,0.3,3.6,0.3,5.5,0l1.7,4.8l7.5-2.7L34.5,40.4z M24.3,34.2c-5.6,0-10.2-4.6-10.2-10.2c0-5.6,4.6-10.2,10.2-10.2
	S34.5,18.4,34.5,24l0,0C34.5,29.6,29.9,34.1,24.3,34.2L24.3,34.2z"/>
<path class="st1" d="M68.9,46.4l-3.4,1.1c-0.7-1.1-1.5-2.2-2.4-3.1l1.9-3.1l-4.8-3l-2,3c-1.2-0.5-2.5-0.7-3.8-0.8L53.8,37l-5.6,0.8
	l0.5,3.6c-1.2,0.4-2.4,1.1-3.4,1.8l-2.7-2.5L38.8,45l2.7,2.5c-0.7,1.1-1.2,2.3-1.5,3.6l-3.6-0.1l-0.2,5.7l3.6,0.1
	c0.2,1.3,0.7,2.5,1.2,3.7l-2.9,2.2l3.5,4.5l2.9-2.2c1,0.8,2.1,1.5,3.3,2.1L47,70.6l5.6,1.2l0.8-3.5c1.3,0,2.6-0.2,3.9-0.5l1.7,3.2
	l5-2.7L62.3,65c1-0.8,1.9-1.8,2.6-2.9l3.4,1.4l2.2-5.4L67,56.8c0.2-1.3,0.3-2.6,0.1-3.9l3.4-1.1L68.9,46.4z M54.4,61.6
	c-4,0.6-7.7-2.2-8.3-6.2c-0.6-4,2.2-7.7,6.2-8.3c4-0.6,7.7,2.2,8.3,6.2c0,0,0,0,0,0C61.2,57.4,58.4,61,54.4,61.6z"/>
<path class="st1" d="M76.6,26.6l0.1-4.5L73.8,22c-0.2-1-0.5-2-1-2.9l2.2-1.7l-2.8-3.5l-2.2,1.8c-0.8-0.7-1.7-1.2-2.6-1.6l0.6-2.8
	l-4.4-0.9L63.1,13c-1,0-2.1,0.2-3,0.4L58.7,11l-4,2.1l1.3,2.5c-0.8,0.7-1.5,1.4-2,2.3l-2.7-1.1L49.7,21l2.7,1.1
	c-0.2,1-0.2,2.1-0.1,3.1L49.5,26l1.4,4.3l2.7-0.9c0.5,0.9,1.2,1.7,1.9,2.5L54,34.3l3.8,2.4l1.5-2.5c1,0.4,2,0.6,3,0.6l0.4,2.8
	l4.5-0.7l-0.4-2.8c1-0.4,1.9-0.8,2.7-1.5l2.2,1.9l3-3.4l-2.1-1.9c0.5-0.9,0.9-1.9,1.1-2.9L76.6,26.6z M65.8,29
	c-2.8,1.5-6.3,0.5-7.8-2.3s-0.5-6.3,2.3-7.8c2.8-1.5,6.3-0.5,7.8,2.3c0,0,0,0,0,0C69.6,24,68.6,27.5,65.8,29L65.8,29z"/>
</svg>
