<?xml version="1.0" encoding="utf-8"?>
<!-- Generator: Adobe Illustrator 21.1.0, SVG Export Plug-In . SVG Version: 6.00 Build 0)  -->
<svg version="1.1"
	 id="Calque_1" xmlns:cc="http://creativecommons.org/ns#" xmlns:dc="http://purl.org/dc/elements/1.1/" xmlns:inkscape="http://www.inkscape.org/namespaces/inkscape" xmlns:rdf="http://www.w3.org/1999/02/22-rdf-syntax-ns#" xmlns:sodipodi="http://sodipodi.sourceforge.net/DTD/sodipodi-0.dtd" xmlns:svg="http://www.w3.org/2000/svg"
	 xmlns="http://www.w3.org/2000/svg" xmlns:xlink="http://www.w3.org/1999/xlink" x="0px" y="0px" viewBox="0 0 72.1 66"
	 style="enable-background:new 0 0 72.1 66;" xml:space="preserve">
<style type="text/css">
	.st0{fill:#C7C7C7;}
</style>
<path class="st0" d="M70.2,31C70.1,31,70.1,31,70.2,31h-7.3c-0.9-4-4.5-7-8.8-7s-7.8,3-8.8,7H2.1C2,31,2,31,1.9,31
	c-1.1,0.1-2,1-1.9,2.1s1,2,2.1,1.9h43.2c0.9,4,4.5,7,8.8,7s7.8-3,8.8-7h7.2c1.1,0,2-0.9,2-2C72.1,31.9,71.3,31,70.2,31z M54.1,38
	c-2.8,0-5-2.2-5-5c0-2.8,2.2-5,5-5s5,2.2,5,5C59.1,35.8,56.9,38,54.1,38z"/>
<path class="st0" d="M70.2,55C70.1,55,70.1,55,70.2,55H26.8c-0.9-4-4.5-7-8.8-7s-7.8,3-8.8,7H2.1C2,55,2,55,1.9,55
	c-1.1,0.1-2,1-1.9,2.1c0.1,1.1,1,2,2.1,1.9c0,0,0,0,0,0h7.2c0.9,4,4.5,7,8.8,7s7.8-3,8.8-7h43.2c1.1,0,2-0.9,2-2
	C72.1,55.9,71.3,55,70.2,55z M18.1,62c-2.8,0-5-2.2-5-5s2.2-5,5-5s5,2.2,5,5S20.9,62,18.1,62z"/>
<path class="st0" d="M2.1,11h7.2c0.9,4,4.5,7,8.8,7s7.8-3,8.8-7h43.2c1.1,0,2-0.9,2-2c0-1.1-0.9-2-2-2c0,0,0,0-0.1,0H26.8
	c-0.9-4-4.5-7-8.8-7s-7.8,3-8.8,7H2.1C2,7,2,7,1.9,7C0.8,7.1,0,8,0,9.1S1,11.1,2.1,11z M18.1,4c2.8,0,5,2.2,5,5s-2.2,5-5,5
	s-5-2.2-5-5S15.3,4,18.1,4z"/>
</svg>
