<?xml version="1.0" encoding="utf-8"?>
<!-- Generator: Adobe Illustrator 21.1.0, SVG Export Plug-In . SVG Version: 6.00 Build 0)  -->
<svg version="1.1"
	 id="Calque_1" xmlns:cc="http://creativecommons.org/ns#" xmlns:dc="http://purl.org/dc/elements/1.1/" xmlns:inkscape="http://www.inkscape.org/namespaces/inkscape" xmlns:rdf="http://www.w3.org/1999/02/22-rdf-syntax-ns#" xmlns:sodipodi="http://sodipodi.sourceforge.net/DTD/sodipodi-0.dtd" xmlns:svg="http://www.w3.org/2000/svg"
	 xmlns="http://www.w3.org/2000/svg" xmlns:xlink="http://www.w3.org/1999/xlink" x="0px" y="0px" viewBox="0 0 92 75"
	 style="enable-background:new 0 0 92 75;" xml:space="preserve">
<style type="text/css">
	.st0{fill:#BDCBD1;}
</style>
<path class="st0" d="M3,0C1.3,0,0,1.3,0,3v69c0,1.7,1.3,3,3,3h86c1.7,0,3-1.3,3-3V3c0-1.7-1.3-3-3-3H3z M3,2h86c0.6,0,1,0.4,1,1v9H2
	V3C2,2.4,2.4,2,3,2z M6.8,4.2c-1,0-1.9,0.9-1.9,1.9c0,0,0,0,0,0c0,1,0.9,1.9,1.9,1.9c0,0,0,0,0,0c1,0,1.9-0.9,1.9-1.9
	C8.7,5.1,7.8,4.2,6.8,4.2z M12.2,4.2c-1,0-1.9,0.9-1.9,1.9c0,1,0.8,1.9,1.9,1.9c1,0,1.9-0.9,1.9-1.9c0,0,0,0,0,0
	C14.1,5.1,13.2,4.2,12.2,4.2C12.2,4.2,12.2,4.2,12.2,4.2z M17.6,4.2c-1,0-1.9,0.9-1.9,1.9c0,0,0,0,0,0c0,1,0.9,1.9,1.9,1.9
	c0,0,0,0,0,0c1,0,1.9-0.9,1.9-1.9c0,0,0,0,0,0C19.5,5.1,18.6,4.2,17.6,4.2C17.6,4.2,17.6,4.2,17.6,4.2z M2,13h88v59c0,0.6-0.4,1-1,1
	H3c-0.6,0-1-0.4-1-1V13z M46.6,19.8l-3.5,0.3c-0.4,0.1-0.6,0.3-0.7,0.6l-0.8,3l-2,0.7l-2.5-1.8c-0.3-0.2-0.6-0.2-0.9,0l-2.9,2
	c-0.3,0.2-0.4,0.5-0.3,0.8l0.8,3l-1.4,1.7l-3.1-0.3c-0.3-0.1-0.6,0.1-0.7,0.4l-1.5,3.2c-0.2,0.2-0.1,0.6,0.1,0.8l2.2,2.2L29,38.5
	l-2.8,1.3c-0.3,0.1-0.4,0.4-0.4,0.7l0.3,3.5c0.1,0.4,0.3,0.6,0.6,0.7l3,0.8l0.7,2L28.6,50c-0.2,0.3-0.2,0.6,0,0.9l2,2.9
	c0.2,0.3,0.5,0.4,0.8,0.3l3-0.8l1.7,1.4l-0.3,3.1c-0.1,0.3,0.1,0.6,0.4,0.7l3.2,1.5c0.3,0.1,0.6,0,0.9-0.2l2.2-2.2l2.1,0.4l1.2,2.8
	c0.1,0.2,0.4,0.4,0.7,0.4L50,61c0.4-0.1,0.6-0.3,0.7-0.6l0.8-3l2-0.7l2.5,1.8c0.3,0.2,0.6,0.2,0.9,0l2.9-2c0.3-0.2,0.4-0.5,0.3-0.8
	l-0.8-3l1.4-1.7l3,0.2c0.3,0.1,0.6-0.1,0.7-0.4l1.5-3.2c0.2-0.2,0.1-0.6-0.1-0.8l-2.2-2.2l0.4-2.1l2.9-1.3c0.3-0.1,0.4-0.4,0.4-0.7
	L67,37c-0.1-0.4-0.3-0.6-0.6-0.7l-3-0.8l-0.7-2l1.8-2.5c0.2-0.3,0.2-0.6,0-0.9l-2-2.9c-0.2-0.3-0.5-0.4-0.8-0.3l-3,0.8L57,26.3
	l0.3-3c0.1-0.3-0.1-0.6-0.4-0.7l-3.2-1.5c-0.2-0.2-0.6-0.1-0.8,0.1l-2.2,2.2L48.6,23l-1.3-2.8C47.2,19.9,46.9,19.8,46.6,19.8z
	 M45.9,21.2l1.3,2.7c0.1,0.2,0.3,0.4,0.5,0.4l2.9,0.5c0.3,0.1,0.5,0,0.7-0.2l2.1-2.1l2.2,1l-0.3,3c0,0.2,0.1,0.4,0.3,0.6l2.3,1.9
	c0.2,0.1,0.5,0.2,0.7,0.1l2.9-0.8l1.4,2l-1.7,2.4c-0.1,0.2-0.2,0.5-0.1,0.7l1,2.8c0.1,0.3,0.3,0.4,0.5,0.5l2.9,0.8l0.2,2.4L63,41.2
	c-0.2,0.1-0.4,0.3-0.4,0.5l-0.5,2.9c0,0.3,0,0.5,0.2,0.7l2.1,2.1l-1,2.2l-3-0.3c-0.2,0-0.4,0.1-0.6,0.3l-1.9,2.3
	c-0.1,0.2-0.2,0.5-0.1,0.7l0.8,2.9l-2,1.4l-2.4-1.7C54,55,53.7,55,53.5,55.1l-2.8,1c-0.3,0.1-0.4,0.3-0.5,0.5l-0.8,2.9L47,59.7
	L45.7,57c-0.1-0.2-0.3-0.4-0.5-0.4l-2.9-0.5h-0.1c-0.2,0-0.4,0-0.5,0.2l-2.1,2.1l-2.2-1l0.3-3c0-0.2-0.1-0.4-0.3-0.6l-2.3-1.9
	c-0.2-0.1-0.5-0.2-0.7-0.1l-2.9,0.8l-1.4-2l1.7-2.4c0.1-0.2,0.2-0.5,0.1-0.7l-1-2.8c-0.1-0.3-0.3-0.4-0.5-0.5l-2.9-0.8L27.3,41
	l2.6-1.3c0.2-0.1,0.4-0.3,0.4-0.5l0.5-2.9c0-0.3,0-0.5-0.2-0.7l-2.1-2.1l1-2.2l3,0.3c0.2,0,0.4-0.1,0.6-0.3L35,29
	c0.1-0.2,0.2-0.5,0.1-0.7l-0.8-2.9l2-1.4l2.4,1.7c0.2,0.1,0.5,0.2,0.7,0.1l2.8-1c0.3-0.1,0.4-0.3,0.5-0.5l0.8-2.9L45.9,21.2z
	 M46.5,30.9c-5.3,0-9.6,4.3-9.6,9.6s4.3,9.6,9.6,9.6c5.4,0,9.6-4.3,9.6-9.6S51.8,30.9,46.5,30.9z M46.5,32.4c4.5,0,8.1,3.7,8.1,8.1
	s-3.6,8.1-8.1,8.1c-4.4,0-8.1-3.7-8.1-8.1S42,32.4,46.5,32.4z"/>
</svg>
