<?xml version="1.0" encoding="utf-8"?>
<!-- Generator: Adobe Illustrator 21.1.0, SVG Export Plug-In . SVG Version: 6.00 Build 0)  -->
<svg version="1.1" id="Calque_1" xmlns="http://www.w3.org/2000/svg" xmlns:xlink="http://www.w3.org/1999/xlink" x="0px" y="0px"
	 viewBox="0 0 121.9 77.7" style="enable-background:new 0 0 121.9 77.7;" xml:space="preserve">
<style type="text/css">
	.st0{fill:#00B7E2;}
	.st1{fill:#05DB38;}
</style>
<path class="st0" d="M29.4,77.7C13.2,77.7,0,64.5,0,48.3s13.2-29.4,29.4-29.4c16.2,0,29.4,13.2,29.4,29.4S45.6,77.7,29.4,77.7z
	 M29.4,19.7c-15.8,0-28.6,12.8-28.6,28.6s12.8,28.6,28.6,28.6C45.1,76.9,58,64.1,58,48.3S45.1,19.7,29.4,19.7z"/>
<path class="st1" d="M99.2,45.4c-12.5,0-22.7-10.2-22.7-22.7S86.7,0,99.2,0c12.5,0,22.7,10.2,22.7,22.7S111.7,45.4,99.2,45.4z
	 M99.2,0.6c-12.2,0-22.1,9.9-22.1,22.1S87,44.8,99.2,44.8c12.2,0,22.1-9.9,22.1-22.1S111.3,0.6,99.2,0.6z"/>
<g>
	
		<rect x="58.1" y="33.8" transform="matrix(0.9018 -0.4321 0.4321 0.9018 -8.4608 31.1832)" class="st0" width="12.5" height="0.8"/>
	<g>
		<polygon class="st0" points="74.8,29.2 69.4,35.2 69.7,31.7 66.8,29.7 		"/>
	</g>
</g>
<g>
	<path class="st0" d="M29.4,47.7c4.9,0,9.2-4.5,9.2-9.5c0-4.9-4.1-8.9-9.2-8.9s-9.2,4-9.2,8.9C20.2,43.2,24.5,47.7,29.4,47.7z
		 M29.4,31.8c3.6,0,6.6,2.8,6.6,6.3c0,3.6-3.2,6.9-6.6,6.9c-3.5,0-6.6-3.3-6.6-6.9C22.8,34.6,25.7,31.8,29.4,31.8z"/>
	<path class="st0" d="M38,47.8l-0.8-0.4l-0.7,0.6c-2.1,1.8-4.6,2.7-7.1,2.7s-5.1-1-7.1-2.7l-0.7-0.6l-0.8,0.4
		c-4.8,2.6-7.7,8-7.5,13.8c0,0.4,0.6,5.9,0.6,5.9h31c0,0,0.6-5.4,0.6-5.9C45.7,55.7,42.8,50.3,38,47.8z M42.5,64.8H16.2
		c0,0-0.3-3-0.4-3.3c-0.2-4.5,1.9-8.7,5.4-10.9c2.4,1.8,5.2,2.8,8.1,2.8s5.7-1,8.1-2.8c3.5,2.2,5.6,6.4,5.4,10.9
		C42.8,61.8,42.5,64.8,42.5,64.8z"/>
</g>
<g>
	<path class="st1" d="M99.2,22.2c3.6,0,6.7-3.2,6.7-6.9c0-3.5-3-6.4-6.7-6.4c-3.7,0-6.7,2.9-6.7,6.4C92.5,19,95.6,22.2,99.2,22.2z
		 M99.2,10.8c2.6,0,4.8,2,4.8,4.5c0,2.6-2.3,5-4.8,5c-2.5,0-4.8-2.4-4.8-5C94.4,12.8,96.6,10.8,99.2,10.8z"/>
	<path class="st1" d="M105.4,22.3l-0.6-0.3l-0.5,0.4c-1.5,1.3-3.3,2-5.2,2s-3.7-0.7-5.2-2L93.5,22L93,22.3c-3.5,1.8-5.6,5.7-5.4,9.9
		c0,0.3,0.5,4.2,0.5,4.2h22.4c0,0,0.4-3.9,0.5-4.2C111,28,108.9,24.1,105.4,22.3z M108.7,34.6h-19c0,0-0.2-2.2-0.3-2.4
		c-0.1-3.2,1.4-6.3,3.9-7.9c1.7,1.3,3.8,2,5.9,2c2.1,0,4.1-0.7,5.9-2c2.5,1.6,4,4.6,3.9,7.9C108.9,32.4,108.7,34.6,108.7,34.6z"/>
</g>
</svg>
