<?xml version="1.0" encoding="utf-8"?>
<!-- Generator: Adobe Illustrator 21.1.0, SVG Export Plug-In . SVG Version: 6.00 Build 0)  -->
<svg version="1.1" id="Calque_1" xmlns="http://www.w3.org/2000/svg" xmlns:xlink="http://www.w3.org/1999/xlink" x="0px" y="0px"
	 viewBox="0 0 89.9 50" style="enable-background:new 0 0 89.9 50;" xml:space="preserve">
<style type="text/css">
	.st0{fill:#FFC200;}
</style>
<path class="st0" d="M89,40.8c-0.5-0.4-1.2-0.8-2-1.2c-3-1.5-11.1-2-12.7-2.1c-1.7-0.2-2.1-1.9-2.1-1.9s2.2-5.6-0.4-8.6
	c7.8,1,11.1-2.5,12-5.9c0.7-2.6-0.3-4.2-5.9-6.4c-2.1-0.8-3.8-6.3-3.8-6.3C68.8,6,65.5,8.2,63.9,8.2c0,0-4.7-6.6-26.4-8.2h-0.1
	c-3.9-0.5-5,5.3-1.2,6.3c0.5,0.1,0.9,0.3,1.3,0.3C42.8,7.1,52.5,8,56,8.8c7.3,1.6,6.6,5.3,1.8,6.1C54,15.5,40,12.5,30.9,15.8
	c-10.7,3.8-9.8,11.5-9.6,14.2c0.1,1,0.4,1.9,0.5,2.8c0.4,2-9.2-0.3-10.6-0.7c-0.4-0.1-0.9,0.1-1,0.5c-0.6,1.6-2.2,5.5-3.4,7.7
	c-1.5,2.9-3.1,4.3-4.9,4.8c0,0,0,0-0.1,0c-2.9,0.8-2,5.2,0.9,4.8c0.3,0,0.6-0.1,0.8-0.2c4-1.1,9.7-11.1,9.7-11.1s9.7,8.1,14.8,6.8
	c5.1-1.4,6.6-8.9,12.6-10.5c8.8-2.4,9.3,3.6,24.6,4.4c0,0,1.7,2.6,3.2,3.3c1.4,0.7,11.4-0.2,13.8,0.2c1.4,0.3,3,1.2,4.1,1.9
	c0.9,0.6,2.1,0.4,2.8-0.5C90.3,43,90,41.6,89,40.8z"/>
<circle class="st0" cx="22.3" cy="14.7" r="3.3"/>
</svg>
