<?xml version="1.0" encoding="utf-8"?>
<!-- Generator: Adobe Illustrator 21.1.0, SVG Export Plug-In . SVG Version: 6.00 Build 0)  -->
<svg version="1.1" id="Calque_1" xmlns="http://www.w3.org/2000/svg" xmlns:xlink="http://www.w3.org/1999/xlink" x="0px" y="0px"
	 viewBox="0 0 88.2 98" style="enable-background:new 0 0 88.2 98;" xml:space="preserve">
<style type="text/css">
	.st0{fill:none;}
	.st1{fill:#FFE600;}
	.st2{fill:#00E5D4;}
</style>
<title>Artboard 29</title>
<path class="st0" d="M48.9,54.9c-1.2-0.6-2.3-1.2-3.6-1.6l-0.5-0.2c-0.7-0.3-1.4-0.6-2-1.1c-0.4-0.3-0.6-0.7-0.5-1.2
	c0.1-0.5,0.4-0.8,0.9-1c0.3-0.1,0.7-0.2,1.1-0.2c1.6-0.1,3.2,0.2,4.6,0.9c0.4,0.3,1,0.3,1.5,0.2c0.4-0.2,0.7-0.7,0.8-1.2
	c0.2-0.6,0.4-1.3,0.6-1.9l0.2-0.7c0,0,0,0,0,0c0.3-0.8-0.2-1.8-1-2c-1.1-0.5-2.2-0.8-3.3-1c-0.8-0.2-0.8-0.2-0.8-1
	c0-2.2-0.2-2.7-2.5-2.7h-1.2c-1.3,0-1.8,0.5-1.8,1.8c0,0.3,0,0.6,0,0.8v0.5c0,0.7,0,0.7-0.8,1c-3.4,1.2-5.2,3.5-5.4,6.9
	c-0.1,2.9,1.2,5.1,4,6.8c1,0.6,2.1,1.1,3.2,1.5c0.5,0.2,0.9,0.4,1.4,0.6c0.5,0.2,1,0.5,1.5,0.9c0.3,0.2,0.5,0.5,0.6,0.8
	c0.3,0.8-0.2,1.7-1,2c-0.8,0.3-1.7,0.4-2.5,0.3c-1.5-0.2-2.9-0.6-4.2-1.3c-0.3-0.2-0.6-0.3-1-0.3c-0.9,0-1.2,0.9-1.3,1.3
	c-0.2,0.8-0.4,1.5-0.7,2.3c-0.4,1.4-0.1,2,1.2,2.6c1.3,0.6,2.7,1,4.2,1.2l0.5,0.1c0,0.2,0,0.5,0,0.6V72c0,0.1,0,0.2,0,0.2
	c0.1,0.9,0.8,1.6,1.7,1.5h1.1h1.2c0,0,0.1,0,0.1,0c0.9-0.1,1.5-0.8,1.4-1.7c0-0.2,0-0.4,0-0.6v-0.1c0-0.5,0-1.1,0-1.4s0-0.4,0.4-0.5
	c1.7-0.4,3.2-1.4,4.3-2.8v0c1.4-1.7,2-4,1.6-6.2C52.6,58.1,51.1,56,48.9,54.9z"/>
<path class="st0" d="M44.1,25.8C26.9,25.8,13,39.8,13,56.9C13,74.1,26.9,88,44.1,88c17.2,0,31.1-13.9,31.1-31.1
	C75.2,39.8,61.3,25.9,44.1,25.8z M44.1,80.8c-13.2,0-23.9-10.7-23.9-23.9C20.2,43.7,30.9,33,44.1,33c0,0,0,0,0,0
	C57.3,33,68,43.7,68,56.9C68,70.1,57.3,80.8,44.1,80.8z"/>
<path class="st1" d="M44.1,33C44.1,33,44.1,33,44.1,33c-13.2,0-23.9,10.7-23.9,23.9c0,13.2,10.7,23.9,23.9,23.9
	C57.3,80.8,68,70.1,68,56.9C68,43.7,57.3,33,44.1,33z M51.4,66.7L51.4,66.7c-1.1,1.3-2.6,2.3-4.3,2.8c-0.4,0.1-0.5,0.2-0.4,0.5
	s0,0.9,0,1.4v0.1c0,0.2,0,0.4,0,0.6c0.1,0.9-0.6,1.6-1.4,1.7c0,0-0.1,0-0.1,0h-1.2h-1.1c-0.9,0.1-1.6-0.6-1.7-1.5c0-0.1,0-0.2,0-0.2
	v-1.5c0-0.1,0-0.4,0-0.6l-0.5-0.1c-1.4-0.2-2.9-0.6-4.2-1.2c-1.3-0.6-1.6-1.2-1.2-2.6c0.2-0.8,0.4-1.6,0.7-2.3
	c0.1-0.4,0.4-1.3,1.3-1.3c0.4,0,0.7,0.1,1,0.3c1.3,0.7,2.7,1.1,4.2,1.3c0.9,0.1,1.7,0,2.5-0.3c0.8-0.3,1.3-1.2,1-2
	c-0.1-0.3-0.3-0.6-0.6-0.8c-0.4-0.4-0.9-0.7-1.5-0.9c-0.5-0.2-0.9-0.4-1.4-0.6c-1.1-0.4-2.2-0.9-3.2-1.5c-2.8-1.7-4.1-3.9-4-6.8
	c0.2-3.3,2-5.7,5.4-6.9c0.8-0.3,0.8-0.3,0.8-1v-0.5c0-0.3,0-0.6,0-0.8c0-1.3,0.5-1.8,1.8-1.8h1.2c2.3,0,2.5,0.5,2.5,2.7
	c0,0.8,0,0.8,0.8,1c1.1,0.2,2.3,0.5,3.3,1c0.8,0.3,1.3,1.2,1,2c0,0,0,0,0,0l-0.2,0.7c-0.2,0.6-0.4,1.3-0.6,1.9
	c-0.1,0.5-0.4,0.9-0.8,1.2c-0.5,0.2-1,0.1-1.5-0.2c-1.4-0.7-3-1-4.6-0.9c-0.4,0-0.7,0.1-1.1,0.2c-0.4,0.2-0.8,0.5-0.9,1
	c0,0.5,0.2,0.9,0.5,1.2c0.6,0.5,1.3,0.8,2,1.1l0.5,0.2c1.2,0.5,2.4,1,3.6,1.6c2.1,1.1,3.6,3.2,4.1,5.5
	C53.4,62.7,52.8,64.9,51.4,66.7z"/>
<path class="st2" d="M81.5,28.6c1.2,0.9,2.8,0.6,3.7-0.6c5.1-6.9,3.6-16.6-3.3-21.7c0,0,0,0,0,0C75,1.2,65.3,2.7,60.2,9.6
	c0,0,0,0,0,0c-0.9,1.2-0.6,2.9,0.6,3.7c0,0,0,0,0,0l7,5.1L65.2,22c-4.9-3-10.4-4.9-16.2-5.6v-6.1h1.9c2.6,0,4.7-2.1,4.7-4.7V4.7
	c0-2.6-2.1-4.7-4.7-4.7H37.3c-2.6,0-4.7,2.1-4.7,4.7v0.8c0,2.6,2.1,4.7,4.7,4.7h1.9v6.1C33.5,17.1,27.9,19,23,22l-2.6-3.5l7-5.1
	c1.2-0.9,1.4-2.6,0.6-3.7c0,0,0,0,0,0C23,2.7,13.2,1.2,6.3,6.3C-0.6,11.4-2.1,21.1,3,28c0.9,1.2,2.6,1.4,3.7,0.6c0,0,0,0,0,0l7-5.1
	l2.6,3.6C1.5,40.7-1,63.2,10.4,79.9c-0.5,1.5-2.5,7-4.2,11.5C5.2,94,6.5,96.8,9,97.7c0.5,0.2,1.1,0.3,1.6,0.3H17
	c1.4,0,2.8-0.6,3.8-1.6l3.7-3.7c12.2,6.7,27,6.7,39.2,0l3.7,3.7c1,1,2.4,1.6,3.8,1.6h6.3c2.7,0,4.9-2.2,4.9-4.9
	c0-0.6-0.1-1.1-0.3-1.7c-1.7-4.5-3.7-10-4.2-11.5c11.4-16.7,8.8-39.2-6-52.9l2.6-3.5L81.5,28.6z M75.2,56.9
	C75.2,74.1,61.3,88,44.1,88C26.9,88,13,74.1,13,56.9c0-17.2,13.9-31.1,31.1-31.1C61.3,25.9,75.2,39.8,75.2,56.9z"/>
</svg>
