<?xml version="1.0" encoding="utf-8"?>
<!-- Generator: Adobe Illustrator 21.1.0, SVG Export Plug-In . SVG Version: 6.00 Build 0)  -->
<svg version="1.1" id="Calque_1" xmlns="http://www.w3.org/2000/svg" xmlns:xlink="http://www.w3.org/1999/xlink" x="0px" y="0px"
	 viewBox="0 0 314.2 384.1" style="enable-background:new 0 0 314.2 384.1;" xml:space="preserve">
<style type="text/css">
	.st0{fill:#0695FF;}
	.st1{fill:#F4AE00;}
	.st2{fill:none;stroke:#0695FF;stroke-miterlimit:10;}
</style>
<g>
	<path class="st0" d="M93,173.4C93,173.4,93,173.4,93,173.4l-9.6-9.6c0,0,0,0,0,0l-0.2-0.2H59.7c-1.4,0-2.5,1.1-2.5,2.5V210
		c0,1.4,1.1,2.5,2.5,2.5h31c1.4,0,2.5-1.1,2.5-2.5v-36.5L93,173.4z M83.6,165.8l7.3,7.3h-6.3c-0.6,0-1-0.5-1-1V165.8z M90.7,211.2
		h-31c-0.7,0-1.2-0.5-1.2-1.2v-43.9c0-0.7,0.5-1.2,1.2-1.2h22.6v7.2c0,1.3,1.1,2.4,2.4,2.4h7.2V210
		C91.9,210.7,91.3,211.2,90.7,211.2z"/>
	<g>
		<path class="st1" d="M87.4,179.7H63.2c-0.4,0-0.7-0.3-0.7-0.7c0-0.4,0.3-0.7,0.7-0.7h24.2c0.4,0,0.7,0.3,0.7,0.7
			C88.1,179.4,87.8,179.7,87.4,179.7z"/>
		<path class="st1" d="M87.4,183.9H63.2c-0.4,0-0.7-0.3-0.7-0.7s0.3-0.7,0.7-0.7h24.2c0.4,0,0.7,0.3,0.7,0.7S87.8,183.9,87.4,183.9z
			"/>
		<path class="st1" d="M87.4,188.1H63.2c-0.4,0-0.7-0.3-0.7-0.7s0.3-0.7,0.7-0.7h24.2c0.4,0,0.7,0.3,0.7,0.7S87.8,188.1,87.4,188.1z
			"/>
		<path class="st1" d="M87.4,192.3H63.2c-0.4,0-0.7-0.3-0.7-0.7c0-0.4,0.3-0.7,0.7-0.7h24.2c0.4,0,0.7,0.3,0.7,0.7
			C88.1,192,87.8,192.3,87.4,192.3z"/>
		<path class="st1" d="M87.4,196.5H63.2c-0.4,0-0.7-0.3-0.7-0.7c0-0.4,0.3-0.7,0.7-0.7h24.2c0.4,0,0.7,0.3,0.7,0.7
			C88.1,196.2,87.8,196.5,87.4,196.5z"/>
		<path class="st1" d="M87.4,200.6H63.2c-0.4,0-0.7-0.3-0.7-0.7c0-0.4,0.3-0.7,0.7-0.7h24.2c0.4,0,0.7,0.3,0.7,0.7
			C88.1,200.3,87.8,200.6,87.4,200.6z"/>
		<path class="st1" d="M87.4,204.8H63.2c-0.4,0-0.7-0.3-0.7-0.7c0-0.4,0.3-0.7,0.7-0.7h24.2c0.4,0,0.7,0.3,0.7,0.7
			C88.1,204.5,87.8,204.8,87.4,204.8z"/>
	</g>
</g>
<line class="st2" x1="111.6" y1="154.5" x2="183.4" y2="113.7"/>
<line class="st2" x1="110.9" y1="219.1" x2="183.3" y2="258"/>
<line class="st2" x1="224.6" y1="153.5" x2="224.6" y2="225.4"/>
<circle class="st2" cx="74.3" cy="188.1" r="36.6"/>
<g>
	<path class="st0" d="M243.3,97.7C243.3,97.7,243.3,97.7,243.3,97.7l-9.6-9.6c0,0,0,0,0,0l-0.2-0.2H210c-1.4,0-2.5,1.1-2.5,2.5v43.9
		c0,1.4,1.1,2.5,2.5,2.5h31c1.4,0,2.5-1.1,2.5-2.5V97.9L243.3,97.7z M233.9,90.2l7.3,7.3H235c-0.6,0-1-0.5-1-1V90.2z M241,135.5h-31
		c-0.7,0-1.2-0.5-1.2-1.2V90.4c0-0.7,0.5-1.2,1.2-1.2h22.6v7.2c0,1.3,1.1,2.4,2.4,2.4h7.2v35.5C242.2,135,241.7,135.5,241,135.5z"/>
	<g>
		<path class="st1" d="M237.8,104h-24.2c-0.4,0-0.7-0.3-0.7-0.7c0-0.4,0.3-0.7,0.7-0.7h24.2c0.4,0,0.7,0.3,0.7,0.7
			C238.4,103.7,238.1,104,237.8,104z"/>
		<path class="st1" d="M237.8,108.2h-24.2c-0.4,0-0.7-0.3-0.7-0.7c0-0.4,0.3-0.7,0.7-0.7h24.2c0.4,0,0.7,0.3,0.7,0.7
			C238.4,107.9,238.1,108.2,237.8,108.2z"/>
		<path class="st1" d="M237.8,112.4h-24.2c-0.4,0-0.7-0.3-0.7-0.7s0.3-0.7,0.7-0.7h24.2c0.4,0,0.7,0.3,0.7,0.7
			S238.1,112.4,237.8,112.4z"/>
		<path class="st1" d="M237.8,116.6h-24.2c-0.4,0-0.7-0.3-0.7-0.7s0.3-0.7,0.7-0.7h24.2c0.4,0,0.7,0.3,0.7,0.7
			S238.1,116.6,237.8,116.6z"/>
		<path class="st1" d="M237.8,120.8h-24.2c-0.4,0-0.7-0.3-0.7-0.7s0.3-0.7,0.7-0.7h24.2c0.4,0,0.7,0.3,0.7,0.7
			S238.1,120.8,237.8,120.8z"/>
		<path class="st1" d="M237.8,124.9h-24.2c-0.4,0-0.7-0.3-0.7-0.7c0-0.4,0.3-0.7,0.7-0.7h24.2c0.4,0,0.7,0.3,0.7,0.7
			C238.4,124.6,238.1,124.9,237.8,124.9z"/>
		<path class="st1" d="M237.8,129.1h-24.2c-0.4,0-0.7-0.3-0.7-0.7c0-0.4,0.3-0.7,0.7-0.7h24.2c0.4,0,0.7,0.3,0.7,0.7
			C238.4,128.8,238.1,129.1,237.8,129.1z"/>
	</g>
</g>
<circle class="st2" cx="224.6" cy="112.4" r="36.6"/>
<g>
	<path class="st0" d="M243.3,256.1C243.3,256.1,243.3,256.1,243.3,256.1l-9.6-9.6c0,0,0,0,0,0l-0.2-0.2H210c-1.4,0-2.5,1.1-2.5,2.5
		v43.9c0,1.4,1.1,2.5,2.5,2.5h31c1.4,0,2.5-1.1,2.5-2.5v-36.5L243.3,256.1z M233.9,248.5l7.3,7.3H235c-0.6,0-1-0.5-1-1V248.5z
		 M241,293.9h-31c-0.7,0-1.2-0.5-1.2-1.2v-43.9c0-0.7,0.5-1.2,1.2-1.2h22.6v7.2c0,1.3,1.1,2.4,2.4,2.4h7.2v35.5
		C242.2,293.4,241.7,293.9,241,293.9z"/>
	<g>
		<path class="st1" d="M237.8,262.4h-24.2c-0.4,0-0.7-0.3-0.7-0.7s0.3-0.7,0.7-0.7h24.2c0.4,0,0.7,0.3,0.7,0.7
			S238.1,262.4,237.8,262.4z"/>
		<path class="st1" d="M237.8,266.6h-24.2c-0.4,0-0.7-0.3-0.7-0.7s0.3-0.7,0.7-0.7h24.2c0.4,0,0.7,0.3,0.7,0.7
			S238.1,266.6,237.8,266.6z"/>
		<path class="st1" d="M237.8,270.8h-24.2c-0.4,0-0.7-0.3-0.7-0.7s0.3-0.7,0.7-0.7h24.2c0.4,0,0.7,0.3,0.7,0.7
			S238.1,270.8,237.8,270.8z"/>
		<path class="st1" d="M237.8,275h-24.2c-0.4,0-0.7-0.3-0.7-0.7s0.3-0.7,0.7-0.7h24.2c0.4,0,0.7,0.3,0.7,0.7S238.1,275,237.8,275z"
			/>
		<path class="st1" d="M237.8,279.2h-24.2c-0.4,0-0.7-0.3-0.7-0.7s0.3-0.7,0.7-0.7h24.2c0.4,0,0.7,0.3,0.7,0.7
			S238.1,279.2,237.8,279.2z"/>
		<path class="st1" d="M237.8,283.3h-24.2c-0.4,0-0.7-0.3-0.7-0.7s0.3-0.7,0.7-0.7h24.2c0.4,0,0.7,0.3,0.7,0.7
			S238.1,283.3,237.8,283.3z"/>
		<path class="st1" d="M237.8,287.5h-24.2c-0.4,0-0.7-0.3-0.7-0.7s0.3-0.7,0.7-0.7h24.2c0.4,0,0.7,0.3,0.7,0.7
			S238.1,287.5,237.8,287.5z"/>
	</g>
</g>
<circle class="st2" cx="224.6" cy="270.8" r="36.6"/>
</svg>
