<?xml version="1.0" encoding="utf-8"?>
<!-- Generator: Adobe Illustrator 21.1.0, SVG Export Plug-In . SVG Version: 6.00 Build 0)  -->
<svg version="1.1" id="Calque_1" xmlns="http://www.w3.org/2000/svg" xmlns:xlink="http://www.w3.org/1999/xlink" x="0px" y="0px"
	 viewBox="0 0 224.6 232.6" style="enable-background:new 0 0 224.6 232.6;" xml:space="preserve">
<style type="text/css">
	.st0{fill:#BDCBD1;}
</style>
<g>
	<path class="st0" d="M55.8,98.1C55.8,98.1,55.8,98.1,55.8,98.1l-9.6-9.6c0,0,0,0,0,0L46,88.3H22.5c-1.4,0-2.5,1.1-2.5,2.5v43.9
		c0,1.4,1.1,2.5,2.5,2.5h31c1.4,0,2.5-1.1,2.5-2.5V98.3L55.8,98.1z M46.4,90.6l7.3,7.3h-6.3c-0.6,0-1-0.5-1-1V90.6z M53.5,135.9h-31
		c-0.7,0-1.2-0.5-1.2-1.2V90.8c0-0.7,0.5-1.2,1.2-1.2h22.6v7.2c0,1.3,1.1,2.4,2.4,2.4h7.2v35.5C54.7,135.4,54.2,135.9,53.5,135.9z"
		/>
	<g>
		<path class="st0" d="M50.2,104.5H26c-0.4,0-0.7-0.3-0.7-0.7c0-0.4,0.3-0.7,0.7-0.7h24.2c0.4,0,0.7,0.3,0.7,0.7
			C50.9,104.2,50.6,104.5,50.2,104.5z"/>
		<path class="st0" d="M50.2,108.6H26c-0.4,0-0.7-0.3-0.7-0.7c0-0.4,0.3-0.7,0.7-0.7h24.2c0.4,0,0.7,0.3,0.7,0.7
			C50.9,108.3,50.6,108.6,50.2,108.6z"/>
		<path class="st0" d="M50.2,112.8H26c-0.4,0-0.7-0.3-0.7-0.7s0.3-0.7,0.7-0.7h24.2c0.4,0,0.7,0.3,0.7,0.7S50.6,112.8,50.2,112.8z"
			/>
		<path class="st0" d="M50.2,117H26c-0.4,0-0.7-0.3-0.7-0.7s0.3-0.7,0.7-0.7h24.2c0.4,0,0.7,0.3,0.7,0.7S50.6,117,50.2,117z"/>
		<path class="st0" d="M50.2,121.2H26c-0.4,0-0.7-0.3-0.7-0.7c0-0.4,0.3-0.7,0.7-0.7h24.2c0.4,0,0.7,0.3,0.7,0.7
			C50.9,120.9,50.6,121.2,50.2,121.2z"/>
		<path class="st0" d="M50.2,125.4H26c-0.4,0-0.7-0.3-0.7-0.7c0-0.4,0.3-0.7,0.7-0.7h24.2c0.4,0,0.7,0.3,0.7,0.7
			C50.9,125.1,50.6,125.4,50.2,125.4z"/>
		<path class="st0" d="M50.2,129.5H26c-0.4,0-0.7-0.3-0.7-0.7c0-0.4,0.3-0.7,0.7-0.7h24.2c0.4,0,0.7,0.3,0.7,0.7
			C50.9,129.2,50.6,129.5,50.2,129.5z"/>
	</g>
</g>
<rect x="69" y="58.3" transform="matrix(0.8693 -0.4942 0.4942 0.8693 -14.6479 62.2133)" class="st0" width="82.6" height="1"/>
<rect x="109.4" y="122.2" transform="matrix(0.4733 -0.8809 0.8809 0.4733 -85.9639 182.8402)" class="st0" width="1" height="82.2"/>
<rect x="186.9" y="78.2" class="st0" width="1" height="71.9"/>
<path class="st0" d="M37.1,149.9C16.7,149.9,0,133.3,0,112.8s16.7-37.1,37.1-37.1s37.1,16.7,37.1,37.1S57.6,149.9,37.1,149.9z
	 M37.1,76.7C17.2,76.7,1,92.9,1,112.8s16.2,36.1,36.1,36.1s36.1-16.2,36.1-36.1S57,76.7,37.1,76.7z"/>
<g>
	<path class="st0" d="M206.1,22.4C206.1,22.4,206.1,22.4,206.1,22.4l-9.6-9.6c0,0,0,0,0,0l-0.2-0.2h-23.6c-1.4,0-2.5,1.1-2.5,2.5V59
		c0,1.4,1.1,2.5,2.5,2.5h31c1.4,0,2.5-1.1,2.5-2.5V22.6L206.1,22.4z M196.7,14.9l7.3,7.3h-6.3c-0.6,0-1-0.5-1-1V14.9z M203.8,60.2
		h-31c-0.7,0-1.2-0.5-1.2-1.2V15.1c0-0.7,0.5-1.2,1.2-1.2h22.6v7.2c0,1.3,1.1,2.4,2.4,2.4h7.2V59C205,59.7,204.5,60.2,203.8,60.2z"
		/>
	<g>
		<path class="st0" d="M200.6,28.8h-24.2c-0.4,0-0.7-0.3-0.7-0.7s0.3-0.7,0.7-0.7h24.2c0.4,0,0.7,0.3,0.7,0.7S200.9,28.8,200.6,28.8
			z"/>
		<path class="st0" d="M200.6,32.9h-24.2c-0.4,0-0.7-0.3-0.7-0.7c0-0.4,0.3-0.7,0.7-0.7h24.2c0.4,0,0.7,0.3,0.7,0.7
			C201.2,32.6,200.9,32.9,200.6,32.9z"/>
		<path class="st0" d="M200.6,37.1h-24.2c-0.4,0-0.7-0.3-0.7-0.7s0.3-0.7,0.7-0.7h24.2c0.4,0,0.7,0.3,0.7,0.7S200.9,37.1,200.6,37.1
			z"/>
		<path class="st0" d="M200.6,41.3h-24.2c-0.4,0-0.7-0.3-0.7-0.7c0-0.4,0.3-0.7,0.7-0.7h24.2c0.4,0,0.7,0.3,0.7,0.7
			C201.2,41,200.9,41.3,200.6,41.3z"/>
		<path class="st0" d="M200.6,45.5h-24.2c-0.4,0-0.7-0.3-0.7-0.7c0-0.4,0.3-0.7,0.7-0.7h24.2c0.4,0,0.7,0.3,0.7,0.7
			C201.2,45.2,200.9,45.5,200.6,45.5z"/>
		<path class="st0" d="M200.6,49.7h-24.2c-0.4,0-0.7-0.3-0.7-0.7c0-0.4,0.3-0.7,0.7-0.7h24.2c0.4,0,0.7,0.3,0.7,0.7
			C201.2,49.4,200.9,49.7,200.6,49.7z"/>
		<path class="st0" d="M200.6,53.9h-24.2c-0.4,0-0.7-0.3-0.7-0.7c0-0.4,0.3-0.7,0.7-0.7h24.2c0.4,0,0.7,0.3,0.7,0.7
			C201.2,53.6,200.9,53.9,200.6,53.9z"/>
	</g>
</g>
<path class="st0" d="M187.4,74.2c-20.5,0-37.1-16.7-37.1-37.1S167,0,187.4,0c20.5,0,37.1,16.7,37.1,37.1S207.9,74.2,187.4,74.2z
	 M187.4,1c-19.9,0-36.1,16.2-36.1,36.1s16.2,36.1,36.1,36.1c19.9,0,36.1-16.2,36.1-36.1S207.4,1,187.4,1z"/>
<g>
	<path class="st0" d="M206.1,180.8C206.1,180.8,206.1,180.8,206.1,180.8l-9.6-9.6c0,0,0,0,0,0l-0.2-0.2h-23.6
		c-1.4,0-2.5,1.1-2.5,2.5v43.9c0,1.4,1.1,2.5,2.5,2.5h31c1.4,0,2.5-1.1,2.5-2.5V181L206.1,180.8z M196.7,173.3l7.3,7.3h-6.3
		c-0.6,0-1-0.5-1-1V173.3z M203.8,218.6h-31c-0.7,0-1.2-0.5-1.2-1.2v-43.9c0-0.7,0.5-1.2,1.2-1.2h22.6v7.2c0,1.3,1.1,2.4,2.4,2.4
		h7.2v35.5C205,218.1,204.5,218.6,203.8,218.6z"/>
	<g>
		<path class="st0" d="M200.6,187.1h-24.2c-0.4,0-0.7-0.3-0.7-0.7s0.3-0.7,0.7-0.7h24.2c0.4,0,0.7,0.3,0.7,0.7
			S200.9,187.1,200.6,187.1z"/>
		<path class="st0" d="M200.6,191.3h-24.2c-0.4,0-0.7-0.3-0.7-0.7c0-0.4,0.3-0.7,0.7-0.7h24.2c0.4,0,0.7,0.3,0.7,0.7
			C201.2,191,200.9,191.3,200.6,191.3z"/>
		<path class="st0" d="M200.6,195.5h-24.2c-0.4,0-0.7-0.3-0.7-0.7s0.3-0.7,0.7-0.7h24.2c0.4,0,0.7,0.3,0.7,0.7
			S200.9,195.5,200.6,195.5z"/>
		<path class="st0" d="M200.6,199.7h-24.2c-0.4,0-0.7-0.3-0.7-0.7c0-0.4,0.3-0.7,0.7-0.7h24.2c0.4,0,0.7,0.3,0.7,0.7
			C201.2,199.4,200.9,199.7,200.6,199.7z"/>
		<path class="st0" d="M200.6,203.9h-24.2c-0.4,0-0.7-0.3-0.7-0.7c0-0.4,0.3-0.7,0.7-0.7h24.2c0.4,0,0.7,0.3,0.7,0.7
			C201.2,203.6,200.9,203.9,200.6,203.9z"/>
		<path class="st0" d="M200.6,208.1h-24.2c-0.4,0-0.7-0.3-0.7-0.7s0.3-0.7,0.7-0.7h24.2c0.4,0,0.7,0.3,0.7,0.7
			S200.9,208.1,200.6,208.1z"/>
		<path class="st0" d="M200.6,212.2h-24.2c-0.4,0-0.7-0.3-0.7-0.7s0.3-0.7,0.7-0.7h24.2c0.4,0,0.7,0.3,0.7,0.7
			S200.9,212.2,200.6,212.2z"/>
	</g>
</g>
<path class="st0" d="M187.4,232.6c-20.5,0-37.1-16.7-37.1-37.1s16.7-37.1,37.1-37.1c20.5,0,37.1,16.7,37.1,37.1
	S207.9,232.6,187.4,232.6z M187.4,159.4c-19.9,0-36.1,16.2-36.1,36.1s16.2,36.1,36.1,36.1c19.9,0,36.1-16.2,36.1-36.1
	S207.4,159.4,187.4,159.4z"/>
</svg>
