<?xml version="1.0" encoding="utf-8"?>
<!-- Generator: Adobe Illustrator 21.1.0, SVG Export Plug-In . SVG Version: 6.00 Build 0)  -->
<svg version="1.1" id="Calque_1" xmlns="http://www.w3.org/2000/svg" xmlns:xlink="http://www.w3.org/1999/xlink" x="0px" y="0px"
	 viewBox="0 0 88.2 73" style="enable-background:new 0 0 88.2 73;" xml:space="preserve">
<style type="text/css">
	.st0{fill:#BDCBD1;}
</style>
<path class="st0" d="M21.3,7.9c0,4.3-3.5,7.9-7.9,7.9s-7.9-3.5-7.9-7.9S9.1,0,13.4,0S21.3,3.5,21.3,7.9z M1.8,39.9
	c-0.1,0.8,2.2,13.2,2,14s-4.4,15-3.7,16.8c0.7,1.8,8,2.7,8.8,2c0.4-0.3,4.5-17.9,5.1-17.4c0.6,0.5-1.7,15.6-0.5,17
	c1.1,1.3,8.8,0.7,9.3,0.1c1-1.4,0.1-19.1,0.1-19.9s-7-12.2-7-12.4s0.5-2.8,0.6-3s8.4,4.4,9.4,4.2c1-0.3,2.6-4.7,2.6-5.1
	s-2.4-1.3-2.8-1.7s8.6,0.9,9.5-0.2c0.6-0.7-0.7-5.2-1.3-6.2c-0.6-0.9-10.6-1-11.5-1.6c-1-0.7-4.6-7.3-5.7-8.6
	c-0.9-1.1-8.7-3-11.1,0.3C4.1,19.9,2.3,36.2,1.8,39.9z M35.3,2.5c-4.3,0-7.9,3.5-7.9,7.9s3.5,7.9,7.9,7.9s7.9-3.5,7.9-7.9
	S39.7,2.5,35.3,2.5z M54.3,14.1c-0.5,1.1,1,2.1,1.6,1.7c7.5-6.3,20.8-5.5,24.8-5.1c0.8,0.1,0.1-0.3,0.1-0.3
	C81.4,10.7,66.4,6.6,54.3,14.1z M61.4,17.3c-0.5,1.1,1,2.1,1.6,1.7c7.5-6.3,20.8-5.5,24.8-5.1c0.8,0.1,0.1-0.3,0.1-0.3
	C88.5,13.9,73.5,9.8,61.4,17.3z M64.4,48.9c-0.1-0.8-9.5-10.8-10.7-12.7v0c0,0-3.8-1.3-4.1-1.6c-0.2-0.2-3.9-4.3-4.1-4.5
	c-0.1-0.1,0.2-0.4,0.4-0.2c0.2,0.2,3.8,4.1,3.9,4.3c0.2,0.1,4.1,1.7,4.1,1.7l0,0c1.6,0,9.3,2.2,9.8,2.2c0.6,0,2.1-5.3,1.4-6
	c-0.7-0.8-10.1-4.2-11.4-4.7c-1-0.4-6.7-7-8.4-8.7c-2.5-2.4-12-0.1-11.2,6.3c0.5,3.5,7.6,20.3,7.8,20.8s9,10.6,9.3,11
	c0.4,0.5,5.4,16.3,6.4,16.4c1.8,0.1,6.3-1.3,7.8-2.4l-7.7-18.4c-0.1-0.4-2.5-4-2.2-4.3c0.2-0.2,2.6,3.3,2.9,3.8
	c0.3,0.6,5.9,14.4,7.6,18.8c1.1,0,5.8-3.5,6-4C72.5,65.4,64.5,49.8,64.4,48.9z"/>
</svg>
