<?xml version="1.0" encoding="utf-8"?>
<!-- Generator: Adobe Illustrator 21.1.0, SVG Export Plug-In . SVG Version: 6.00 Build 0)  -->
<svg version="1.1" id="Calque_1" xmlns="http://www.w3.org/2000/svg" xmlns:xlink="http://www.w3.org/1999/xlink" x="0px" y="0px"
	 viewBox="0 0 88.2 73" style="enable-background:new 0 0 88.2 73;" xml:space="preserve">
<style type="text/css">
	.st0{fill:#C9067F;}
	.st1{fill:#89E20A;}
	.st2{fill:#FFDA00;}
</style>
<path class="st0" d="M22.3,26.3c-1-0.7-4.6-7.3-5.7-8.6c-0.9-1.1-8.7-3-11.1,0.3c-1.3,1.9-3.2,18.2-3.7,21.8c-0.1,0.8,2.2,13.2,2,14
	s-4.4,15-3.7,16.8c0.7,1.8,8,2.7,8.8,2c0.4-0.3,4.5-17.9,5.1-17.4c0.6,0.5-1.7,15.6-0.5,17c1.1,1.3,8.8,0.7,9.3,0.1
	c1-1.4,0.1-19.1,0.1-19.9c0-0.7-7-12.2-7-12.4c0-0.2,0.5-2.8,0.6-3c0.1-0.2,8.4,4.4,9.4,4.2c1-0.3,2.6-4.7,2.6-5.1
	c0-0.4-2.4-1.3-2.8-1.7c-0.4-0.4,8.6,0.9,9.5-0.2c0.6-0.7-0.7-5.2-1.3-6.2C33.2,27.1,23.3,27,22.3,26.3z"/>
<path class="st1" d="M80.9,10.5C80.9,10.5,80.9,10.5,80.9,10.5C80.9,10.5,80.9,10.5,80.9,10.5z"/>
<path class="st1" d="M88,13.7C88,13.7,88,13.7,88,13.7C88,13.7,88,13.7,88,13.7z"/>
<path class="st2" d="M88,13.7c-0.5-0.1-14.9-3.6-26.6,3.6c-0.5,1.1,1,2.1,1.6,1.7c7.5-6.3,20.8-5.5,24.8-5.1
	C88.6,14.1,87.9,13.7,88,13.7z"/>
<path class="st2" d="M53.6,36.1L53.6,36.1c0,0-3.8-1.3-4.1-1.6c-0.2-0.2-3.9-4.3-4.1-4.5c-0.1-0.1,0.2-0.4,0.4-0.2
	c0.2,0.2,3.8,4.1,3.9,4.3c0.2,0.1,4.1,1.7,4.1,1.7l0,0c1.6,0,9.3,2.2,9.8,2.2c0.6,0,2.1-5.3,1.4-6c-0.7-0.8-10.1-4.2-11.4-4.7
	c-1-0.4-6.7-7-8.4-8.7c-2.5-2.4-12-0.1-11.2,6.3c0.5,3.5,7.6,20.3,7.8,20.8c0.2,0.5,9,10.6,9.3,11c0.4,0.5,5.4,16.3,6.4,16.3
	c1.8,0.1,6.3-1.3,7.8-2.4l-7.7-18.4c-0.1-0.4-2.5-4-2.2-4.3c0.2-0.2,2.6,3.3,2.9,3.8c0.3,0.6,5.9,14.4,7.6,18.8c1.1,0,5.8-3.5,6-4
	c0.4-1.1-7.6-16.7-7.7-17.6C64.3,48.1,54.9,38.1,53.6,36.1z"/>
<circle class="st0" cx="13.4" cy="7.9" r="7.9"/>
<path class="st2" d="M55.9,15.9c7.5-6.3,20.8-5.5,24.8-5.1c0.7,0.1,0.1-0.3,0.1-0.3c-0.5-0.1-14.9-3.6-26.6,3.6
	C53.8,15.3,55.3,16.3,55.9,15.9z"/>
<circle class="st2" cx="35.3" cy="10.3" r="7.9"/>
</svg>
