<?xml version="1.0" encoding="utf-8"?>
<!-- Generator: Adobe Illustrator 21.1.0, SVG Export Plug-In . SVG Version: 6.00 Build 0)  -->
<svg version="1.1" id="Calque_1" xmlns="http://www.w3.org/2000/svg" xmlns:xlink="http://www.w3.org/1999/xlink" x="0px" y="0px"
	 viewBox="0 0 32 32" style="enable-background:new 0 0 32 32;" xml:space="preserve">
<style type="text/css">
	.st0{fill:#BDCBD1;}
</style>
<g>
	<path class="st0" d="M25,11c-0.6,0-1-0.4-1-1V4.5C24,3.7,24.7,3,25.5,3H31c0.6,0,1,0.4,1,1s-0.4,1-1,1h-5v5C26,10.6,25.6,11,25,11z
		"/>
	<path class="st0" d="M16,32C7.2,32,0,24.8,0,16S7.2,0,16,0c0.6,0,1,0.4,1,1s-0.4,1-1,1C8.3,2,2,8.3,2,16s6.3,14,14,14s14-6.3,14-14
		c0-3.7-1.5-7.3-4.1-9.9c-0.4-0.4-0.4-1,0-1.4s1-0.4,1.4,0c3,3,4.7,7,4.7,11.3C32,24.8,24.8,32,16,32z"/>
	<path class="st0" d="M21,17h-5c-0.6,0-1-0.4-1-1V8c0-0.6,0.4-1,1-1s1,0.4,1,1v7h4c0.6,0,1,0.4,1,1S21.6,17,21,17z"/>
</g>
</svg>
