<?xml version="1.0" encoding="utf-8"?>
<!-- Generator: Adobe Illustrator 21.1.0, SVG Export Plug-In . SVG Version: 6.00 Build 0)  -->
<svg version="1.1" id="Calque_1" xmlns="http://www.w3.org/2000/svg" xmlns:xlink="http://www.w3.org/1999/xlink" x="0px" y="0px"
	 viewBox="0 0 76.4 68.6" style="enable-background:new 0 0 76.4 68.6;" xml:space="preserve">
<style type="text/css">
	.st0{fill:#BDCBD1;}
</style>
<g>
	<path class="st0" d="M76.1,39.3c-2.7-3.6-6.4-6.4-10.7-8.1l-11.6-4.5l4.7-4.7c4.1-4.1,4.1-10.9,0-15c-2-2-4.7-3.1-7.5-3.1
		c-2.8,0-5.5,1.1-7.5,3.1l-0.1,0.1H24.3c-1.6,0-3.1,0.7-4.2,1.9c-1.1,1.2-1.6,2.8-1.4,4.4c0.3,2.9,2.8,5,5.7,5h3.1
		c0.6,0,1.1-0.4,1.3-0.9s0.1-1.2-0.4-1.5c-0.3-0.3-0.4-0.6-0.4-1c0-0.7,0.6-1.3,1.4-1.4c0.8,0,1.4,0.6,1.4,1.4c0,0.9,0.3,1.8,1,2.4
		c0.2,0.2,0.5,0.4,0.8,0.6L16.5,34.1L16.3,20C16.1,11.2,10.6,3.3,2.5,0.3C2.3,0.2,2.1,0.1,1.8,0.1C1.4-0.1,0.9,0,0.5,0.3
		C0.2,0.6,0,1.1,0,1.6C1.1,16.2,2.8,31,4.9,45.7l-0.7,0.7c-2,2-3.1,4.7-3.1,7.5c0,2.8,1.1,5.5,3.1,7.5s4.7,3.1,7.5,3.1
		c2.8,0,5.5-1.1,7.5-3.1L41,39.7l1.4,4.3c-0.7,0.4-1.3,1-1.7,1.7c-0.5,0.9-0.5,1.9-0.2,2.9c0.3,1,1,1.7,1.9,2.2l1,0.5
		c-0.2,0.3-0.4,0.5-0.6,0.9c-0.5,0.9-0.5,1.9-0.2,2.9c0.3,1,1,1.7,1.9,2.2l2.4,1.2c-0.3,0.3-0.5,0.7-0.7,1c-0.8,1.8,0.1,4,1.9,4.9
		c1.6,0.8,3.1,1.7,4.5,2.8l1.6,1.1c0.2,0.2,0.5,0.3,0.8,0.3c0.3,0,0.6-0.1,0.8-0.3c0.5-0.4,0.7-1,0.5-1.6l-1.7-5
		c1.4-0.1,2.6-0.9,3.2-2.1c0.9-1.9,0.2-4.2-1.7-5.1l-1-0.5c0.2-0.3,0.4-0.5,0.6-0.9c0.9-1.9,0.2-4.2-1.7-5.1l-0.9-0.4
		c0.2-0.2,0.4-0.5,0.5-0.7c0.4-0.9,0.5-1.9,0.2-2.9c-0.6-1.8-2.5-2.9-4.3-2.5l-2.3-6.9L62,40.3c2.8,1.1,5.8,1.6,8.8,1.6
		c1.5,0,3-0.1,4.5-0.4c0.5-0.1,0.9-0.4,1.1-0.9C76.5,40.2,76.4,39.7,76.1,39.3z M34,15.6c-0.1,0-0.2,0-0.3-0.1
		c-0.1-0.1-0.2-0.3-0.2-0.5c0-2.3-1.9-4.2-4.2-4.2c0,0-0.1,0-0.1,0c-2.2,0.1-4.1,1.9-4.1,4.2c0,0.2,0,0.4,0,0.6h-0.8
		c-1.5,0-2.8-1.1-2.9-2.5c-0.1-0.8,0.2-1.6,0.7-2.2c0.5-0.6,1.3-0.9,2.1-0.9h16.4L35,15.6L34,15.6L34,15.6z M3,3.6
		c6.2,3,10.4,9.4,10.5,16.5l0.3,16.9l-6.3,6.3C5.5,30,4.1,16.7,3,3.6z M7.2,60.2c-0.3-0.2-0.7-0.5-1-0.8c-0.3-0.3-0.6-0.6-0.8-0.9
		l2-2l1.8,1.8L7.2,60.2z M17.2,59.4c-1.5,1.5-3.4,2.3-5.5,2.3c-0.6,0-1.2-0.1-1.8-0.2l2.3-2.3c0.5-0.6,0.5-1.4,0-2l-3.7-3.7
		c-0.3-0.3-0.6-0.4-1-0.4s-0.7,0.1-1,0.4l-2.3,2.3c-0.1-0.6-0.2-1.2-0.2-1.8c0-2.1,0.8-4,2.3-5.5L45.6,9c1.5-1.5,3.4-2.3,5.5-2.3
		c2.1,0,4,0.8,5.5,2.3c3,3,3,8,0,11L17.2,59.4z M49.5,61.9c-0.5-0.2-0.7-0.8-0.5-1.3c0.2-0.4,0.5-0.6,0.9-0.6c0.1,0,0.3,0,0.4,0.1
		l0.2,0.1c0.6,0.4,1.1,0.9,1.4,1.6c0,0,0,0,0,0c0,0,0,0,0,0c0,0.1,0.1,0.2,0.1,0.3l0.5,1.4C51.5,62.9,50.5,62.4,49.5,61.9z
		 M55.5,58.4c-0.2,0.5-0.8,0.7-1.3,0.4l-8.3-4.1c-0.2-0.1-0.4-0.3-0.5-0.6c-0.1-0.2-0.1-0.5,0.1-0.8c0.2-0.3,0.5-0.6,0.9-0.6
		c0.2,0,0.3,0,0.4,0.1l8.3,4.1C55.5,57.3,55.7,57.9,55.5,58.4z M53.3,52c-0.2,0.5-0.8,0.7-1.3,0.4l-8.3-4.1
		c-0.2-0.1-0.4-0.3-0.5-0.6c-0.1-0.2-0.1-0.5,0.1-0.8c0.2-0.3,0.5-0.6,0.9-0.6c0.1,0,0.3,0,0.4,0.1c0,0,0,0,0,0l8.3,4.1
		C53.4,50.9,53.6,51.5,53.3,52z M48.4,44.8c0.5,0.1,0.9,0,1.3-0.3c0.1-0.1,0.2-0.1,0.3-0.2c0.5-0.2,1,0.1,1.2,0.6
		c0.1,0.2,0.1,0.5,0,0.7c-0.1,0.2-0.3,0.4-0.6,0.5c-0.1,0-0.3,0.1-0.4,0L45.8,44c-0.2-0.1-0.3-0.1-0.5-0.2l-2.1-6.3l0.6-0.6l1-1
		l2.7,8C47.6,44.4,48,44.7,48.4,44.8z M70.8,39.1c-2.7,0-5.3-0.5-7.8-1.5l-14.4-5.6l2.9-2.9l0.3-0.3l12.8,4.9c3,1.1,5.6,2.9,7.8,5.2
		C71.8,39.1,71.3,39.1,70.8,39.1z"/>
	<path class="st0" d="M47.4,26.2l2.9-2.9c0.6-0.6,0.6-1.4,0-2l-5.9-5.9c-0.5-0.5-1.5-0.5-2,0l-2.9,2.9c-1.1,1.1-1.7,2.5-1.7,4
		c0,3.1,2.5,5.6,5.6,5.6C44.9,27.8,46.3,27.2,47.4,26.2z M40.6,22.2c0-0.8,0.3-1.5,0.8-2l1.9-1.9l3.9,3.9l-1.9,1.9
		c-0.5,0.5-1.2,0.8-2,0.8C41.9,25,40.6,23.8,40.6,22.2z"/>
	<path class="st0" d="M8.1,14.1c-0.1-0.8-0.8-1.3-1.6-1.2c-0.8,0.1-1.3,0.8-1.2,1.6l2,17.9c0.1,0.7,0.7,1.3,1.4,1.3
		c0.1,0,0.1,0,0.2,0c0.8-0.1,1.3-0.8,1.2-1.6L8.1,14.1z"/>
</g>
</svg>
